<svg width="34" height="34" viewBox="0 0 34 34" fill="none" xmlns="http://www.w3.org/2000/svg">
<path fill-rule="evenodd" clip-rule="evenodd" d="M2.574 0.9061C2.06998 1.06355 1.6123 1.34228 1.24111 1.71783C0.86992 2.09338 0.596555 2.55428 0.445 3.0601C0.31 3.5031 0.31 31.1071 0.445 31.5511C0.596596 32.0618 0.873273 32.5265 1.24994 32.9032C1.6266 33.2798 2.09134 33.5565 2.602 33.7081C3.045 33.8431 30.649 33.8431 31.093 33.7081C31.6037 33.5565 32.0684 33.2798 32.4451 32.9032C32.8217 32.5265 33.0984 32.0618 33.25 31.5511C33.385 31.1081 33.385 3.5041 33.25 3.0601C33.0984 2.54944 32.8217 2.0847 32.4451 1.70804C32.0684 1.33137 31.6037 1.0547 31.093 0.9031C30.672 0.7751 2.979 0.7791 2.574 0.9031M30.405 2.9351C30.5547 2.96628 30.6959 3.0293 30.8191 3.11988C30.9423 3.21047 31.0446 3.3265 31.119 3.4601C31.319 3.8051 31.319 30.8061 31.119 31.1511C31.0446 31.2847 30.9423 31.4007 30.8191 31.4913C30.6959 31.5819 30.5547 31.6449 30.405 31.6761C30.069 31.7541 3.626 31.7541 3.29 31.6761C3.1403 31.6449 2.99905 31.5819 2.87586 31.4913C2.75266 31.4007 2.65039 31.2847 2.576 31.1511C2.448 30.9341 2.447 30.8161 2.447 17.3051C2.447 3.7941 2.447 3.6761 2.576 3.4591C2.64871 3.33072 2.74689 3.21855 2.86451 3.12947C2.98213 3.0404 3.11672 2.9763 3.26 2.9411C3.568 2.8681 30.091 2.8661 30.404 2.9411M19.068 9.1531C18.3484 9.35992 17.7278 9.81971 17.3203 10.4478C16.9128 11.0759 16.7459 11.8301 16.8504 12.5715C16.9548 13.3129 17.3235 13.9916 17.8886 14.4827C18.4538 14.9738 19.1773 15.2442 19.926 15.2442C20.6747 15.2442 21.3982 14.9738 21.9634 14.4827C22.5285 13.9916 22.8972 13.3129 23.0016 12.5715C23.1061 11.8301 22.9392 11.0759 22.5317 10.4478C22.1242 9.81971 21.5036 9.35992 20.784 9.1531C20.2174 9.04159 19.6346 9.04159 19.068 9.1531ZM13.268 16.3741C12.999 16.5121 5.719 23.7981 5.601 24.0481C5.49651 24.2785 5.47395 24.5378 5.53707 24.7828C5.60018 25.0278 5.74518 25.2438 5.948 25.3951L6.179 25.5521H27.524L27.739 25.4071C27.9444 25.2588 28.094 25.0457 28.1636 24.8021C28.2333 24.5585 28.219 24.2986 28.123 24.0641C28.016 23.8541 22.723 18.5451 22.504 18.4291C21.888 18.1021 21.626 18.2441 20.149 19.7121L18.909 20.9411L16.638 18.6731C15.389 17.4261 14.285 16.3731 14.186 16.3381C13.8869 16.2418 13.5636 16.2531 13.272 16.3701" fill="#373B63"/>
</svg>
