<svg width="18" height="11" viewBox="0 0 18 11" fill="none" xmlns="http://www.w3.org/2000/svg">
<path d="M8.88301 10.4621C8.72921 10.4623 8.57689 10.4321 8.4348 10.3732C8.29271 10.3143 8.16364 10.228 8.05501 10.1191L0.860005 2.92511C0.652455 2.70307 0.539277 2.4091 0.544353 2.10521C0.549429 1.80131 0.672361 1.51128 0.88721 1.2963C1.10206 1.08132 1.39202 0.958214 1.69591 0.952954C1.9998 0.947695 2.29385 1.06069 2.51601 1.26811L8.88201 7.63411L15.248 1.26811C15.4695 1.05684 15.7648 0.940574 16.0708 0.944173C16.3768 0.947772 16.6693 1.07095 16.8857 1.28737C17.1022 1.50378 17.2253 1.79627 17.2289 2.10231C17.2325 2.40835 17.1163 2.70366 16.905 2.92511L9.71101 10.1191C9.60237 10.228 9.4733 10.3143 9.33121 10.3732C9.18912 10.4321 9.03681 10.4623 8.88301 10.4621Z" fill="white"/>
</svg>
