<svg width="25" height="25" viewBox="0 0 25 25" fill="none" xmlns="http://www.w3.org/2000/svg">
<path d="M21.0259 24.8574H4.18799C3.17333 24.8566 2.20057 24.4536 1.48291 23.7363C0.76525 23.019 0.361187 22.0459 0.359863 21.0312V6.10254C0.361187 5.08779 0.764791 4.1149 1.48242 3.39746C2.20005 2.68002 3.17324 2.27645 4.18799 2.27539H5.3877V1.31738C5.38796 1.06365 5.48904 0.82004 5.66846 0.640625C5.84787 0.46121 6.091 0.360616 6.34473 0.360352C6.5983 0.360878 6.84151 0.461511 7.021 0.640625C7.20048 0.819739 7.30168 1.06284 7.30273 1.31641V2.27539H11.603V1.31738C11.6036 1.06356 11.7047 0.820011 11.8843 0.640625C12.0639 0.461239 12.3072 0.360616 12.561 0.360352C12.8147 0.360615 13.0578 0.461454 13.2373 0.640625C13.4169 0.819795 13.5182 1.06276 13.519 1.31641V2.27539H17.8711V1.31738C17.8714 1.06374 17.9719 0.820858 18.1514 0.641602C18.3308 0.462345 18.5745 0.361328 18.8281 0.361328C19.0819 0.361328 19.3248 0.462374 19.5044 0.641602C19.684 0.820829 19.7856 1.06365 19.7861 1.31738V2.27539H21.0308C22.0453 2.27645 23.0182 2.68023 23.7358 3.39746C24.4534 4.11469 24.8573 5.08699 24.8589 6.10156V21.0322C24.8565 22.0473 24.4515 23.0203 23.7329 23.7373C23.0144 24.4543 22.041 24.8572 21.0259 24.8574ZM19.0308 17.8574C18.7865 17.8574 18.5526 17.9542 18.3799 18.127C18.2072 18.2997 18.1099 18.5341 18.1099 18.7783C18.1107 19.0221 18.2082 19.2557 18.3809 19.4277C18.5535 19.5998 18.787 19.6963 19.0308 19.6963C19.2741 19.696 19.5076 19.5989 19.6797 19.4268C19.8518 19.2547 19.9485 19.0217 19.9487 18.7783C19.9524 18.655 19.9316 18.5319 19.8867 18.417C19.8419 18.302 19.7742 18.1976 19.688 18.1094C19.6022 18.021 19.4993 17.9511 19.3857 17.9033C19.2722 17.8556 19.1501 17.8306 19.0269 17.8311L19.0308 17.8574ZM14.8857 17.8574C14.6419 17.858 14.4085 17.9552 14.2363 18.1279C14.0642 18.3006 13.9675 18.5345 13.9678 18.7783C13.9677 18.899 13.9914 19.0184 14.0376 19.1299C14.0838 19.2414 14.1515 19.3433 14.2368 19.4287C14.4092 19.6012 14.6429 19.6978 14.8867 19.6982C15.1309 19.698 15.3654 19.6014 15.5381 19.4287C15.7107 19.256 15.8078 19.0215 15.8081 18.7773C15.8113 18.654 15.7896 18.5309 15.7446 18.416C15.6996 18.3011 15.632 18.1968 15.5459 18.1084C15.4596 18.0201 15.3566 17.9501 15.2427 17.9023C15.1288 17.8546 15.0063 17.8298 14.8828 17.8301L14.8857 17.8574ZM10.3809 17.8574C10.1366 17.8574 9.90221 17.9542 9.72949 18.127C9.55677 18.2997 9.45996 18.5341 9.45996 18.7783C9.46049 19.0221 9.55778 19.2556 9.73047 19.4277C9.90316 19.5999 10.137 19.6966 10.3809 19.6963C10.6244 19.696 10.8581 19.5991 11.0303 19.4268C11.2024 19.2544 11.2988 19.0209 11.2988 18.7773C11.3025 18.6545 11.2813 18.5325 11.2368 18.418C11.1923 18.3034 11.1256 18.1986 11.04 18.1104C10.9544 18.0222 10.852 17.9522 10.7388 17.9043C10.6256 17.8564 10.5038 17.8312 10.3809 17.8311V17.8574ZM6.23486 17.8574C5.9906 17.8574 5.75622 17.9542 5.5835 18.127C5.41078 18.2997 5.31396 18.5341 5.31396 18.7783C5.31449 19.0221 5.41178 19.2556 5.58447 19.4277C5.75716 19.5999 5.99104 19.6966 6.23486 19.6963C6.47878 19.6966 6.71289 19.5998 6.88574 19.4277C7.05859 19.2556 7.15594 19.0222 7.15674 18.7783C7.15986 18.6553 7.13887 18.5326 7.09424 18.418C7.0496 18.3033 6.98244 18.1989 6.89697 18.1104C6.81122 18.0221 6.70858 17.9522 6.59521 17.9043C6.48185 17.8564 6.3599 17.831 6.23682 17.8311L6.23486 17.8574ZM19.0347 13.7158C18.7911 13.7158 18.5579 13.8115 18.3853 13.9834C18.2126 14.1553 18.1148 14.3892 18.1138 14.6328C18.114 14.8771 18.2112 15.1104 18.3838 15.2832C18.5564 15.456 18.7904 15.5542 19.0347 15.5547C19.2784 15.5539 19.512 15.4558 19.6841 15.2832C19.8562 15.1106 19.9531 14.8775 19.9531 14.6338C19.9614 14.5082 19.9436 14.3821 19.9009 14.2637C19.8582 14.1453 19.7916 14.0367 19.7051 13.9453C19.6184 13.8539 19.5139 13.7808 19.3979 13.7314C19.282 13.6821 19.1568 13.6573 19.0308 13.6582L19.0347 13.7158ZM14.8901 13.7158C14.6471 13.7158 14.4136 13.8116 14.2417 13.9834C14.0698 14.1552 13.9734 14.3888 13.9731 14.6318C13.9725 14.7527 13.9952 14.8725 14.041 14.9844C14.0868 15.0963 14.1545 15.1974 14.2397 15.2832C14.325 15.369 14.426 15.4369 14.5376 15.4834C14.6492 15.5299 14.7692 15.5546 14.8901 15.5547C15.1344 15.5542 15.3684 15.456 15.541 15.2832C15.7137 15.1104 15.8108 14.8771 15.811 14.6328C15.8186 14.5073 15.8003 14.3809 15.7573 14.2627C15.7143 14.1445 15.6475 14.0366 15.561 13.9453C15.4743 13.8539 15.3698 13.7808 15.2539 13.7314C15.138 13.6821 15.0127 13.6573 14.8867 13.6582L14.8901 13.7158ZM10.3848 13.7158C10.1413 13.7158 9.9078 13.8115 9.73535 13.9834C9.5629 14.1553 9.46564 14.3893 9.46484 14.6328C9.46511 14.8769 9.56196 15.1104 9.73438 15.2832C9.90679 15.456 10.1407 15.5539 10.3848 15.5547C10.6286 15.5536 10.8621 15.456 11.0342 15.2832C11.2062 15.1104 11.3027 14.8767 11.3027 14.6328C11.3104 14.5074 11.2923 14.3809 11.2495 14.2627C11.2067 14.1445 11.14 14.0367 11.0537 13.9453C10.9677 13.854 10.8643 13.781 10.749 13.7314C10.6338 13.6819 10.5092 13.6568 10.3838 13.6572L10.3848 13.7158ZM6.23877 13.7158C5.99529 13.7158 5.7618 13.8115 5.58936 13.9834C5.41691 14.1553 5.31964 14.3893 5.31885 14.6328C5.31911 14.8769 5.41596 15.1104 5.58838 15.2832C5.7608 15.456 5.99467 15.5539 6.23877 15.5547C6.48303 15.5547 6.71742 15.4569 6.89014 15.2842C7.06286 15.1115 7.15967 14.8781 7.15967 14.6338C7.1674 14.5082 7.14946 14.3819 7.10645 14.2637C7.06343 14.1455 6.99627 14.0375 6.90967 13.9463C6.82366 13.855 6.72023 13.782 6.60498 13.7324C6.48973 13.6829 6.36519 13.6578 6.23975 13.6582L6.23877 13.7158ZM19.0391 9.56934C18.7951 9.56987 18.5611 9.66721 18.3887 9.83984C18.2162 10.0125 18.1194 10.2462 18.1191 10.4902C18.1191 10.7346 18.216 10.9687 18.3887 11.1416C18.5614 11.3145 18.7957 11.4118 19.04 11.4121C19.2839 11.4111 19.5174 11.3134 19.6895 11.1406C19.8615 10.9678 19.958 10.7341 19.958 10.4902C19.9598 10.3681 19.9371 10.2471 19.8916 10.1338C19.8461 10.0205 19.7786 9.91703 19.6929 9.83008C19.6069 9.74302 19.5046 9.674 19.3916 9.62695C19.2786 9.57991 19.157 9.55636 19.0347 9.55664L19.0391 9.56934ZM14.895 9.56934C14.7743 9.56947 14.6545 9.59328 14.543 9.63965C14.4315 9.68602 14.3304 9.75431 14.2451 9.83984C14.1599 9.92538 14.0924 10.027 14.0464 10.1387C14.0004 10.2503 13.9768 10.3695 13.9771 10.4902C13.9768 10.7341 14.073 10.9679 14.2451 11.1406C14.4172 11.3133 14.6512 11.4106 14.895 11.4111C15.016 11.4113 15.1358 11.388 15.2476 11.3418C15.3594 11.2956 15.4608 11.2272 15.5464 11.1416C15.6319 11.0561 15.6999 10.9546 15.7461 10.8428C15.7923 10.731 15.816 10.6112 15.8159 10.4902C15.8177 10.3677 15.7949 10.2465 15.749 10.1328C15.7032 10.0191 15.6351 9.91515 15.5488 9.82812C15.4624 9.74149 15.3597 9.67266 15.2466 9.62598C15.1335 9.57929 15.0125 9.55619 14.8901 9.55664L14.895 9.56934ZM10.3887 9.56934C10.1445 9.5696 9.91046 9.66718 9.73779 9.83984C9.56513 10.0125 9.46804 10.2461 9.46777 10.4902C9.46777 10.7346 9.5651 10.9687 9.73779 11.1416C9.91049 11.3145 10.1443 11.4118 10.3887 11.4121C10.6325 11.4111 10.866 11.3134 11.0381 11.1406C11.2101 10.9678 11.3071 10.7341 11.3071 10.4902C11.3092 10.3683 11.2865 10.2469 11.2412 10.1338C11.1959 10.0206 11.1286 9.91781 11.043 9.83105C10.9575 9.74379 10.8553 9.67516 10.7427 9.62793C10.63 9.5807 10.5089 9.55642 10.3867 9.55664L10.3887 9.56934ZM6.24414 9.56934C5.99996 9.5696 5.76544 9.66718 5.59277 9.83984C5.42011 10.0125 5.32302 10.2461 5.32275 10.4902C5.32275 10.7348 5.41986 10.9697 5.59277 11.1426C5.76568 11.3155 6.00059 11.4121 6.24512 11.4121C6.36606 11.412 6.48548 11.3882 6.59717 11.3418C6.70886 11.2954 6.81057 11.2272 6.896 11.1416C6.98143 11.056 7.04905 10.9546 7.09521 10.8428C7.14138 10.731 7.16517 10.6112 7.16504 10.4902C7.16702 10.3683 7.14463 10.247 7.09912 10.1338C7.05361 10.0206 6.98577 9.91769 6.8999 9.83105C6.81438 9.74384 6.71226 9.67515 6.59961 9.62793C6.48696 9.58071 6.36629 9.55648 6.24414 9.55664V9.56934Z" fill="#252849"/>
</svg>
