<svg width="32" height="8" viewBox="0 0 32 8" fill="none" xmlns="http://www.w3.org/2000/svg">
<g opacity="0.5">
<path d="M24 4.00098C24 6.21012 25.7909 8.00098 28 8.00098C30.2091 8.00098 32 6.21012 32 4.00098C32 1.79184 30.2091 0.000976563 28 0.000976563C25.7909 0.000976563 24 1.79184 24 4.00098Z" fill="#6080A0"/>
<path d="M12 4.00098C12 6.21012 13.7909 8.00098 16 8.00098C18.2091 8.00098 20 6.21012 20 4.00098C20 1.79184 18.2091 0.000976563 16 0.000976563C13.7909 0.000976563 12 1.79184 12 4.00098Z" fill="#6080A0"/>
<path d="M0 4.00098C0 6.21012 1.79086 8.00098 4 8.00098C6.20914 8.00098 8 6.21012 8 4.00098C8 1.79184 6.20914 0.000976563 4 0.000976563C1.79086 0.000976563 0 1.79184 0 4.00098Z" fill="#6080A0"/>
</g>
</svg>
