<svg width="17" height="10" viewBox="0 0 17 10" fill="none" xmlns="http://www.w3.org/2000/svg">
<path d="M8.50001 9.69101C8.34366 9.69132 8.18879 9.66073 8.04429 9.60101C7.8998 9.54129 7.76852 9.45361 7.65801 9.34301L0.349012 2.033C0.1257 1.80969 0.000244135 1.50682 0.000244141 1.19101C0.000244146 0.875198 0.1257 0.572319 0.349012 0.349007C0.572324 0.125694 0.875201 0.000244146 1.19101 0.000244141C1.50682 0.000244135 1.8097 0.125694 2.03301 0.349007L8.50001 6.81701L14.967 0.349007C15.1903 0.125827 15.4931 0.000501325 15.8089 0.000595093C16.1246 0.000688861 16.4273 0.126198 16.6505 0.34951C16.8737 0.572822 16.999 0.875643 16.9989 1.19136C16.9988 1.50708 16.8733 1.80983 16.65 2.033L9.34101 9.34201C9.2307 9.45267 9.09963 9.54047 8.95531 9.60036C8.81099 9.66025 8.65626 9.69105 8.50001 9.69101Z" fill="#252849"/>
</svg>
