<svg width="38" height="37" viewBox="0 0 38 37" fill="none" xmlns="http://www.w3.org/2000/svg">
<path fill-rule="evenodd" clip-rule="evenodd" d="M17.6714 0.334042C12.924 0.656918 8.48772 2.81148 5.29872 6.34306C2.10971 9.87465 0.417414 14.507 0.578945 19.2626C0.740477 24.0182 2.7432 28.5251 6.16449 31.8321C9.58578 35.1392 14.158 36.9878 18.9164 36.9878C23.6747 36.9878 28.247 35.1392 31.6682 31.8321C35.0895 28.5251 37.0923 24.0182 37.2538 19.2626C37.4153 14.507 35.723 9.87465 32.534 6.34306C29.345 2.81148 24.9087 0.656918 20.1614 0.334042C19.3336 0.248028 18.4991 0.248028 17.6714 0.334042ZM20.3514 2.34004C33.2904 3.36404 39.9084 18.609 31.8074 28.725C22.6244 40.192 4.18737 34.664 2.79837 20.025C2.59392 17.6625 2.90654 15.2838 3.71447 13.0543C4.5224 10.8248 5.80626 8.7981 7.47677 7.11503C9.14728 5.43195 11.1643 4.13295 13.3877 3.30834C15.6111 2.48373 17.9874 2.1533 20.3514 2.34004ZM18.5894 7.64004C17.6224 7.88604 17.3894 8.14004 15.9244 10.624L14.8154 12.496C14.8154 12.504 13.8444 12.763 12.6674 13.073C9.41137 13.93 8.86137 14.366 8.86737 16.088C8.86737 17.036 8.91137 17.111 10.6544 19.296C11.2118 19.9043 11.6964 20.5755 12.0984 21.296C12.0984 21.396 12.0314 22.465 11.9484 23.667C11.7484 26.507 11.8344 26.939 12.7134 27.729C13.7424 28.654 14.4264 28.61 17.1444 27.445C18.2634 26.966 19.2064 26.573 19.2444 26.573C19.2824 26.573 20.2194 26.965 21.3354 27.444L23.3654 28.316H24.1084C24.447 28.3398 24.7868 28.2915 25.1053 28.1742C25.4238 28.057 25.7139 27.8735 25.9563 27.6359C26.1987 27.3983 26.388 27.112 26.5116 26.7959C26.6352 26.4798 26.6903 26.141 26.6734 25.802C26.6734 25.329 26.5124 22.621 26.4204 21.541L26.3874 21.157L27.8874 19.263C29.7564 16.904 29.9554 16.418 29.5434 15.215C29.1604 14.096 28.6714 13.815 25.8914 13.086C25.1348 12.9119 24.39 12.6901 23.6614 12.422C23.6204 12.366 23.1184 11.522 22.5464 10.553C20.9184 7.78904 20.1744 7.24104 18.5944 7.64204M19.6654 9.72104C19.7174 9.77304 20.3544 10.821 21.0814 12.042L22.3994 14.264L24.8504 14.905C27.6994 15.65 27.5224 15.588 27.6394 15.871C27.7684 16.183 27.7764 16.171 25.9734 18.427L24.3734 20.434V20.806C24.3734 21.006 24.4384 22.114 24.5184 23.259C24.7774 26.959 25.0014 26.795 21.6474 25.367C20.3854 24.829 19.3024 24.392 19.2404 24.396C19.1784 24.4 18.0994 24.841 16.8404 25.378C13.5164 26.797 13.7404 26.97 13.9994 23.202L14.1854 20.469L12.5064 18.384C10.2064 15.523 10.1224 15.797 13.6334 14.899L16.0994 14.264L17.4564 11.982C17.9118 11.1655 18.4164 10.3774 18.9674 9.62204C19.0817 9.57964 19.2047 9.56576 19.3256 9.58162C19.4466 9.59747 19.5618 9.64259 19.6614 9.71304" fill="#252849"/>
</svg>
