<svg width="39" height="38" viewBox="0 0 39 38" fill="none" xmlns="http://www.w3.org/2000/svg">
<path fill-rule="evenodd" clip-rule="evenodd" d="M8.64401 0.110077C7.43201 0.158077 7.367 0.226079 7.321 1.49608L7.28601 2.43108L4.23301 2.46108C1.21501 2.49108 1.178 2.49408 0.999004 2.71408C0.629004 3.17208 0.589009 10.4561 0.949009 11.8751C1.31054 13.2068 2.0225 14.4173 3.01075 15.3804C3.99901 16.3435 5.2274 17.024 6.568 17.3511L7.47601 17.5751L7.60201 18.1431C8.0208 19.8769 8.80238 21.5022 9.89521 22.9118C10.988 24.3215 12.3673 25.4834 13.942 26.3211L14.821 26.7961L14.793 28.0621L14.765 29.3211L13.914 29.3461C12.44 29.3901 12.414 29.4241 12.414 31.2251V32.3481L11.838 32.5601C11.0561 32.8528 10.3805 33.3741 9.89893 34.0561C9.41738 34.7382 9.15224 35.5493 9.138 36.3841C9.087 37.1901 9.098 37.2571 9.332 37.5291L9.58101 37.8181L17.53 37.8551C21.902 37.8751 26.446 37.8551 27.63 37.8121L29.779 37.7321L30.008 37.3921C30.817 36.1921 29.539 33.6041 27.669 32.6581L26.983 32.3111L26.883 30.9831C26.76 29.3511 26.778 29.3711 25.462 29.3711H24.53L24.535 28.0441L24.538 26.7211L25.156 26.4211C26.6976 25.6323 28.0595 24.5334 29.1564 23.1934C30.2532 21.8534 31.0614 20.3011 31.53 18.6341C31.876 17.4481 31.73 17.6021 32.747 17.3461C34.0595 17.0188 35.2634 16.3533 36.2386 15.4158C37.2138 14.4784 37.9263 13.3017 38.305 12.0031C38.534 8.98116 38.5721 5.94779 38.419 2.92108C38.3 2.49608 37.892 2.44208 34.765 2.44108H31.937V1.50708C31.937 0.633076 31.921 0.558078 31.679 0.331078L31.421 0.0880775L20.49 0.0800781C14.478 0.0800781 9.14801 0.0890775 8.64601 0.109077M29.998 8.82108C29.912 18.2081 29.859 18.5601 28.152 21.1461C23.852 27.6611 13.928 26.9591 10.369 19.8881C9.38101 17.9211 9.32801 17.3551 9.28201 8.22108L9.251 2.03808H30.065L29.998 8.82108ZM7.279 9.74208C7.34731 11.583 7.29888 13.4263 7.13401 15.2611C6.63401 15.7611 4.164 13.9811 3.418 12.5711C2.818 11.4321 2.78201 11.1961 2.71801 7.61908L2.66401 4.34008H7.30201L7.27501 9.74008M36.515 7.62108C36.462 11.6941 36.326 12.2611 35.073 13.6451C34.2523 14.5251 33.1978 15.153 32.033 15.4551C31.922 15.4551 31.892 4.51908 32.002 4.40808C32.7705 4.34383 33.542 4.32146 34.313 4.34108H36.557L36.514 7.62008M19.219 4.58008C18.6817 5.23801 18.2437 5.97113 17.919 6.75608L16.868 8.79708L14.768 9.12108C12.46 9.47708 12.247 9.54708 12.049 10.0211C11.791 10.6381 11.832 10.7031 13.557 12.4461L15.198 14.1071L14.861 15.9071C14.417 18.2791 14.399 18.6871 14.721 19.0071C15.214 19.5001 15.387 19.4621 17.601 18.3681L19.633 17.3681L21.639 18.3681C23.746 19.4151 23.867 19.4541 24.322 19.2191C24.84 18.9511 24.856 18.4191 24.422 15.9051L24.122 14.1331L25.707 12.5211C27.407 10.7901 27.544 10.5761 27.276 10.0111C27.057 9.55008 26.838 9.47908 24.503 9.11808L22.474 8.80408L21.474 6.86008C20.309 4.59908 19.921 4.20608 19.221 4.58708M20.301 9.21108C21.117 10.7111 20.991 10.6401 23.401 11.0111C24.001 11.1031 23.956 11.2371 22.973 12.2941C21.955 13.3881 21.946 13.4151 22.159 14.7591C22.425 16.4401 22.486 16.3961 20.913 15.6641C19.596 15.0521 19.676 15.0521 18.406 15.6641C17.369 16.1641 16.917 16.2771 16.918 16.0411C16.918 15.9721 16.985 15.5331 17.068 15.0651C17.36 13.4071 17.356 13.3951 15.982 11.9901C15.43 11.4251 15.223 11.1531 15.322 11.1191C15.401 11.0921 15.983 10.9961 16.615 10.9051C18.121 10.6901 18.203 10.6401 18.715 9.63808C19.636 7.84508 19.563 7.86508 20.296 9.21408M19.571 27.6211C20.397 27.6211 21.399 27.5831 21.799 27.5361L22.525 27.4511V29.3771L19.646 29.3511L16.767 29.3211L16.738 28.5971C16.696 27.5601 16.785 27.4351 17.5 27.5381C17.813 27.5831 18.745 27.6201 19.571 27.6201M24.942 32.5201C24.984 34.0011 25.042 34.1031 26.014 34.3291C27.302 34.6291 28.304 35.4691 27.737 35.7731C27.528 35.8851 11.857 35.9271 11.569 35.8161C10.941 35.5751 11.914 34.6411 13.069 34.3721C14.249 34.0981 14.311 33.9981 14.311 32.3581V31.2781H24.907L24.942 32.5271" fill="#252849"/>
</svg>
