<svg width="25" height="25" viewBox="0 0 25 25" fill="none" xmlns="http://www.w3.org/2000/svg">
<path d="M21.0259 24.8569H4.18799C3.17333 24.8561 2.20057 24.4531 1.48291 23.7358C0.76525 23.0186 0.361187 22.0454 0.359863 21.0308V6.10205C0.361187 5.0873 0.764791 4.11442 1.48242 3.39697C2.20005 2.67953 3.17324 2.27596 4.18799 2.2749H5.3877V1.31689C5.38796 1.06316 5.48904 0.819552 5.66846 0.640137C5.84787 0.460722 6.091 0.360128 6.34473 0.359863C6.5983 0.360389 6.84151 0.461023 7.021 0.640137C7.20048 0.81925 7.30168 1.06235 7.30273 1.31592V2.2749H11.603V1.31689C11.6036 1.06307 11.7047 0.819523 11.8843 0.640137C12.0639 0.46075 12.3072 0.360127 12.561 0.359863C12.8147 0.360127 13.0578 0.460966 13.2373 0.640137C13.4169 0.819307 13.5182 1.06227 13.519 1.31592V2.2749H17.8711V1.31689C17.8714 1.06326 17.9719 0.820369 18.1514 0.641113C18.3308 0.461857 18.5745 0.36084 18.8281 0.36084C19.0819 0.360839 19.3248 0.461886 19.5044 0.641113C19.684 0.820341 19.7856 1.06316 19.7861 1.31689V2.2749H21.0308C22.0453 2.27596 23.0182 2.67974 23.7358 3.39697C24.4534 4.1142 24.8573 5.0865 24.8589 6.10107V21.0317C24.8565 22.0468 24.4515 23.0198 23.7329 23.7368C23.0144 24.4539 22.041 24.8567 21.0259 24.8569ZM19.0308 17.8569C18.7865 17.8569 18.5526 17.9537 18.3799 18.1265C18.2072 18.2992 18.1099 18.5336 18.1099 18.7778C18.1107 19.0216 18.2082 19.2552 18.3809 19.4272C18.5535 19.5993 18.787 19.6958 19.0308 19.6958C19.2741 19.6955 19.5076 19.5984 19.6797 19.4263C19.8518 19.2542 19.9485 19.0212 19.9487 18.7778C19.9524 18.6545 19.9316 18.5315 19.8867 18.4165C19.8419 18.3016 19.7742 18.1971 19.688 18.1089C19.6022 18.0205 19.4993 17.9506 19.3857 17.9028C19.2722 17.8551 19.1501 17.8301 19.0269 17.8306L19.0308 17.8569ZM14.8857 17.8569C14.6419 17.8575 14.4085 17.9547 14.2363 18.1274C14.0642 18.3001 13.9675 18.534 13.9678 18.7778C13.9677 18.8985 13.9914 19.0179 14.0376 19.1294C14.0838 19.2409 14.1515 19.3429 14.2368 19.4282C14.4092 19.6007 14.6429 19.6974 14.8867 19.6978C15.1309 19.6975 15.3654 19.6009 15.5381 19.4282C15.7107 19.2556 15.8078 19.021 15.8081 18.7769C15.8113 18.6535 15.7896 18.5304 15.7446 18.4155C15.6996 18.3006 15.632 18.1963 15.5459 18.1079C15.4596 18.0196 15.3566 17.9496 15.2427 17.9019C15.1288 17.8541 15.0063 17.8293 14.8828 17.8296L14.8857 17.8569ZM10.3809 17.8569C10.1366 17.8569 9.90221 17.9537 9.72949 18.1265C9.55677 18.2992 9.45996 18.5336 9.45996 18.7778C9.46049 19.0217 9.55778 19.2551 9.73047 19.4272C9.90316 19.5994 10.137 19.6961 10.3809 19.6958C10.6244 19.6955 10.8581 19.5986 11.0303 19.4263C11.2024 19.254 11.2988 19.0204 11.2988 18.7769C11.3025 18.654 11.2813 18.532 11.2368 18.4175C11.1923 18.3029 11.1256 18.1981 11.04 18.1099C10.9544 18.0217 10.852 17.9517 10.7388 17.9038C10.6256 17.8559 10.5038 17.8307 10.3809 17.8306V17.8569ZM6.23486 17.8569C5.9906 17.8569 5.75622 17.9537 5.5835 18.1265C5.41078 18.2992 5.31396 18.5336 5.31396 18.7778C5.31449 19.0217 5.41178 19.2551 5.58447 19.4272C5.75716 19.5994 5.99104 19.6961 6.23486 19.6958C6.47878 19.6961 6.71289 19.5993 6.88574 19.4272C7.05859 19.2551 7.15594 19.0217 7.15674 18.7778C7.15986 18.6548 7.13887 18.5322 7.09424 18.4175C7.0496 18.3028 6.98244 18.1984 6.89697 18.1099C6.81122 18.0216 6.70858 17.9517 6.59521 17.9038C6.48185 17.8559 6.3599 17.8306 6.23682 17.8306L6.23486 17.8569ZM19.0347 13.7153C18.7911 13.7153 18.5579 13.8111 18.3853 13.9829C18.2126 14.1548 18.1148 14.3888 18.1138 14.6323C18.114 14.8766 18.2112 15.1099 18.3838 15.2827C18.5564 15.4555 18.7904 15.5537 19.0347 15.5542C19.2784 15.5534 19.512 15.4553 19.6841 15.2827C19.8562 15.1101 19.9531 14.877 19.9531 14.6333C19.9614 14.5077 19.9436 14.3816 19.9009 14.2632C19.8582 14.1448 19.7916 14.0363 19.7051 13.9448C19.6184 13.8534 19.5139 13.7803 19.3979 13.731C19.282 13.6816 19.1568 13.6568 19.0308 13.6577L19.0347 13.7153ZM14.8901 13.7153C14.6471 13.7153 14.4136 13.8112 14.2417 13.9829C14.0698 14.1547 13.9734 14.3883 13.9731 14.6313C13.9725 14.7522 13.9952 14.872 14.041 14.9839C14.0868 15.0958 14.1545 15.197 14.2397 15.2827C14.325 15.3685 14.426 15.4364 14.5376 15.4829C14.6492 15.5294 14.7692 15.5541 14.8901 15.5542C15.1344 15.5537 15.3684 15.4555 15.541 15.2827C15.7137 15.1099 15.8108 14.8766 15.811 14.6323C15.8186 14.5068 15.8003 14.3804 15.7573 14.2622C15.7143 14.144 15.6475 14.0361 15.561 13.9448C15.4743 13.8534 15.3698 13.7803 15.2539 13.731C15.138 13.6816 15.0127 13.6568 14.8867 13.6577L14.8901 13.7153ZM10.3848 13.7153C10.1413 13.7153 9.9078 13.811 9.73535 13.9829C9.5629 14.1548 9.46564 14.3888 9.46484 14.6323C9.46511 14.8764 9.56196 15.1099 9.73438 15.2827C9.90679 15.4555 10.1407 15.5534 10.3848 15.5542C10.6286 15.5531 10.8621 15.4555 11.0342 15.2827C11.2062 15.1099 11.3027 14.8762 11.3027 14.6323C11.3104 14.5069 11.2923 14.3804 11.2495 14.2622C11.2067 14.144 11.14 14.0362 11.0537 13.9448C10.9677 13.8535 10.8643 13.7805 10.749 13.731C10.6338 13.6814 10.5092 13.6563 10.3838 13.6567L10.3848 13.7153ZM6.23877 13.7153C5.99529 13.7153 5.7618 13.811 5.58936 13.9829C5.41691 14.1548 5.31964 14.3888 5.31885 14.6323C5.31911 14.8764 5.41596 15.1099 5.58838 15.2827C5.7608 15.4555 5.99467 15.5534 6.23877 15.5542C6.48303 15.5542 6.71742 15.4564 6.89014 15.2837C7.06286 15.111 7.15967 14.8776 7.15967 14.6333C7.1674 14.5078 7.14946 14.3814 7.10645 14.2632C7.06343 14.145 6.99627 14.037 6.90967 13.9458C6.82366 13.8545 6.72023 13.7815 6.60498 13.7319C6.48973 13.6824 6.36519 13.6573 6.23975 13.6577L6.23877 13.7153ZM19.0391 9.56885C18.7951 9.56938 18.5611 9.66672 18.3887 9.83936C18.2162 10.012 18.1194 10.2457 18.1191 10.4897C18.1191 10.7341 18.216 10.9682 18.3887 11.1411C18.5614 11.314 18.7957 11.4114 19.04 11.4116C19.2839 11.4106 19.5174 11.3129 19.6895 11.1401C19.8615 10.9673 19.958 10.7336 19.958 10.4897C19.9598 10.3677 19.9371 10.2466 19.8916 10.1333C19.8461 10.02 19.7786 9.91654 19.6929 9.82959C19.6069 9.74254 19.5046 9.67351 19.3916 9.62646C19.2786 9.57942 19.157 9.55587 19.0347 9.55615L19.0391 9.56885ZM14.895 9.56885C14.7743 9.56898 14.6545 9.59279 14.543 9.63916C14.4315 9.68553 14.3304 9.75382 14.2451 9.83936C14.1599 9.92489 14.0924 10.0265 14.0464 10.1382C14.0004 10.2498 13.9768 10.369 13.9771 10.4897C13.9768 10.7336 14.073 10.9674 14.2451 11.1401C14.4172 11.3128 14.6512 11.4101 14.895 11.4106C15.016 11.4108 15.1358 11.3875 15.2476 11.3413C15.3594 11.2951 15.4608 11.2267 15.5464 11.1411C15.6319 11.0556 15.6999 10.9541 15.7461 10.8423C15.7923 10.7305 15.816 10.6107 15.8159 10.4897C15.8177 10.3672 15.7949 10.246 15.749 10.1323C15.7032 10.0186 15.6351 9.91466 15.5488 9.82764C15.4624 9.741 15.3597 9.67218 15.2466 9.62549C15.1335 9.5788 15.0125 9.5557 14.8901 9.55615L14.895 9.56885ZM10.3887 9.56885C10.1445 9.56911 9.91046 9.66669 9.73779 9.83936C9.56513 10.012 9.46804 10.2456 9.46777 10.4897C9.46777 10.7341 9.5651 10.9682 9.73779 11.1411C9.91049 11.314 10.1443 11.4114 10.3887 11.4116C10.6325 11.4106 10.866 11.3129 11.0381 11.1401C11.2101 10.9673 11.3071 10.7336 11.3071 10.4897C11.3092 10.3679 11.2865 10.2465 11.2412 10.1333C11.1959 10.0201 11.1286 9.91732 11.043 9.83057C10.9575 9.7433 10.8553 9.67467 10.7427 9.62744C10.63 9.58021 10.5089 9.55593 10.3867 9.55615L10.3887 9.56885ZM6.24414 9.56885C5.99996 9.56911 5.76544 9.66669 5.59277 9.83936C5.42011 10.012 5.32302 10.2456 5.32275 10.4897C5.32275 10.7343 5.41986 10.9692 5.59277 11.1421C5.76568 11.315 6.00059 11.4116 6.24512 11.4116C6.36606 11.4115 6.48548 11.3877 6.59717 11.3413C6.70886 11.2949 6.81057 11.2267 6.896 11.1411C6.98143 11.0555 7.04905 10.9541 7.09521 10.8423C7.14138 10.7305 7.16517 10.6107 7.16504 10.4897C7.16702 10.3678 7.14463 10.2465 7.09912 10.1333C7.05361 10.0201 6.98577 9.9172 6.8999 9.83057C6.81438 9.74335 6.71226 9.67467 6.59961 9.62744C6.48696 9.58022 6.36629 9.55599 6.24414 9.55615V9.56885Z" fill="#252849"/>
</svg>
