<svg width="27" height="34" viewBox="0 0 27 34" fill="none" xmlns="http://www.w3.org/2000/svg">
<path d="M20.1282 31.657C19.5452 31.378 19.4702 31.308 16.5382 28.295C15.1012 26.819 13.9002 25.608 13.8382 25.575C13.7782 25.608 12.5762 26.819 11.1382 28.295C8.2062 31.308 8.1312 31.378 7.5482 31.657C7.07587 31.8831 6.55884 32.0003 6.0352 32C5.24928 32.0059 4.48353 31.7513 3.85757 31.2761C3.2316 30.8008 2.78067 30.1316 2.5752 29.373C2.4952 29.058 2.4872 27.673 2.5012 17.379L2.5212 5.741L2.6822 5.273C2.94108 4.49342 3.3957 3.79331 4.00256 3.23969C4.60941 2.68606 5.34819 2.29743 6.1482 2.111C6.4292 2.049 7.9202 2.036 13.8402 2.041C19.7602 2.033 21.2512 2.046 21.5322 2.108C22.3328 2.29431 23.0721 2.6831 23.6794 3.23711C24.2866 3.79113 24.7414 4.4918 25.0002 5.272L25.1612 5.74L25.1772 17.378C25.1912 27.669 25.1822 29.057 25.1032 29.372C24.8977 30.1306 24.4468 30.7998 23.8208 31.2751C23.1949 31.7503 22.4291 32.0049 21.6432 31.999C21.1195 31.9995 20.6025 31.8823 20.1302 31.656L20.1282 31.657Z" stroke="white" stroke-width="3"/>
</svg>
