<svg width="69" height="70" viewBox="0 0 69 70" fill="none" xmlns="http://www.w3.org/2000/svg">
<path opacity="0.3" d="M34.2832 69.564C26.3741 69.5593 18.7099 66.8207 12.5888 61.8123C6.46763 56.8038 2.26597 49.8334 0.695538 42.0819C-0.874894 34.3304 0.282463 26.2743 3.97155 19.2783C7.66064 12.2824 13.6546 6.7767 20.9382 3.69401C29.3158 0.154824 38.7563 0.0886104 47.1828 3.50993C55.6092 6.93125 62.3315 13.5598 65.8707 21.9375C69.4098 30.3152 69.476 39.7556 66.0547 48.1821C62.6334 56.6086 56.0048 63.3308 47.6272 66.87C43.4057 68.6566 38.8671 69.5729 34.2832 69.564ZM34.2832 4.00001C28.0959 3.99981 22.0476 5.83436 16.903 9.27166C11.7584 12.709 7.74861 17.5946 5.38072 23.3108C3.01283 29.027 2.39318 35.317 3.60013 41.3854C4.80708 47.4538 7.78641 53.028 12.1614 57.4031C16.5363 61.7782 22.1104 64.7577 28.1788 65.9648C34.2471 67.172 40.5371 66.5525 46.2534 64.1848C51.9697 61.8171 56.8555 57.8075 60.2929 52.663C63.7304 47.5185 65.5652 41.4702 65.5652 35.283C65.5556 26.9893 62.2568 19.0381 56.3924 13.1735C50.528 7.30885 42.5768 4.0098 34.2832 4.00001Z" fill="#F43149"/>
<path d="M34.2822 6.97101C39.8816 6.97101 45.3552 8.63142 50.0109 11.7423C54.6667 14.8531 58.2954 19.2747 60.4381 24.4479C62.5809 29.621 63.1416 35.3134 62.0492 40.8052C60.9568 46.297 58.2605 51.3415 54.3011 55.3009C50.3417 59.2603 45.2972 61.9566 39.8054 63.049C34.3136 64.1414 28.6212 63.5808 23.448 61.438C18.2749 59.2952 13.8533 55.6665 10.7425 51.0108C7.6316 46.355 5.97119 40.8814 5.97119 35.282C5.97119 27.7735 8.95395 20.5724 14.2633 15.2631C19.5726 9.95376 26.7736 6.97101 34.2822 6.97101V6.97101Z" fill="#F43149"/>
<path d="M34.0003 50C30.022 50 26.2067 48.4197 23.3937 45.6066C20.5806 42.7936 19.0003 38.9783 19.0003 35C18.9784 32.8223 19.4412 30.6669 20.3553 28.6902C21.2694 26.7134 22.6118 24.9648 24.2853 23.571C27.0065 21.2815 30.444 20.0179 34.0003 20C37.9785 20 41.7938 21.5804 44.6069 24.3934C47.4199 27.2064 49.0003 31.0218 49.0003 35C49.0003 38.9783 47.4199 42.7936 44.6069 45.6066C41.7938 48.4197 37.9785 50 34.0003 50ZM34.1793 40.938L37.8573 42.506C38.0221 42.5771 38.1997 42.6139 38.3793 42.614H38.3873C38.5743 42.6149 38.7596 42.5771 38.9314 42.5032C39.1033 42.4292 39.258 42.3206 39.386 42.1842C39.514 42.0477 39.6125 41.8864 39.6754 41.7101C39.7382 41.5339 39.764 41.3467 39.7513 41.16L39.4713 36.92L42.0653 33.674C42.2068 33.4961 42.3017 33.2857 42.3414 33.0619C42.381 32.838 42.3641 32.6078 42.2921 32.3921C42.2202 32.1765 42.0956 31.9822 41.9295 31.8269C41.7635 31.6716 41.5613 31.5603 41.3413 31.503L37.4723 30.492L35.3533 26.922C35.2238 26.7304 35.0492 26.5735 34.845 26.465C34.6407 26.3566 34.413 26.2998 34.1818 26.2998C33.9505 26.2998 33.7228 26.3566 33.5185 26.465C33.3143 26.5735 33.1398 26.7304 33.0103 26.922L30.8883 30.494L27.0223 31.506C26.8023 31.5634 26.6001 31.6748 26.4342 31.8302C26.2683 31.9857 26.1439 32.1801 26.0724 32.3959C26.0008 32.6116 25.9844 32.8419 26.0245 33.0657C26.0647 33.2894 26.1601 33.4996 26.3023 33.677L28.8903 36.914L28.6103 41.156C28.5952 41.3879 28.6397 41.6198 28.7395 41.8296C28.8393 42.0395 28.9911 42.2203 29.1805 42.355C29.3699 42.4897 29.5905 42.5737 29.8215 42.5991C30.0525 42.6244 30.2862 42.5903 30.5003 42.5L34.1793 40.938Z" fill="white"/>
</svg>
