<svg width="24" height="21" viewBox="0 0 24 21" fill="none" xmlns="http://www.w3.org/2000/svg">
<path fill-rule="evenodd" clip-rule="evenodd" d="M22.1357 2.59437C22.4693 2.27527 22.4303 1.69306 22.0485 1.29395C21.6668 0.894849 21.0869 0.82999 20.7533 1.14909L18.5451 3.26128L18.5449 3.26115L17.0724 4.66957L17.0726 4.6697L14.6409 6.99567L14.6408 6.99553L13.1846 8.38839L13.1848 8.38852L10.3374 11.1121L10.3373 11.1119L8.88113 12.5047L8.88126 12.5049L6.35844 14.918L6.35827 14.9179L4.89877 16.314L4.89894 16.3141L2.7362 18.3828C2.4026 18.7019 2.44163 19.2841 2.82339 19.6832C3.20514 20.0823 3.78505 20.1472 4.11865 19.8281L6.57918 17.4745L6.57928 17.4746L8.09475 16.025L8.09465 16.025L10.511 13.7137L10.5111 13.7137L12.3313 11.9727L12.3311 11.9727L13.9562 10.4183L13.9562 10.4184L15.7762 8.67752L15.7762 8.6774L18.6444 5.93386L18.6445 5.93393L20.0917 4.54965L20.0916 4.54958L22.1357 2.59437ZM20.7987 5.25676L19.3534 6.63923L19.3955 6.68393C20.2818 7.6294 20.9646 8.57868 21.4256 9.29252C21.6051 9.57044 21.75 9.81113 21.8593 9.99999C21.75 10.1889 21.6051 10.4295 21.4256 10.7075C20.9646 11.4213 20.2818 12.3706 19.3955 13.3161C17.6045 15.2264 15.1005 17 12 17C10.9592 17 9.98568 16.8001 9.08375 16.4624L7.51085 17.9669C8.83571 18.5944 10.3356 19 12 19C15.8995 19 18.8955 16.7736 20.8545 14.6839C21.8432 13.6294 22.5979 12.5787 23.1057 11.7925C23.3601 11.3985 23.5542 11.0684 23.686 10.834C23.752 10.7168 23.8025 10.6233 23.8372 10.5576C23.8546 10.5247 23.8681 10.4987 23.8777 10.4802L23.889 10.458L23.8925 10.4511L23.8936 10.4488C23.8938 10.4484 23.8944 10.4472 23 9.99999L23.8944 10.4472C24.0352 10.1657 24.0348 9.8336 23.8941 9.55208L23.8925 9.54886L23.889 9.54203L23.8777 9.51982C23.8681 9.50127 23.8546 9.47531 23.8372 9.44243C23.8025 9.37669 23.752 9.28322 23.686 9.16598C23.5542 8.93163 23.3601 8.60151 23.1057 8.20747C22.5979 7.42131 21.8432 6.37059 20.8545 5.31605L20.7987 5.25676ZM23.8941 9.55208L23 9.99999C23.8944 9.55278 23.8943 9.55244 23.8941 9.55208ZM15.9972 9.84948L11.6719 13.9867C11.7801 13.9955 11.8895 14 12 14C14.2091 14 16 12.2091 16 9.99999C16 9.9496 15.9991 9.89942 15.9972 9.84948ZM5.58398 14.2747L4.13504 15.6607C3.7804 15.3377 3.45037 15.0092 3.14546 14.6839C2.15683 13.6294 1.40207 12.5787 0.894336 11.7925C0.63985 11.3985 0.445792 11.0684 0.313971 10.834C0.248023 10.7168 0.19754 10.6233 0.162753 10.5576C0.145357 10.5247 0.131875 10.4987 0.122338 10.4802L0.11099 10.458L0.107539 10.4511L0.105573 10.4472L0.996884 10.0016L0.216952 10.3913L0.216917 10.3914C0.107016 10.4463 0.105502 10.447 0.105569 10.4472L0.105573 10.4472C-0.0351909 10.1657 -0.0351909 9.83431 0.105573 9.55278L1 9.99999C0.105573 9.55278 0.106186 9.55156 0.10637 9.55119L0.107539 9.54886L0.11099 9.54203L0.122338 9.51982C0.131875 9.50127 0.145357 9.47531 0.162753 9.44243C0.19754 9.37669 0.248023 9.28322 0.313971 9.16598C0.445792 8.93163 0.63985 8.60151 0.894336 8.20747C1.40207 7.42131 2.15683 6.37059 3.14546 5.31605C5.10448 3.22643 8.10049 0.999993 12 0.999993C14.1916 0.999993 16.0979 1.70327 17.695 2.69027L16.1924 4.12755C14.9541 3.44424 13.5517 2.99999 12 2.99999C8.89951 2.99999 6.39552 4.77355 4.60454 6.68393C3.71817 7.6294 3.03543 8.57868 2.57441 9.29252C2.39492 9.57044 2.25003 9.81113 2.14074 9.99999C2.25003 10.1889 2.39492 10.4295 2.57441 10.7075C3.03543 11.4213 3.71817 12.3706 4.60454 13.3161C4.91041 13.6423 5.23709 13.9646 5.58398 14.2747ZM12 5.99999C12.6444 5.99999 13.2533 6.15239 13.7925 6.42312L12.139 8.00475C12.093 8.00159 12.0467 7.99999 12 7.99999C10.8954 7.99999 10 8.89542 10 9.99999C10 10.0168 10.0002 10.0335 10.0006 10.0501L8.34694 11.6319C8.12398 11.1336 8 10.5813 8 9.99999C8 7.79085 9.79086 5.99999 12 5.99999Z" fill="#84878D"/>
</svg>
