<svg width="25" height="18" viewBox="0 0 25 18" fill="none" xmlns="http://www.w3.org/2000/svg">
<path d="M12.5 0.0670166C9.8276 0.114883 7.23828 1.00381 5.1 2.60748C2.96172 4.21114 1.38328 6.44794 0.588989 9.00002C1.38328 11.5521 2.96172 13.7889 5.1 15.3926C7.23828 16.9962 9.8276 17.8851 12.5 17.933C15.1724 17.8851 17.7617 16.9962 19.9 15.3926C22.0383 13.7889 23.6167 11.5521 24.411 9.00002C23.6167 6.44794 22.0383 4.21114 19.9 2.60748C17.7617 1.00381 15.1724 0.114883 12.5 0.0670166V0.0670166ZM12.5 14.956C11.322 14.956 10.1705 14.6067 9.19101 13.9522C8.21155 13.2978 7.44816 12.3676 6.99736 11.2793C6.54657 10.191 6.42862 8.99341 6.65843 7.83806C6.88825 6.68271 7.4555 5.62145 8.28846 4.78849C9.12142 3.95553 10.1827 3.38828 11.338 3.15846C12.4934 2.92865 13.6909 3.0466 14.7793 3.49739C15.8676 3.94819 16.7978 4.71158 17.4522 5.69104C18.1067 6.6705 18.456 7.82203 18.456 9.00002C18.456 10.5796 17.8285 12.0946 16.7115 13.2115C15.5946 14.3285 14.0796 14.956 12.5 14.956Z" fill="#3F3D56"/>
<path d="M14.606 6.89501C15.0225 7.31146 15.3062 7.8421 15.4212 8.41979C15.5362 8.99749 15.4772 9.59631 15.2518 10.1405C15.0265 10.6847 14.6448 11.1498 14.155 11.4771C13.6653 11.8044 13.0895 11.979 12.5005 11.979C11.9114 11.979 11.3356 11.8044 10.8459 11.4771C10.3562 11.1498 9.97446 10.6847 9.74908 10.1405C9.5237 9.59631 9.46477 8.99749 9.57974 8.41979C9.6947 7.8421 9.9784 7.31146 10.395 6.89501C10.9534 6.33669 11.7108 6.02305 12.5005 6.02305C13.2901 6.02305 14.0475 6.33669 14.606 6.89501" fill="#3F3D56"/>
</svg>
