<svg width="27" height="35" viewBox="0 0 27 35" fill="none" xmlns="http://www.w3.org/2000/svg">
<path d="M19.7284 32.393C19.1284 32.105 19.0484 32.032 16.0164 28.917C14.5314 27.391 13.2884 26.138 13.2264 26.104C13.1644 26.138 11.9264 27.39 10.4364 28.917C7.40041 32.032 7.32741 32.105 6.72441 32.393C6.23617 32.6266 5.70168 32.7476 5.16041 32.747C4.34775 32.7532 3.55593 32.49 2.90861 31.9986C2.2613 31.5073 1.79495 30.8154 1.58241 30.031C1.50041 29.706 1.49141 28.268 1.50541 17.629L1.52141 5.59397L1.68741 5.10997C1.95511 4.30363 2.42533 3.57952 3.05304 3.00697C3.68075 2.43441 4.44493 2.03259 5.27241 1.83996C5.56341 1.77596 7.10041 1.76196 13.2264 1.76796C19.3474 1.75896 20.8894 1.77296 21.1804 1.83796C22.0078 2.0305 22.7719 2.43217 23.3996 3.00454C24.0273 3.57691 24.4976 4.30082 24.7654 5.10697L24.9314 5.59097L24.9474 17.626C24.9614 28.268 24.9524 29.703 24.8704 30.026C24.6579 30.8104 24.1915 31.5023 23.5442 31.9937C22.8969 32.485 22.1051 32.7482 21.2924 32.742C20.7511 32.7426 20.2166 32.6216 19.7284 32.388V32.393Z" stroke="#252849" stroke-width="2.4"/>
</svg>
