<svg width="46" height="46" viewBox="0 0 46 46" fill="none" xmlns="http://www.w3.org/2000/svg">
<path d="M22.578 0C28.5655 0 34.3078 2.37854 38.5416 6.61236C42.7754 10.8462 45.154 16.5885 45.154 22.576C45.1486 25.7935 44.4625 28.9734 43.141 31.907C41.4648 35.6012 38.8243 38.7755 35.4971 41.0963C32.1699 43.417 28.2788 44.7985 24.233 45.0954C20.1873 45.3924 16.1362 44.5938 12.5058 42.7836C8.87543 40.9735 5.79977 38.2187 3.60222 34.8088C1.40468 31.399 0.166419 27.46 0.0176353 23.4061C-0.131149 19.3522 0.815037 15.333 2.75672 11.7712C4.69839 8.20947 7.56384 5.23661 11.0518 3.16522C14.5397 1.09383 18.5213 0.00044184 22.578 0V0Z" fill="#95AEC7"/>
<path d="M15.0018 32.7396C14.5693 32.4927 14.1771 32.1797 13.8394 31.8136C13.5014 31.447 13.225 31.028 13.0208 30.5731C12.5831 29.5836 12.5211 28.4687 12.846 27.4366C12.9581 27.0544 14.9508 23.5194 16.7543 20.3957C18.5578 17.2719 20.6299 13.7645 20.92 13.4481C21.3544 12.9659 21.8589 12.5513 22.4165 12.2192C22.9547 11.897 23.5388 11.6589 24.1487 11.5121C24.7662 11.3654 25.4018 11.3106 26.0354 11.3497C26.7022 11.3908 27.3609 11.5248 27.9903 11.7488C28.1739 11.8212 28.3504 11.9101 28.5187 12.0132C29.1297 12.3592 29.7016 12.7695 30.225 13.2375C31.0464 14.0843 31.6269 15.1344 31.9075 16.2803C32.1704 17.4133 32.1171 18.5969 31.7534 19.7016C31.6267 20.1031 30.5871 21.9853 29.615 23.6711C28.956 24.888 28.2257 26.0643 27.4289 27.1958C27.2564 27.2897 27.0622 27.3371 26.8659 27.333C26.6695 27.329 26.4783 27.2741 26.3098 27.1732C26.1543 27.0882 26.0279 26.9585 25.9475 26.8006C25.9326 26.7665 25.916 26.7355 25.9016 26.7064L25.896 26.6964C25.6761 26.2773 25.6755 26.277 27.3604 23.3065C27.4939 23.0753 27.6364 22.829 27.7804 22.5634C29.7665 19.0555 29.7858 19.019 29.863 18.5832C30.0409 17.6958 29.9328 16.7745 29.5555 15.9519C29.1782 15.1293 28.5508 14.4473 27.7622 14.0032C26.9369 13.5058 25.9622 13.3155 25.0105 13.4666C24.0588 13.6176 23.1912 14.1009 22.5604 14.8294C22.3505 15.065 20.4001 18.3706 18.6715 21.3425C16.943 24.3144 15.0413 27.6546 14.9369 27.9615C14.7381 28.5127 14.7432 29.1171 14.9514 29.6648C15.1597 30.2125 15.5567 30.6675 16.0715 30.9474C16.4832 31.1922 16.9576 31.3127 17.4363 31.2945C17.9149 31.2762 18.3778 31.1197 18.7697 30.8443L19.0928 30.6226L21.8846 25.8261L24.6747 21.0286L24.6294 20.7712C24.6134 20.6736 24.5759 20.5812 24.5201 20.4995C24.4643 20.4178 24.392 20.349 24.3069 20.2986C24.2134 20.2466 24.1092 20.2152 24.0026 20.2064L23.9461 20.2008C23.5507 20.1596 23.551 20.1599 21.7974 23.1393L21.5552 23.5588C19.7818 26.5683 19.645 26.7846 19.4584 26.8858C19.2999 26.9696 19.1224 27.0116 18.9432 27.0067C18.764 27.0017 18.5886 26.95 18.435 26.8576C18.2805 26.7721 18.1517 26.648 18.0603 26.4969C17.9688 26.3459 17.9177 26.1738 17.9135 25.9972L17.9097 25.6815L19.8096 22.3908C22.0596 18.4937 22.0601 18.4936 23.1762 18.1945C23.5348 18.0961 23.9092 18.07 24.278 18.118C24.6469 18.166 25.0027 18.2871 25.3242 18.474C25.876 18.7912 26.3092 19.2792 26.559 19.8646C26.8193 20.4769 26.8463 21.1641 26.6352 21.7951C26.5614 22.025 25.6546 23.6269 23.6962 26.9949L20.8638 31.8638L20.4515 32.2223C20.0536 32.5726 19.5997 32.8544 19.1091 33.0553C18.6591 33.2403 18.181 33.3497 17.6953 33.3791C16.7538 33.4363 15.8171 33.214 15.0018 32.7396Z" fill="white"/>
</svg>
