<svg width="25" height="26" viewBox="0 0 25 26" fill="none" xmlns="http://www.w3.org/2000/svg">
<path d="M22.89 1.966H1.76C0.787979 1.966 0 2.75398 0 3.726V3.727C0 4.69902 0.787979 5.487 1.76 5.487H22.89C23.862 5.487 24.65 4.69902 24.65 3.727V3.726C24.65 2.75398 23.862 1.966 22.89 1.966Z" fill="white"/>
<path d="M7.3252 7C9.25819 7 10.8252 5.433 10.8252 3.5C10.8252 1.567 9.25819 0 7.3252 0C5.3922 0 3.8252 1.567 3.8252 3.5C3.8252 5.433 5.3922 7 7.3252 7Z" fill="white"/>
<path d="M22.89 20.747H1.76C0.787979 20.747 0 21.535 0 22.507V22.508C0 23.48 0.787979 24.268 1.76 24.268H22.89C23.862 24.268 24.65 23.48 24.65 22.508V22.507C24.65 21.535 23.862 20.747 22.89 20.747Z" fill="white"/>
<path d="M7.3252 26C9.25819 26 10.8252 24.433 10.8252 22.5C10.8252 20.567 9.25819 19 7.3252 19C5.3922 19 3.8252 20.567 3.8252 22.5C3.8252 24.433 5.3922 26 7.3252 26Z" fill="white"/>
<path d="M22.89 11.356H1.76C0.787979 11.356 0 12.144 0 13.116V13.117C0 14.089 0.787979 14.877 1.76 14.877H22.89C23.862 14.877 24.65 14.089 24.65 13.117V13.116C24.65 12.144 23.862 11.356 22.89 11.356Z" fill="white"/>
<path d="M17.3252 17C19.2582 17 20.8252 15.2091 20.8252 13C20.8252 10.7909 19.2582 9 17.3252 9C15.3922 9 13.8252 10.7909 13.8252 13C13.8252 15.2091 15.3922 17 17.3252 17Z" fill="white"/>
</svg>
