<svg width="20" height="12" viewBox="0 0 20 12" fill="none" xmlns="http://www.w3.org/2000/svg">
<path d="M10.0948 11.3617C9.9126 11.362 9.73214 11.3262 9.56379 11.2566C9.39543 11.1869 9.24251 11.0846 9.1138 10.9557L0.595797 2.43768C0.335619 2.17751 0.189453 1.82463 0.189453 1.45668C0.189453 1.08873 0.335619 0.735855 0.595797 0.475677C0.855974 0.2155 1.20885 0.0693359 1.5768 0.0693359C1.94474 0.0693359 2.29762 0.2155 2.5578 0.475677L10.0948 8.01268L17.6318 0.475677C17.8957 0.235282 18.2421 0.1059 18.599 0.114441C18.9559 0.122982 19.2957 0.268793 19.5478 0.521538C19.7999 0.774283 19.9449 1.1145 19.9525 1.4714C19.9601 1.8283 19.8299 2.17439 19.5888 2.43768L11.0708 10.9557C10.8121 11.2149 10.4611 11.3609 10.0948 11.3617Z" fill="#252849"/>
</svg>
