<svg width="37" height="37" viewBox="0 0 37 37" fill="none" xmlns="http://www.w3.org/2000/svg">
<path fill-rule="evenodd" clip-rule="evenodd" d="M16.9712 0.0659753C12.2238 0.388852 7.78753 2.54341 4.59852 6.075C1.40951 9.60658 -0.282781 14.2389 -0.12125 18.9945C0.0402813 23.7501 2.04301 28.257 5.4643 31.5641C8.88559 34.8711 13.4578 36.7197 18.2162 36.7197C22.9745 36.7197 27.5468 34.8711 30.9681 31.5641C34.3893 28.257 36.3921 23.7501 36.5536 18.9945C36.7151 14.2389 35.0228 9.60658 31.8338 6.075C28.6448 2.54341 24.2086 0.388852 19.4612 0.0659753C18.6334 -0.0200386 17.7989 -0.0200386 16.9712 0.0659753M19.6512 2.07198C32.5902 3.09598 39.2082 18.341 31.1072 28.457C21.9242 39.924 3.48717 34.396 2.09817 19.757C1.89373 17.3944 2.20634 15.0157 3.01427 12.7863C3.8222 10.5568 5.10606 8.53003 6.77657 6.84696C8.44708 5.16389 10.4642 3.86488 12.6875 3.04027C14.9109 2.21566 17.2872 1.88524 19.6512 2.07198" fill="#252849"/>
<path d="M12.4285 20.9117C12.9305 19.5889 13.6399 18.3539 14.5291 17.2535C15.5811 15.8615 14.9769 17.5614 15.2889 14.9224C15.3329 14.5634 15.3765 14.1799 15.3885 14.0679L15.4129 13.8677L15.7127 14.0035C16.3188 14.2716 16.9906 14.3538 17.6434 14.2388C17.9874 14.1718 17.9635 14.1193 17.8875 14.8023C17.5035 18.1363 17.9034 17.0654 16.6004 18.7954C15.0734 20.8174 14.601 21.9252 14.658 23.3052C14.6662 23.8838 14.8029 24.454 15.0584 24.9732C15.3139 25.4923 15.6821 25.9478 16.1356 26.3072C16.589 26.6665 17.1167 26.9202 17.6805 27.0503C18.2443 27.1805 18.8292 27.1834 19.3943 27.0591C20.1763 26.831 20.8726 26.3736 21.3914 25.7456C21.9103 25.1177 22.2279 24.3486 22.3045 23.5376L22.3328 23.19H19.5906L22.2205 20.5581C23.0389 19.6398 23.9295 18.7886 24.8836 18.0122C25.0109 20.0727 25.019 22.1393 24.907 24.2007C24.439 27.7067 22.2611 29.5247 18.5311 29.5337C13.6681 29.5427 10.8775 25.6047 12.4285 20.9117ZM15.3904 12.2642C14.9605 11.9289 14.632 11.481 14.4412 10.9703C14.2504 10.4595 14.2055 9.90667 14.3104 9.37162C14.4152 8.83657 14.6655 8.34097 15.035 7.93998C15.4044 7.53898 15.8785 7.24743 16.4031 7.09916C16.8356 6.98456 17.2886 6.97139 17.7274 7.05912C18.1661 7.14685 18.5783 7.33389 18.9334 7.606C19.2885 7.8781 19.5763 8.22769 19.7752 8.62846C19.9741 9.02923 20.079 9.47012 20.0809 9.91752C20.0865 10.3031 20.015 10.6859 19.8709 11.0435C19.7268 11.4011 19.5124 11.7266 19.241 12.0005C18.9697 12.2745 18.6471 12.4917 18.2908 12.6392C17.9346 12.7867 17.5524 12.8618 17.1668 12.8599C16.5263 12.8575 15.9032 12.6481 15.3904 12.2642V12.2642Z" fill="#252849"/>
</svg>
