<svg width="30" height="30" viewBox="0 0 30 30" fill="none" xmlns="http://www.w3.org/2000/svg">
<path opacity="0.6" fill-rule="evenodd" clip-rule="evenodd" d="M13.268 0.0400233C9.54843 0.40551 6.108 2.17481 3.64709 4.98772C1.18618 7.80063 -0.110194 11.4457 0.0218802 15.1808C0.153955 18.9159 1.70455 22.4603 4.358 25.0924C7.01144 27.7244 10.5682 29.2463 14.3043 29.3481C18.0404 29.45 21.6748 28.1242 24.4677 25.6406C27.2606 23.157 29.002 19.7024 29.3374 15.98C29.6728 12.2576 28.577 8.54738 26.273 5.60456C23.969 2.66175 20.6301 0.707627 16.936 0.140023C15.7164 0.0326195 14.4915 -0.000775063 13.268 0.0400233ZM13.82 6.80702C12.6771 6.72052 11.5496 6.49072 10.464 6.12302L10.295 6.05102L10.568 5.47502C11.1708 4.06468 12.1913 2.87287 13.492 2.06002L13.812 1.89902L13.827 4.34202C13.835 5.68602 13.827 6.79502 13.82 6.80702ZM16.375 2.33802C17.5132 3.24065 18.4043 4.4169 18.965 5.75702L19.105 6.07302L18.665 6.21702C17.7616 6.50214 16.832 6.69611 15.89 6.79602L15.561 6.83302V1.90202L15.776 1.99102C15.9842 2.09219 16.1847 2.2085 16.376 2.33902M10.007 2.89002C9.59627 3.4881 9.23475 4.1185 8.92597 4.77502L8.65997 5.33302L8.34197 5.15502C7.89718 4.90747 7.47431 4.62244 7.07797 4.30302C7.77341 3.74716 8.53982 3.28644 9.35697 2.93302C10.323 2.50002 10.295 2.50202 10.007 2.89102M20.045 2.93302C20.862 3.28667 21.6284 3.74737 22.324 4.30302C21.9276 4.62244 21.5048 4.90747 21.06 5.15502L20.742 5.33302L20.476 4.77502C20.165 4.11644 19.8008 3.48434 19.387 2.88502C19.113 2.51402 19.109 2.51302 20.042 2.93302M5.86597 5.67102C6.44304 6.09276 7.04405 6.48074 7.66597 6.83302C8.05497 7.03302 8.04797 6.96802 7.79397 7.89502C7.32258 9.72553 7.04472 11.6005 6.96497 13.489V13.819H4.38697C3.52738 13.8811 2.66375 13.8569 1.80897 13.747C2.06004 10.847 3.25427 8.109 5.20897 5.95202C5.67097 5.43602 5.60897 5.46402 5.86897 5.67202M24.198 5.95202C26.1527 8.109 27.3469 10.847 27.598 13.747C26.7472 13.8569 25.8876 13.8811 25.032 13.819H22.462L22.393 12.773C22.2934 11.1254 22.0304 9.4917 21.608 7.89602C21.354 6.96802 21.345 7.03102 21.746 6.82902C22.4128 6.44662 23.0557 6.02383 23.671 5.56302C23.735 5.46302 23.795 5.50302 24.196 5.95102M10.12 7.88702C11.2042 8.23182 12.3217 8.46175 13.454 8.57302L13.841 8.61002V13.816H8.72797L8.76697 13.116C8.84003 12.0248 8.97559 10.9387 9.17297 9.86302C9.28397 9.29002 9.66097 7.74202 9.68897 7.74202C9.68897 7.74202 9.88897 7.80702 10.121 7.88702M19.906 8.44402C20.2952 9.97469 20.5396 11.5386 20.636 13.115L20.675 13.815H15.561V8.61102L15.948 8.57402C17.0724 8.46488 18.182 8.23626 19.258 7.89202C19.479 7.81502 19.673 7.74902 19.69 7.74702C19.7814 7.97393 19.8536 8.20808 19.906 8.44702M7.00897 16.583C7.10858 18.2307 7.37153 19.8643 7.79397 21.46C8.04797 22.387 8.05597 22.325 7.66597 22.522C7.03844 22.877 6.43239 23.2687 5.85097 23.695L5.62697 23.872L5.31597 23.533C3.3015 21.3541 2.0673 18.5681 1.80697 15.612C2.65716 15.4998 3.51648 15.4734 4.37197 15.533H6.93897L7.00797 16.579M13.84 18.136V20.736L13.453 20.773C12.3207 20.8843 11.2032 21.1142 10.119 21.459C9.97697 21.5131 9.83126 21.5569 9.68297 21.59C9.19059 19.8407 8.88291 18.0445 8.76497 16.231L8.72597 15.531H13.84V18.131M20.634 16.231C20.516 18.0445 20.2083 19.8407 19.716 21.59C19.5677 21.5569 19.422 21.5131 19.28 21.459C18.1957 21.1142 17.0783 20.8843 15.946 20.773L15.559 20.736V15.533H20.673L20.634 16.233M27.594 15.603C27.3361 18.562 26.1025 21.3514 24.087 23.533L23.776 23.875L23.552 23.698C22.9705 23.2717 22.3645 22.88 21.737 22.525C21.348 22.325 21.355 22.39 21.609 21.463C22.0804 19.6325 22.3582 17.7576 22.438 15.869V15.533H25.017C25.8766 15.471 26.7402 15.4951 27.595 15.605M13.841 24.992V27.456L13.626 27.356C12.2937 26.5987 11.2465 25.4255 10.645 24.016L10.287 23.302L10.461 23.23C11.5151 22.8735 12.6065 22.6387 13.714 22.53L13.843 22.524V24.988M16.766 22.676C17.4103 22.778 18.0455 22.9305 18.666 23.132L19.107 23.276L18.907 23.71C18.2976 25.24 17.1946 26.5226 15.773 27.354L15.558 27.454V22.52L15.888 22.557C16.069 22.577 16.463 22.633 16.762 22.68M9.54197 25.74C9.74197 26.07 9.98197 26.44 10.077 26.563C10.249 26.782 10.249 26.784 10.112 26.742C9.02576 26.3255 8.00422 25.7568 7.07797 25.053C7.44321 24.7495 7.83667 24.4816 8.25297 24.253L8.65297 24.018L8.91597 24.58C9.06097 24.889 9.34197 25.412 9.53997 25.742M21.849 24.696C22.0187 24.7982 22.1772 24.9178 22.322 25.053C21.3964 25.7582 20.3747 26.3273 19.288 26.743C19.151 26.785 19.151 26.783 19.324 26.564C19.7739 25.9146 20.1709 25.2301 20.511 24.517L20.733 24.017L21.055 24.197C21.232 24.297 21.589 24.52 21.849 24.697" fill="white"/>
</svg>
