<svg width="22" height="13" viewBox="0 0 22 13" fill="none" xmlns="http://www.w3.org/2000/svg">
<path d="M10.7687 12.385C10.5707 12.3855 10.3746 12.3468 10.1916 12.2711C10.0087 12.1954 9.8425 12.0842 9.70271 11.944L0.443712 2.68401C0.160858 2.40115 0.00195312 2.01752 0.00195313 1.61751C0.00195313 1.21749 0.160858 0.833863 0.443712 0.55101C0.726565 0.268157 1.1102 0.109253 1.51021 0.109253C1.91023 0.109253 2.29386 0.268157 2.57671 0.55101L10.7697 8.74401L18.9627 0.55101C19.2466 0.273507 19.6286 0.119165 20.0256 0.121483C20.4226 0.123801 20.8027 0.282592 21.0833 0.563393C21.364 0.844193 21.5226 1.22435 21.5247 1.62136C21.5269 2.01837 21.3723 2.40021 21.0947 2.68401L11.8357 11.944C11.6958 12.0844 11.5295 12.1956 11.3463 12.2713C11.1632 12.347 10.9669 12.3856 10.7687 12.385Z" fill="#95AEC7"/>
</svg>
