<svg width="37" height="37" viewBox="0 0 37 37" fill="none" xmlns="http://www.w3.org/2000/svg">
<path d="M0 18.416C0 14.7816 1.07773 11.2288 3.09691 8.20689C5.1161 5.18497 7.98603 2.82967 11.3438 1.43884C14.7016 0.0480011 18.3964 -0.315905 21.961 0.393137C25.5256 1.10218 28.7999 2.85232 31.3698 5.42225C33.9397 7.99218 35.6899 11.2665 36.3989 14.8311C37.108 18.3957 36.744 22.0905 35.3532 25.4482C33.9624 28.806 31.6071 31.676 28.5852 33.6951C25.5632 35.7143 22.0104 36.792 18.376 36.792C13.5024 36.792 8.82837 34.856 5.38221 31.4098C1.93604 27.9637 0 23.2897 0 18.416H0ZM2.122 18.416C2.1222 21.6305 3.07556 24.7727 4.86154 27.4454C6.64752 30.118 9.1859 32.201 12.1557 33.4311C15.1255 34.6611 18.3934 34.9829 21.546 34.3557C24.6987 33.7285 27.5946 32.1806 29.8676 29.9077C32.1406 27.6347 33.6885 24.7388 34.3157 21.5861C34.9428 18.4334 34.621 15.1656 33.391 12.1958C32.161 9.22595 30.0779 6.68757 27.4053 4.90159C24.7327 3.11561 21.5905 2.16225 18.376 2.16205C16.2415 2.16192 14.1278 2.58225 12.1557 3.39904C10.1836 4.21584 8.39174 5.41309 6.88239 6.92244C5.37304 8.43179 4.17579 10.2237 3.35899 12.1958C2.5422 14.1678 2.12187 16.2815 2.122 18.416Z" fill="#252849"/>
<path d="M17.952 27.543C17.2411 27.5436 16.5496 27.3114 15.983 26.882C15.737 26.6845 15.5399 26.4331 15.4067 26.1471C15.2736 25.8612 15.208 25.5484 15.2151 25.233C15.2158 24.9674 15.2348 24.7021 15.2721 24.439C15.3101 24.173 15.3721 23.873 15.4561 23.524L16.4131 20.282C16.5071 19.936 16.5751 19.656 16.6281 19.401C16.683 19.15 16.7119 18.894 16.7141 18.637C16.7314 18.4823 16.7167 18.3257 16.6709 18.1769C16.6251 18.0281 16.5494 17.8903 16.4481 17.772C16.1954 17.6081 15.9004 17.5212 15.5991 17.522C15.5413 17.522 15.4835 17.5249 15.426 17.531C15.1689 17.5321 14.9132 17.5688 14.6661 17.64L14.5961 17.661C14.3751 17.728 14.1671 17.79 13.9961 17.852L14.2471 16.852C14.8661 16.613 15.4711 16.402 16.0471 16.224C16.5713 16.0559 17.1177 15.9672 17.6681 15.961C17.7341 15.961 17.8 15.955 17.868 15.955C18.5641 15.9545 19.2414 16.1809 19.7971 16.6C20.0394 16.8019 20.2324 17.0563 20.3617 17.3439C20.491 17.6315 20.553 17.9448 20.5431 18.26C20.5431 18.403 20.5261 18.654 20.4921 19.004C20.4624 19.3357 20.3983 19.6635 20.301 19.982L19.3501 23.214C19.2648 23.5058 19.1948 23.8019 19.1401 24.101C19.0884 24.3497 19.0576 24.6022 19.0481 24.856C19.028 25.0154 19.0446 25.1772 19.0966 25.3292C19.1486 25.4812 19.2345 25.6194 19.348 25.733C19.616 25.8914 19.9217 25.9746 20.233 25.974C20.284 25.974 20.3331 25.974 20.3881 25.967C20.6541 25.9603 20.9183 25.9196 21.1741 25.846C21.3908 25.7931 21.6033 25.7246 21.8101 25.641L21.5551 26.647C20.7891 26.937 20.1741 27.16 19.7261 27.309C19.2425 27.4603 18.7387 27.5371 18.2321 27.537H18.1401C18.0771 27.541 18.014 27.543 17.952 27.543ZM19.827 14.123H19.744C19.1658 14.1256 18.607 13.9144 18.175 13.53C17.9644 13.3543 17.7952 13.1342 17.6796 12.8854C17.5639 12.6366 17.5047 12.3654 17.5061 12.091C17.5045 11.8154 17.5636 11.5427 17.6792 11.2924C17.7948 11.0422 17.9641 10.8205 18.175 10.643C18.6059 10.2533 19.1671 10.0393 19.748 10.043H19.8241C20.402 10.0396 20.96 10.2537 21.3871 10.643C21.5948 10.8215 21.7617 11.0426 21.8766 11.2912C21.9915 11.5398 22.0517 11.8101 22.0531 12.084C22.0518 12.3579 21.9917 12.6283 21.8768 12.8769C21.7619 13.1256 21.5949 13.3466 21.3871 13.525V13.53C20.9596 13.914 20.4047 14.1253 19.8301 14.123H19.827Z" fill="#252849"/>
</svg>
