<svg width="30" height="31" viewBox="0 0 30 31" fill="none" xmlns="http://www.w3.org/2000/svg">
<path fill-rule="evenodd" clip-rule="evenodd" d="M14.004 0.245996C13.164 0.500996 0.813995 12.682 0.281995 13.78C0.0907075 14.1994 -0.00164237 14.6571 0.0120746 15.1178C0.0257915 15.5786 0.145207 16.03 0.361104 16.4372C0.577002 16.8445 0.883604 17.1966 1.25724 17.4666C1.63087 17.7365 2.06154 17.917 2.516 17.994L3.10699 18.083L3.14699 22.843C3.19199 28.243 3.184 28.201 4.347 29.195C5.234 29.954 5.85499 30.074 8.87899 30.074C11.511 30.074 11.516 30.074 11.921 29.733L12.326 29.392L12.365 25.47L12.404 21.548L12.728 21.204C13.047 20.865 13.081 20.86 14.928 20.864C17.689 20.87 17.543 20.609 17.543 25.518V29.259L17.865 29.634L18.187 30.009L20.876 30.05C24.018 30.098 24.692 29.972 25.583 29.169C26.726 28.138 26.756 27.977 26.757 22.714V18.089L27.303 18.002C27.7797 17.9463 28.2357 17.7754 28.6316 17.5041C29.0275 17.2328 29.3514 16.8692 29.5754 16.4448C29.7995 16.0203 29.9169 15.5478 29.9175 15.0678C29.9181 14.5879 29.8019 14.115 29.579 13.69C29.429 13.4 26.556 10.431 22.927 6.814C15.551 -0.537003 15.851 -0.316004 14.002 0.245996M21.452 8.538C25.365 12.45 27.696 14.877 27.696 15.038C27.696 15.56 27.312 15.784 26.415 15.784C24.454 15.784 24.49 15.664 24.49 22.063V27.149L24.137 27.477C23.795 27.794 23.72 27.805 21.812 27.805H19.838L19.788 24.499C19.733 20.86 19.698 20.678 18.863 19.727C18.028 18.776 17.379 18.592 15.072 18.591C12.172 18.591 11.341 18.942 10.532 20.522L10.132 21.308L10.086 24.557L10.04 27.806H8.18799C5.17399 27.806 5.39899 28.291 5.35599 21.684L5.322 16.43L4.947 16.108C4.627 15.833 4.43399 15.786 3.62199 15.786C2.58899 15.786 2.183 15.586 2.183 15.065C2.183 14.686 14.558 2.29699 14.937 2.29699C17.2141 4.26437 19.3887 6.34745 21.452 8.538Z" fill="#252849"/>
</svg>
