<svg width="67" height="40" viewBox="0 0 67 40" fill="none" xmlns="http://www.w3.org/2000/svg">
<path d="M59 0H8C3.58172 0 0 3.58172 0 8V32C0 36.4183 3.58172 40 8 40H59C63.4183 40 67 36.4183 67 32V8C67 3.58172 63.4183 0 59 0Z" fill="#F43149"/>
<path d="M17.623 28V13.7227H19.2832V26.4961H25.582V28H17.623ZM29.3906 28H27.7695V17.2969H29.3906V28ZM27.6328 14.3965C27.6328 14.0254 27.724 13.7552 27.9062 13.5859C28.0885 13.4102 28.3164 13.3223 28.5898 13.3223C28.8503 13.3223 29.0749 13.4102 29.2637 13.5859C29.4525 13.7617 29.5469 14.0319 29.5469 14.3965C29.5469 14.7611 29.4525 15.0345 29.2637 15.2168C29.0749 15.3926 28.8503 15.4805 28.5898 15.4805C28.3164 15.4805 28.0885 15.3926 27.9062 15.2168C27.724 15.0345 27.6328 14.7611 27.6328 14.3965ZM35.1719 28L31.1094 17.2969H32.8477L35.1523 23.6445C35.6732 25.1289 35.9792 26.0924 36.0703 26.5352H36.1484C36.2201 26.1901 36.4447 25.4772 36.8223 24.3965C37.2064 23.3092 38.0625 20.9427 39.3906 17.2969H41.1289L37.0664 28H35.1719ZM47.3691 28.1953C45.7871 28.1953 44.5371 27.7135 43.6191 26.75C42.7077 25.7865 42.252 24.4486 42.252 22.7363C42.252 21.0111 42.6751 19.6406 43.5215 18.625C44.3743 17.6094 45.5169 17.1016 46.9492 17.1016C48.2904 17.1016 49.3516 17.5443 50.1328 18.4297C50.9141 19.3086 51.3047 20.4707 51.3047 21.916V22.9414H43.9316C43.9642 24.1979 44.2799 25.1517 44.8789 25.8027C45.4844 26.4538 46.334 26.7793 47.4277 26.7793C48.5801 26.7793 49.7194 26.5384 50.8457 26.0566V27.502C50.2728 27.7493 49.7292 27.9251 49.2148 28.0293C48.707 28.14 48.0918 28.1953 47.3691 28.1953ZM46.9297 18.459C46.0703 18.459 45.3835 18.7389 44.8691 19.2988C44.3613 19.8587 44.0618 20.6335 43.9707 21.623H49.5664C49.5664 20.6009 49.3385 19.8197 48.8828 19.2793C48.4271 18.7324 47.776 18.459 46.9297 18.459Z" fill="white"/>
</svg>
