<svg width="99" height="100" viewBox="0 0 99 100" fill="none" xmlns="http://www.w3.org/2000/svg">
<path d="M49.3096 99.02C42.8326 99.0254 36.4186 97.7535 30.4336 95.2773C24.4486 92.8012 19.0106 89.1693 14.4307 84.5894C9.85075 80.0094 6.21835 74.5714 3.7422 68.5864C1.26606 62.6014 -0.00537511 56.187 1.70796e-05 49.71V49.3101C1.70796e-05 36.2322 5.19498 23.6898 14.4424 14.4424C23.6898 5.19496 36.2318 0 49.3096 0C62.3874 0 74.9303 5.19496 84.1777 14.4424C93.4252 23.6898 98.6201 36.2322 98.6201 49.3101V49.71C98.6254 56.187 97.3532 62.6014 94.877 68.5864C92.4007 74.5714 88.7685 80.0094 84.1885 84.5894C79.6085 89.1693 74.1706 92.8012 68.1856 95.2773C62.2005 97.7535 55.7857 99.0254 49.3086 99.02H49.3096ZM49.3096 4.00684C37.2915 4.02033 25.7696 8.80073 17.2715 17.2988C8.7734 25.7969 3.99301 37.3188 3.97951 49.3369V49.6909C3.95147 55.6615 5.10375 61.5789 7.36916 67.103C9.63456 72.6272 12.9688 77.6491 17.1807 81.8809C21.3926 86.1126 26.3997 89.4704 31.9131 91.7617C37.4265 94.053 43.338 95.2329 49.3086 95.2329C55.2792 95.2329 61.1907 94.053 66.7041 91.7617C72.2176 89.4704 77.2246 86.1126 81.4365 81.8809C85.6485 77.6491 88.9827 72.6272 91.2481 67.103C93.5135 61.5789 94.6648 55.6615 94.6367 49.6909V49.3369C94.6238 37.3196 89.8446 25.798 81.3477 17.2998C72.8508 8.8016 61.3298 4.02068 49.3125 4.00586L49.3096 4.00684Z" fill="url(#paint0_linear_6_1194)"/>
<defs>
<linearGradient id="paint0_linear_6_1194" x1="-9.23915e-07" y1="17.4275" x2="49.6023" y2="98.842" gradientUnits="userSpaceOnUse">
<stop stop-color="#E60E0E"/>
<stop offset="1" stop-color="#F97777"/>
</linearGradient>
</defs>
</svg>
