<svg width="167" height="29" viewBox="0 0 167 29" fill="none" xmlns="http://www.w3.org/2000/svg">
<path d="M42.226 18.409C39.2967 20.5687 35.7976 21.8206 32.163 22.009L30.524 22.096L32.059 22.678C33.1713 23.1012 34.321 23.4182 35.493 23.625C34.3186 24.1013 33.0404 24.2635 31.7843 24.0955C30.5281 23.9275 29.3374 23.4352 28.3295 22.667C27.3215 21.8988 26.531 20.8813 26.0359 19.7147C25.5408 18.5481 25.3582 17.2727 25.506 16.014C25.548 15.771 25.589 15.528 25.631 15.285C25.9744 13.7537 26.8016 12.3737 27.9903 11.3491C29.1789 10.3245 30.6658 9.70979 32.231 9.59597C31.9915 10.0067 31.8489 10.4668 31.814 10.941C31.7727 11.7785 32.0508 12.6005 32.592 13.241C32.649 12.934 33.092 10.686 34.708 10.158C34.905 10.0936 35.1099 10.0569 35.317 10.049C36.3185 10.4301 37.2244 11.0257 37.9712 11.7942C38.718 12.5626 39.2876 13.4851 39.64 14.497C38.886 15.106 36.765 16.289 32.85 14.744L32.642 14.66C32.59 14.637 32.51 14.602 32.411 14.56C31.692 14.269 28.896 13.136 27.155 14.387C26.6602 14.7575 26.285 15.2652 26.076 15.847C26.7571 15.6792 27.4579 15.6048 28.159 15.626C29.2097 15.6797 30.2377 15.9522 31.177 16.426C31.463 16.549 31.76 16.676 32.077 16.801C36.048 18.33 39.493 17.659 40.54 17.094C41.226 16.7463 41.8304 16.2568 42.313 15.658C42.3886 15.5577 42.4574 15.4524 42.519 15.343C42.6479 15.1306 42.6932 14.8779 42.646 14.634C42.3281 13.2015 41.6837 11.8616 40.763 10.719C39.0709 8.6958 36.7366 7.31373 34.149 6.803L34.105 6.79299C33.305 6.19299 30.56 4.26001 28.364 4.53701L27.989 4.587L28.069 4.95596C28.1673 6.0738 27.9089 7.19405 27.331 8.15597C27.2886 8.23969 27.2365 8.31822 27.176 8.38998C25.0386 9.69192 23.4511 11.7306 22.7126 14.1218C21.974 16.513 22.1354 19.0918 23.1663 21.3723C24.1972 23.6528 26.0264 25.4776 28.3094 26.503C30.5924 27.5283 33.1716 27.6834 35.561 26.939C37.2581 26.3928 38.7897 25.427 40.014 24.131C41.4217 22.6383 42.3755 20.7757 42.764 18.761L42.934 17.889L42.22 18.415L42.226 18.409Z" fill="#0E2760"/>
<path d="M36.225 14.266C36.3478 14.2654 36.4699 14.2462 36.587 14.2089C36.8713 14.1175 37.1106 13.9221 37.2571 13.6619C37.4037 13.4017 37.4467 13.0958 37.3775 12.8053C37.3083 12.5147 37.1321 12.261 36.884 12.0947C36.636 11.9285 36.3343 11.862 36.0392 11.9084C35.7442 11.9549 35.4776 12.1108 35.2927 12.3453C35.1077 12.5797 35.0179 12.8754 35.0414 13.1731C35.0648 13.4708 35.1998 13.7487 35.4192 13.9513C35.6386 14.1539 35.9263 14.2663 36.225 14.266Z" fill="#0E2760"/>
<path d="M65.232 18.409C62.3027 20.5688 58.8036 21.8206 55.169 22.009L53.53 22.096L55.065 22.678C56.1773 23.1012 57.3271 23.4182 58.499 23.625C57.3246 24.1016 56.0463 24.264 54.79 24.0962C53.5338 23.9283 52.343 23.436 51.3349 22.6677C50.3268 21.8995 49.5363 20.8819 49.0413 19.7151C48.5463 18.5483 48.3639 17.2727 48.512 16.014C48.554 15.771 48.595 15.528 48.637 15.285C48.9804 13.7537 49.8076 12.3737 50.9963 11.3491C52.1849 10.3245 53.6718 9.70979 55.237 9.59597C54.9973 10.0067 54.8547 10.4667 54.82 10.941C54.7787 11.7785 55.0568 12.6005 55.598 13.241C55.655 12.934 56.0981 10.686 57.7141 10.158C57.911 10.0936 58.1159 10.0569 58.323 10.049C59.3245 10.4299 60.2304 11.0255 60.9771 11.7939C61.7237 12.5623 62.293 13.485 62.645 14.497C61.891 15.106 59.77 16.289 55.855 14.744L55.647 14.66C55.595 14.637 55.515 14.602 55.416 14.56C54.697 14.269 51.901 13.136 50.16 14.387C49.6651 14.7575 49.2899 15.2652 49.081 15.847C49.7621 15.6791 50.4629 15.6048 51.164 15.626C52.2147 15.6797 53.2427 15.9522 54.182 16.426C54.468 16.549 54.765 16.676 55.082 16.801C59.053 18.33 62.498 17.659 63.545 17.094C64.2311 16.7463 64.8354 16.2569 65.318 15.658C65.3937 15.5577 65.4625 15.4525 65.5241 15.343C65.653 15.1306 65.6982 14.8779 65.651 14.634C65.333 13.2015 64.6886 11.8616 63.768 10.719C62.0759 8.6958 59.7416 7.31373 57.1541 6.803L57.1101 6.79299C56.3101 6.19299 53.565 4.26001 51.369 4.53701L50.994 4.587L51.074 4.95596C51.1723 6.0738 50.9139 7.19405 50.336 8.15597C50.2935 8.23969 50.2416 8.31822 50.181 8.38998C48.0441 9.69203 46.4569 11.7305 45.7185 14.1215C44.9801 16.5125 45.1415 19.091 46.1721 21.3712C47.2028 23.6515 49.0317 25.4762 51.3143 26.5017C53.5969 27.5272 56.1757 27.6828 58.565 26.939C60.2621 26.3928 61.7938 25.427 63.018 24.131C64.4258 22.6383 65.3797 20.7758 65.768 18.761L65.9381 17.889L65.224 18.415L65.232 18.409Z" fill="#F43149"/>
<path d="M59.231 14.335C59.3539 14.3344 59.476 14.3152 59.593 14.278C59.8779 14.1864 60.1176 13.9907 60.2645 13.7301C60.4113 13.4695 60.4544 13.163 60.3852 12.8719C60.3159 12.5809 60.1394 12.3267 59.8909 12.1602C59.6424 11.9936 59.3402 11.9269 59.0446 11.9734C58.7491 12.02 58.482 12.1763 58.2967 12.4112C58.1114 12.6461 58.0216 12.9422 58.0451 13.2404C58.0687 13.5387 58.2039 13.817 58.4237 14.02C58.6436 14.2229 58.9319 14.3354 59.231 14.335Z" fill="#0E2760"/>
<path d="M0 27.3329V1.65697H10.014C11.9868 1.60316 13.9487 1.96567 15.772 2.72094C17.2757 3.35732 18.5536 4.43068 19.44 5.80193C20.3219 7.24463 20.7678 8.91157 20.724 10.6019C20.7709 12.2888 20.3247 13.9528 19.44 15.3899C18.5484 16.7521 17.2715 17.818 15.772 18.452C13.9483 19.2058 11.9866 19.5679 10.014 19.5149H2.01401L3.66501 17.8279V27.3279L0 27.3329ZM3.668 18.2009L2.017 16.4009H9.90399C11.8067 16.5366 13.6964 15.9974 15.241 14.8779C15.8499 14.3517 16.3301 13.693 16.6448 12.9523C16.9594 12.2115 17.1001 11.4085 17.056 10.605C17.1012 9.80405 16.9609 9.00352 16.6461 8.26567C16.3313 7.52783 15.8504 6.87256 15.241 6.35094C13.6905 5.24566 11.8033 4.71525 9.90399 4.85094H2.017L3.668 3.01696V18.2009ZM17.168 27.3329L10.64 18.0159H14.564L21.164 27.3329H17.168Z" fill="#0E2760"/>
<path d="M71.626 0.185974H68.104V27.401H71.626V0.185974Z" fill="#0E2760"/>
<path d="M102.383 19.57C102.403 20.7276 102.145 21.873 101.63 22.91C101.142 23.8746 100.434 24.7106 99.562 25.35C98.5618 26.1045 97.4243 26.6571 96.213 26.977C94.6966 27.3333 93.1413 27.4962 91.584 27.462H80.334V1.68998H90.334C91.8568 1.66154 93.38 1.73065 94.894 1.89695C95.8918 2.04619 96.859 2.35585 97.7579 2.81395C98.6709 3.24757 99.4335 3.94401 99.9479 4.81395C100.461 5.77013 100.707 6.84702 100.66 7.93126C100.613 9.01549 100.274 10.067 99.6799 10.975C98.9784 11.9631 98.013 12.7338 96.894 13.199V13.337C98.4161 13.5861 99.8195 14.3132 100.901 15.4129C101.92 16.5499 102.452 18.0418 102.381 19.567L102.383 19.57ZM93.868 8.97697C93.8637 8.53073 93.754 8.09181 93.548 7.69597C93.3059 7.24544 92.9005 6.9048 92.415 6.744C91.8333 6.5439 91.2221 6.44245 90.6069 6.44395C89.8856 6.42728 88.873 6.41862 87.569 6.41795H86.946V11.869H87.9839C89.0333 11.869 89.9273 11.8517 90.666 11.817C91.2651 11.8116 91.8579 11.6943 92.4139 11.471C92.9222 11.2885 93.3426 10.9205 93.5909 10.441C93.7837 9.97778 93.8781 9.47955 93.868 8.97795V8.97697ZM95.478 19.4649C95.5202 18.7977 95.3542 18.1338 95.0029 17.565C94.5929 17.059 94.0237 16.7065 93.3879 16.565C92.6872 16.3932 91.9674 16.3118 91.246 16.323C90.3366 16.3116 89.3866 16.306 88.3959 16.306H86.9449V22.74H87.428C89.2946 22.74 90.6303 22.7343 91.4349 22.7229C92.1997 22.7197 92.9566 22.5672 93.663 22.274C94.2564 22.0659 94.7597 21.6594 95.088 21.123C95.3546 20.6135 95.4885 20.0449 95.477 19.47L95.478 19.4649Z" fill="#0E2760"/>
<path d="M124.054 27.462H117.805V25.315C116.821 26.0868 115.761 26.7569 114.642 27.315C113.566 27.7957 112.397 28.0294 111.219 27.999C110.31 28.057 109.398 27.922 108.545 27.6029C107.691 27.2837 106.915 26.7875 106.267 26.147C105.007 24.6147 104.384 22.6558 104.53 20.677V8.024H110.779V17.665C110.779 18.6457 110.812 19.462 110.879 20.114C110.917 20.6773 111.068 21.2273 111.321 21.7319C111.532 22.1508 111.885 22.4816 112.316 22.666C112.91 22.8876 113.543 22.9876 114.176 22.96C114.776 22.9494 115.37 22.8503 115.941 22.666C116.6 22.4638 117.229 22.1728 117.81 21.801V8.024H124.059V27.46L124.054 27.462Z" fill="#0E2760"/>
<path d="M146.746 27.462H140.497V25.436C139.584 26.2117 138.573 26.8634 137.489 27.374C136.467 27.8068 135.366 28.0191 134.257 27.997C133.162 28.0303 132.075 27.7993 131.088 27.3234C130.101 26.8475 129.243 26.1407 128.587 25.263C127.07 23.1142 126.321 20.5168 126.461 17.89C126.435 16.3964 126.678 14.9103 127.179 13.503C127.617 12.2942 128.283 11.1807 129.141 10.223C129.934 9.35159 130.907 8.66361 131.993 8.207C133.05 7.74108 134.192 7.4967 135.347 7.48898C136.314 7.46513 137.279 7.59062 138.208 7.86099C138.991 8.1255 139.756 8.44049 140.499 8.80399V0.531952H146.748L146.746 27.462ZM140.497 22.112V12.561C140.054 12.3743 139.59 12.2401 139.116 12.161C138.677 12.0844 138.232 12.044 137.786 12.04C137.095 11.9903 136.403 12.1031 135.764 12.3695C135.125 12.6359 134.557 13.0485 134.107 13.574C133.224 14.8107 132.791 16.3129 132.881 17.83C132.763 19.2831 133.108 20.7362 133.865 21.982C134.25 22.4341 134.738 22.7873 135.288 23.0121C135.838 23.2369 136.434 23.3267 137.026 23.274C137.639 23.2663 138.247 23.1583 138.826 22.954C139.423 22.7582 139.987 22.4748 140.501 22.113L140.497 22.112Z" fill="#0E2760"/>
<path d="M166.805 21.301C166.813 22.2746 166.568 23.2335 166.095 24.0844C165.622 24.9353 164.936 25.649 164.105 26.156C161.882 27.4972 159.307 28.1394 156.715 27.999C155.132 28.0144 153.553 27.8517 152.007 27.5139C150.843 27.2701 149.707 26.9107 148.615 26.4409V21.3179H149.185C149.496 21.5373 149.857 21.7766 150.267 22.036C150.821 22.3658 151.403 22.6466 152.006 22.875C152.72 23.1618 153.456 23.3905 154.206 23.559C155.069 23.754 155.952 23.8496 156.837 23.844C157.761 23.8933 158.685 23.7552 159.554 23.4379C159.807 23.3533 160.027 23.1926 160.186 22.9778C160.344 22.763 160.431 22.5046 160.437 22.2379C160.452 22.0352 160.412 21.8322 160.32 21.6508C160.228 21.4693 160.089 21.3162 159.917 21.208C159.295 20.9034 158.629 20.696 157.944 20.593C157.482 20.489 156.856 20.3766 156.065 20.2559C155.339 20.148 154.62 20.0005 153.911 19.814C152.415 19.5051 151.047 18.7548 149.982 17.6599C149.115 16.6481 148.658 15.348 148.701 14.0159C148.711 13.0768 148.961 12.1558 149.425 11.3398C149.89 10.5238 150.555 9.83965 151.358 9.35195C153.53 8.00218 156.065 7.35287 158.619 7.49196C160.024 7.48694 161.426 7.63517 162.799 7.93398C163.868 8.14714 164.914 8.46293 165.923 8.87697V13.7919H165.386C164.41 13.1311 163.347 12.6097 162.227 12.2429C161.071 11.8486 159.858 11.646 158.636 11.643C157.772 11.6189 156.911 11.7597 156.1 12.0579C155.414 12.3353 155.071 12.7276 155.07 13.2349C155.058 13.4354 155.094 13.6358 155.176 13.8194C155.257 14.003 155.381 14.1643 155.538 14.2899C156.221 14.6651 156.966 14.9116 157.738 15.017C158.373 15.1437 159.057 15.268 159.789 15.39C160.521 15.512 161.257 15.6646 161.996 15.848C163.385 16.1329 164.653 16.8368 165.63 17.8649C166.431 18.8266 166.85 20.0492 166.808 21.2999L166.805 21.301Z" fill="#0E2760"/>
</svg>
