<svg width="88" height="65" viewBox="0 0 88 65" fill="none" xmlns="http://www.w3.org/2000/svg">
<path d="M84.826 43.14C84.6255 43.5202 84.2902 43.8119 83.886 43.958C83.619 44.0671 83.3455 44.1596 83.067 44.235C81.2538 44.652 79.3726 44.6793 77.548 44.315C75.076 43.895 67.056 40.167 61.337 30.624C59.373 27.349 58.426 24.61 54.99 21.74C53.5287 20.5249 51.908 19.5155 50.173 18.74C51.5294 18.379 52.9489 18.3217 54.33 18.572C59.261 19.51 62.237 24.205 64.022 27.472C70.441 39.233 78.116 39.509 80.332 39.317C81.4075 36.4703 81.8143 33.4144 81.5209 30.3854C81.2275 27.3565 80.2418 24.4355 78.64 21.848C78.0996 21.4121 77.4861 21.0755 76.828 20.854C71.664 19.135 66.779 25.062 66.678 25.183C67.1002 23.2602 68.015 21.4802 69.3326 20.0175C70.6503 18.5549 72.3255 17.4599 74.194 16.84C74.131 16.788 74.065 16.74 73.999 16.686C70.3153 13.8091 65.7332 12.3268 61.0624 12.5012C56.3917 12.6755 51.9329 14.4954 48.474 17.639C47.2803 15.8804 45.8799 14.2712 44.303 12.846C47.0078 10.5645 50.1541 8.8655 53.5453 7.85498C56.9364 6.84446 60.4996 6.54421 64.012 6.97302C64.3714 6.91122 64.7208 6.80159 65.051 6.64703C70.612 4.05903 72.1 0.859009 72.1 0.859009C77.1 3.84001 79.571 13.068 79.928 14.491L80.012 14.542L80.07 14.524C90.855 27.913 86.545 39.635 84.824 43.144" fill="#F43149"/>
<path d="M76.006 31.942C75.6114 32.1233 75.1719 32.1835 74.7431 32.115C74.3144 32.0465 73.9156 31.8523 73.5971 31.5571C73.2787 31.2618 73.055 30.8788 72.9543 30.4564C72.8536 30.034 72.8806 29.5913 73.0316 29.1841C73.1826 28.777 73.4509 28.4239 73.8027 28.1693C74.1545 27.9147 74.5739 27.7702 75.0078 27.754C75.4417 27.7378 75.8707 27.8508 76.2405 28.0784C76.6102 28.3061 76.904 28.6383 77.0849 29.033C77.3276 29.5619 77.3503 30.1655 77.1479 30.711C76.9456 31.2565 76.5348 31.6993 76.006 31.942" fill="#0E2760"/>
<path d="M78.696 51.48C74.8082 54.8593 70.0438 57.0698 64.953 57.856C60.5322 58.5233 56.0147 58.0679 51.816 56.532C49.3873 55.6142 47.112 54.3329 45.068 52.732C44.894 52.596 44.7239 52.459 44.5539 52.32C44.2619 52.078 43.974 51.832 43.695 51.581C42.1077 50.1571 40.7048 48.5402 39.519 46.768C39.1676 46.2453 38.8383 45.712 38.531 45.168C36.3309 41.2853 35.1787 36.8971 35.1874 32.4344C35.1962 27.9717 36.3657 23.588 38.581 19.714C40.4828 21.6164 41.948 23.9098 42.875 26.435C41.629 30.4763 41.7047 34.8097 43.091 38.805C43.2743 39.3383 43.481 39.8614 43.711 40.374C44.7268 42.6564 46.1681 44.7242 47.958 46.467C48.2247 46.7303 48.5043 46.9877 48.797 47.239C49.059 47.467 49.3293 47.69 49.608 47.908C52.4034 50.0999 55.7395 51.4951 59.263 51.946C56.4247 49.1523 53.9465 46.015 51.886 42.607C59.7609 48.1263 69.0832 51.2116 78.696 51.48Z" fill="#F43149"/>
<path d="M38.698 47.562C39.8892 49.3089 41.2832 50.9083 42.851 52.327C37.6661 56.6996 30.965 58.8493 24.204 58.309C23.8474 58.3851 23.5026 58.509 23.179 58.677C17.73 61.495 16.379 64.754 16.379 64.754C11.264 61.983 8.40699 52.867 7.99199 51.454L7.90599 51.407L7.84801 51.427C-3.48599 38.499 0.334996 26.608 1.907 23.027C2.09199 22.6389 2.41503 22.3337 2.813 22.171C3.07514 22.0506 3.34469 21.947 3.62001 21.861C5.41366 21.3687 7.29136 21.2627 9.12901 21.55C11.616 21.867 19.786 25.258 25.896 34.55C27.996 37.742 29.055 40.438 32.607 43.161C34.1178 44.3148 35.7792 45.2569 37.545 45.961C36.2048 46.3774 34.7893 46.4941 33.399 46.303C28.433 45.569 25.264 41.003 23.345 37.811C16.445 26.328 8.76201 26.37 6.55501 26.655C5.59929 29.5442 5.32026 32.6144 5.73952 35.6286C6.15877 38.6428 7.26508 41.5203 8.97301 44.039C9.5309 44.452 10.1576 44.7628 10.824 44.957C16.056 46.457 20.691 40.334 20.786 40.21C20.4439 42.1486 19.6037 43.9651 18.348 45.4811C17.0923 46.9972 15.464 48.1608 13.623 48.858L13.823 49.003C17.5101 51.6433 21.9913 52.9391 26.5185 52.6741C31.0457 52.4091 35.3451 50.5994 38.699 47.547" fill="#0E2760"/>
<path d="M48.558 45.475C46.6657 43.5769 45.2075 41.291 44.284 38.775C45.5317 34.7347 45.4564 30.4015 44.069 26.407C43.8844 25.8737 43.6773 25.3503 43.448 24.837C42.4287 22.5454 40.9804 20.4701 39.181 18.723C38.911 18.46 38.631 18.202 38.342 17.952C37.8806 17.552 37.3977 17.171 36.893 16.809C34.0086 14.7363 30.6178 13.4814 27.079 13.177C30.0304 15.8501 32.6365 18.8812 34.837 22.2C26.7404 17.0108 17.2978 14.3145 7.68201 14.446C11.4254 10.9068 16.0939 8.4994 21.148 7.50202C25.5369 6.65212 30.069 6.91857 34.328 8.27698C36.7924 9.09374 39.1188 10.2792 41.228 11.793C41.702 12.133 42.162 12.484 42.605 12.85C42.8963 13.0886 43.181 13.3336 43.459 13.585C45.0549 15.0154 46.4634 16.642 47.651 18.426C47.8657 18.746 48.0723 19.071 48.271 19.401C50.6379 23.3261 51.9126 27.8126 51.9633 32.3958C52.0139 36.9791 50.8386 41.4925 48.559 45.469" fill="#0E2760"/>
<path d="M13.179 37.7639C12.7915 37.9627 12.3537 38.0419 11.9211 37.9916C11.4885 37.9413 11.0805 37.7638 10.7489 37.4815C10.4173 37.1991 10.1769 36.8247 10.0583 36.4057C9.93966 35.9866 9.94807 35.5417 10.0825 35.1275C10.2169 34.7132 10.4712 34.3481 10.8132 34.0785C11.1553 33.8089 11.5696 33.647 12.0039 33.6131C12.4381 33.5792 12.8726 33.6748 13.2523 33.8881C13.6321 34.1013 13.94 34.4225 14.137 34.8109C14.2681 35.0677 14.3472 35.3479 14.3699 35.6353C14.3927 35.9227 14.3586 36.2116 14.2697 36.4859C14.1807 36.7601 14.0386 37.0141 13.8514 37.2334C13.6643 37.4527 13.4358 37.633 13.179 37.7639" fill="#0E2760"/>
</svg>
