<svg width="32" height="32" viewBox="0 0 32 32" fill="none" xmlns="http://www.w3.org/2000/svg">
<path d="M15.8351 0C13.0592 0.000723226 10.3322 0.731008 7.9275 2.11767C5.52277 3.50433 3.52473 5.49866 2.1336 7.90081C0.742465 10.303 0.00711018 13.0285 0.00122472 15.8044C-0.00466074 18.5803 0.719129 21.309 2.10006 23.717L0.0590627 30.054C-0.0101973 30.2706 -0.018462 30.5021 0.0351752 30.7231C0.0888124 30.9441 0.202279 31.146 0.363127 31.3067C0.523975 31.4675 0.72599 31.5808 0.947009 31.6343C1.16803 31.6878 1.39951 31.6794 1.61606 31.61L7.95206 29.569C10.0571 30.7771 12.4118 31.4851 14.834 31.6384C17.2563 31.7917 19.6814 31.3861 21.922 30.4529C24.1625 29.5198 26.1586 28.0841 27.756 26.2567C29.3534 24.4294 30.5093 22.2593 31.1346 19.9141C31.7598 17.5689 31.8375 15.1113 31.3618 12.7313C30.8861 10.3513 29.8696 8.11245 28.391 6.18777C26.9123 4.26309 25.011 2.70408 22.8339 1.63117C20.6568 0.558262 18.2622 0.000167433 15.8351 0V0ZM15.8351 29.2C13.3344 29.2021 10.8836 28.5004 8.76306 27.175C8.61012 27.0795 8.43816 27.0186 8.25921 26.9965C8.08027 26.9744 7.89865 26.9916 7.72706 27.047L3.15206 28.516L4.62506 23.943C4.6809 23.7716 4.69864 23.5901 4.67705 23.4112C4.65546 23.2322 4.59506 23.0602 4.50006 22.907C2.93382 20.3944 2.24649 17.4328 2.54603 14.4873C2.84557 11.5417 4.11501 8.77907 6.15497 6.63324C8.19494 4.48741 10.8899 3.07994 13.8165 2.63188C16.7432 2.18382 19.7358 2.72055 22.3243 4.15778C24.9128 5.59501 26.9506 7.85132 28.1177 10.5723C29.2847 13.2934 29.515 16.325 28.7722 19.191C28.0294 22.0571 26.3556 24.5952 24.0138 26.4069C21.672 28.2185 18.7948 29.201 15.8341 29.2H15.8351ZM17.3811 15.839C17.3811 16.1448 17.2904 16.4437 17.1205 16.6979C16.9506 16.9522 16.7092 17.1503 16.4267 17.2673C16.1442 17.3843 15.8333 17.4149 15.5335 17.3553C15.2336 17.2956 14.9581 17.1484 14.7419 16.9322C14.5257 16.716 14.3784 16.4405 14.3188 16.1406C14.2591 15.8407 14.2897 15.5299 14.4067 15.2474C14.5238 14.9649 14.7219 14.7234 14.9762 14.5535C15.2304 14.3837 15.5293 14.293 15.8351 14.293C16.2451 14.293 16.6383 14.4559 16.9282 14.7458C17.2182 15.0357 17.3811 15.429 17.3811 15.839ZM23.5691 15.839C23.5691 16.1448 23.4784 16.4437 23.3085 16.6979C23.1386 16.9522 22.8972 17.1503 22.6147 17.2673C22.3322 17.3843 22.0213 17.4149 21.7215 17.3553C21.4216 17.2956 21.1461 17.1484 20.9299 16.9322C20.7137 16.716 20.5664 16.4405 20.5068 16.1406C20.4471 15.8407 20.4777 15.5299 20.5947 15.2474C20.7118 14.9649 20.9099 14.7234 21.1642 14.5535C21.4184 14.3837 21.7173 14.293 22.0231 14.293C22.4331 14.293 22.8263 14.4559 23.1162 14.7458C23.4062 15.0357 23.5691 15.429 23.5691 15.839ZM11.1931 15.839C11.1931 16.1448 11.1024 16.4437 10.9325 16.6979C10.7626 16.9522 10.5212 17.1503 10.2387 17.2673C9.9562 17.3843 9.64535 17.4149 9.34545 17.3553C9.04556 17.2956 8.77009 17.1484 8.55388 16.9322C8.33766 16.716 8.19042 16.4405 8.13077 16.1406C8.07112 15.8407 8.10173 15.5299 8.21875 15.2474C8.33576 14.9649 8.53391 14.7234 8.78815 14.5535C9.04239 14.3837 9.34129 14.293 9.64706 14.293C10.0571 14.293 10.4503 14.4559 10.7402 14.7458C11.0302 15.0357 11.1931 15.429 11.1931 15.839Z" fill="#AFBFCF"/>
</svg>
