<svg width="38" height="38" viewBox="0 0 38 38" fill="none" xmlns="http://www.w3.org/2000/svg">
<path d="M18.5102 37.253C15.2779 37.2534 12.1019 36.4073 9.29819 34.799L1.8982 37.179C1.64598 37.2593 1.37652 37.2688 1.11926 37.2064C0.86201 37.144 0.626865 37.0121 0.439527 36.825C0.25219 36.638 0.119868 36.4031 0.057025 36.1459C-0.00581822 35.8888 0.003235 35.6193 0.0831952 35.367L2.4612 27.967C0.431951 24.436 -0.375992 20.3342 0.162574 16.2974C0.701141 12.2606 2.55614 8.51416 5.44011 5.63865C8.32407 2.76313 12.076 0.919129 16.1143 0.39241C20.1527 -0.134309 24.252 0.685667 27.7771 2.72526C31.3021 4.76486 34.056 7.91019 35.612 11.6738C37.1679 15.4374 37.4391 19.6092 36.3834 23.5425C35.3277 27.4759 33.0042 30.9513 29.7728 33.43C26.5415 35.9088 22.5828 37.2525 18.5102 37.253ZM25.7382 16.953C25.3808 16.9532 25.0315 17.0594 24.7345 17.2582C24.4375 17.4571 24.2062 17.7396 24.0698 18.0699C23.9335 18.4003 23.8982 18.7637 23.9685 19.1141C24.0388 19.4645 24.2114 19.7862 24.4647 20.0385C24.7179 20.2907 25.0402 20.4621 25.3909 20.5311C25.7416 20.6 26.1049 20.5633 26.4347 20.4257C26.7646 20.288 27.0461 20.0556 27.2438 19.7578C27.4415 19.4601 27.5464 19.1104 27.5452 18.753C27.5436 18.275 27.3526 17.8172 27.0141 17.4798C26.6756 17.1424 26.2171 16.953 25.7392 16.953H25.7382ZM18.5122 16.953C18.1548 16.9534 17.8056 17.0598 17.5088 17.2587C17.2119 17.4577 16.9807 17.7402 16.8445 18.0706C16.7083 18.401 16.6732 18.7644 16.7436 19.1147C16.814 19.4651 16.9868 19.7867 17.24 20.0388C17.4933 20.291 17.8156 20.4623 18.1663 20.5311C18.517 20.6 18.8802 20.5632 19.2099 20.4256C19.5397 20.2879 19.8213 20.0555 20.0189 19.7577C20.2165 19.46 20.3214 19.1103 20.3202 18.753C20.3186 18.2743 20.1271 17.8159 19.7877 17.4784C19.4483 17.1409 18.9888 16.9519 18.5102 16.953H18.5122ZM11.2862 16.953C10.9288 16.9534 10.5796 17.0598 10.2828 17.2587C9.9859 17.4577 9.75474 17.7402 9.61853 18.0706C9.48232 18.401 9.4472 18.7644 9.51759 19.1147C9.58799 19.4651 9.76075 19.7867 10.014 20.0388C10.2673 20.291 10.5896 20.4623 10.9403 20.5311C11.291 20.6 11.6542 20.5632 11.9839 20.4256C12.3137 20.2879 12.5953 20.0555 12.7929 19.7577C12.9905 19.46 13.0954 19.1103 13.0942 18.753C13.0926 18.2749 12.9015 17.8169 12.5628 17.4795C12.224 17.142 11.7653 16.9527 11.2872 16.953H11.2862Z" fill="#6080A0"/>
</svg>
