<svg width="51" height="51" viewBox="0 0 51 51" fill="none" xmlns="http://www.w3.org/2000/svg">
<g opacity="0.2">
<path d="M25.5 50.5C39.3071 50.5 50.5 39.3071 50.5 25.5C50.5 11.6929 39.3071 0.5 25.5 0.5C11.6929 0.5 0.5 11.6929 0.5 25.5C0.5 39.3071 11.6929 50.5 25.5 50.5Z" stroke="#252849"/>
</g>
<path d="M27.6661 25.459L21.2731 19.065C21.0984 18.8894 21.0002 18.6517 21.0002 18.404C21.0002 18.1562 21.0984 17.9186 21.2731 17.743L21.8331 17.183C22.0086 17.008 22.2463 16.9097 22.4941 16.9097C22.742 16.9097 22.9797 17.008 23.1551 17.183L30.7671 24.795C30.942 24.9716 31.04 25.21 31.04 25.4585C31.04 25.707 30.942 25.9454 30.7671 26.122L23.1621 33.722C22.9865 33.8968 22.7489 33.9949 22.5011 33.9949C22.2534 33.9949 22.0157 33.8968 21.8401 33.722L21.2801 33.162C21.1051 32.9865 21.0068 32.7488 21.0068 32.501C21.0068 32.2532 21.1051 32.0155 21.2801 31.84L27.6661 25.459Z" fill="#1C286A"/>
</svg>
