<svg width="7" height="29" viewBox="0 0 7 29" fill="none" xmlns="http://www.w3.org/2000/svg">
<g opacity="0.5">
<path d="M3.5 7C5.433 7 7 5.433 7 3.5C7 1.567 5.433 0 3.5 0C1.567 0 0 1.567 0 3.5C0 5.433 1.567 7 3.5 7Z" fill="#6080A0"/>
<path d="M3.5 18C5.433 18 7 16.433 7 14.5C7 12.567 5.433 11 3.5 11C1.567 11 0 12.567 0 14.5C0 16.433 1.567 18 3.5 18Z" fill="#6080A0"/>
<path d="M3.5 29C5.433 29 7 27.433 7 25.5C7 23.567 5.433 22 3.5 22C1.567 22 0 23.567 0 25.5C0 27.433 1.567 29 3.5 29Z" fill="#6080A0"/>
</g>
</svg>
