<svg width="81" height="82" viewBox="0 0 81 82" fill="none" xmlns="http://www.w3.org/2000/svg">
<path opacity="0.3" d="M40.533 81.032C31.1823 81.0258 22.1211 77.7877 14.8845 71.866C7.64777 65.9444 2.68043 57.7033 0.823844 48.5388C-1.03274 39.3743 0.335586 29.8497 4.69703 21.5785C9.05848 13.3073 16.1449 6.79789 24.756 3.15298C34.6525 -0.984452 45.7853 -1.03139 55.7163 3.02244C65.6474 7.07627 73.5672 14.9005 77.7414 24.7815C81.9156 34.6626 82.0039 45.7951 77.987 55.7412C73.9701 65.6872 66.1754 73.6361 56.31 77.847C51.3188 79.9593 45.9527 81.0426 40.533 81.032ZM40.533 3.51398C33.2178 3.51378 26.0669 5.68278 19.9845 9.74669C13.902 13.8106 9.16129 19.5869 6.36173 26.3451C3.56216 33.1034 2.82951 40.54 4.25643 47.7146C5.68335 54.8892 9.20575 61.4796 14.3782 66.6523C19.5506 71.825 26.1408 75.3478 33.3154 76.7751C40.4899 78.2024 47.9266 77.4702 54.685 74.671C61.4433 71.8718 67.2199 67.1313 71.2841 61.0491C75.3484 54.9669 77.5178 47.8161 77.518 40.501C77.5071 30.6951 73.6071 21.2939 66.6734 14.3599C59.7398 7.42591 50.3388 3.52536 40.533 3.51398Z" fill="#F43149"/>
<path d="M40.5316 7.02808C47.1517 7.02808 53.6232 8.99117 59.1276 12.6691C64.6321 16.3471 68.9222 21.5747 71.4557 27.6909C73.9891 33.8071 74.6519 40.5372 73.3604 47.0301C72.0689 53.5231 68.881 59.4872 64.1998 64.1684C59.5187 68.8495 53.5546 72.0374 47.0616 73.3289C40.5687 74.6204 33.8386 73.9576 27.7224 71.4242C21.6062 68.8908 16.3786 64.6006 12.7006 59.0961C9.02267 53.5917 7.05957 47.1202 7.05957 40.5001C7.05957 31.6227 10.5861 23.109 16.8633 16.8318C23.1405 10.5546 31.6542 7.02808 40.5316 7.02808V7.02808Z" fill="#F43149"/>
<path d="M43.4502 58.6697C43.3013 58.669 43.1539 58.6394 43.0166 58.5818C42.8793 58.5241 42.7546 58.4396 42.6499 58.3337C42.5339 58.2087 36.1799 47.4815 35.9189 46.9705C35.7479 46.6385 36.3028 46.0709 36.9448 45.4089C37.3078 45.053 37.6488 44.6755 37.9658 44.2781C38.1438 44.0461 38.399 43.7019 38.646 43.3699L38.7461 43.2371L38.8081 43.155C38.9001 43.03 38.986 42.9133 39.063 42.8093L41.751 39.5789L38.0898 41.3582L37.8818 41.5115C37.3428 41.9115 36.8331 42.2889 36.6211 42.4529L36.5752 42.488C35.6821 43.2704 34.6555 43.8865 33.5449 44.3064C33.5013 44.3067 33.4582 44.2978 33.418 44.281C32.677 43.888 22.4608 38.1325 22.3418 38.0125C22.2357 37.908 22.1518 37.7836 22.0942 37.6462C22.0367 37.5089 22.0069 37.3615 22.0068 37.2126C22.0071 37.0638 22.0372 36.9164 22.0947 36.7791C22.1522 36.6417 22.2359 36.5175 22.3418 36.4128C22.4558 36.3078 26.1979 35.0612 36.1489 31.8132C42.8259 29.6292 50.4422 27.135 51.3862 26.823C52.0726 26.5498 52.7942 26.377 53.5298 26.3093C54.0948 26.3093 54.3298 26.5653 54.3818 27.2253C54.3998 27.4573 51.73 35.7817 49.438 42.8357C47.038 50.1967 44.3982 58.1857 44.2612 58.3357C44.1552 58.4427 44.0285 58.5274 43.8892 58.5847C43.7499 58.6421 43.6008 58.671 43.4502 58.6697Z" fill="white"/>
</svg>
