<svg width="81" height="82" viewBox="0 0 81 82" fill="none" xmlns="http://www.w3.org/2000/svg">
<path opacity="0.3" d="M40.533 81.031C31.1823 81.0248 22.1211 77.7867 14.8845 71.8651C7.64777 65.9434 2.68043 57.7024 0.823844 48.5378C-1.03274 39.3733 0.335586 29.8487 4.69703 21.5775C9.05848 13.3063 16.1449 6.79691 24.756 3.152C34.6525 -0.985428 45.7853 -1.03237 55.7163 3.02146C65.6474 7.07529 73.5672 14.8995 77.7414 24.7805C81.9156 34.6616 82.0039 45.7942 77.987 55.7402C73.9701 65.6862 66.1754 73.6351 56.31 77.846C51.3188 79.9583 45.9527 81.0416 40.533 81.031ZM40.533 3.513C33.2178 3.51281 26.0669 5.6818 19.9845 9.74571C13.902 13.8096 9.16129 19.5859 6.36173 26.3441C3.56216 33.1024 2.82951 40.539 4.25643 47.7136C5.68335 54.8883 9.20575 61.4786 14.3782 66.6513C19.5506 71.8241 26.1408 75.3468 33.3154 76.7741C40.4899 78.2014 47.9266 77.4692 54.685 74.67C61.4433 71.8708 67.2199 67.1304 71.2841 61.0482C75.3484 54.966 77.5178 47.8151 77.518 40.5C77.5071 30.6941 73.6071 21.2929 66.6734 14.3589C59.7398 7.42494 50.3388 3.52439 40.533 3.513Z" fill="#95AEC7"/>
<path d="M40.5316 7.0271C47.1517 7.0271 53.6232 8.9902 59.1276 12.6681C64.6321 16.3461 68.9222 21.5737 71.4557 27.6899C73.9891 33.8061 74.6519 40.5362 73.3604 47.0292C72.0689 53.5221 68.881 59.4862 64.1998 64.1674C59.5187 68.8485 53.5546 72.0364 47.0616 73.3279C40.5687 74.6195 33.8386 73.9566 27.7224 71.4232C21.6062 68.8898 16.3786 64.5996 12.7006 59.0951C9.02267 53.5907 7.05957 47.1192 7.05957 40.4991C7.05957 31.6218 10.5861 23.108 16.8633 16.8308C23.1405 10.5536 31.6542 7.0271 40.5316 7.0271V7.0271Z" fill="#95AEC7"/>
<path d="M40.9906 22.78C37.395 22.7798 33.8801 23.8459 30.8905 25.8433C27.9008 27.8408 25.5706 30.6799 24.1945 34.0018C22.8185 37.3236 22.4584 40.9789 23.1598 44.5053C23.8612 48.0318 25.5926 51.2711 28.1351 53.8135C30.6775 56.356 33.9168 58.0874 37.4433 58.7888C40.9697 59.4902 44.625 59.1301 47.9468 57.754C51.2686 56.378 54.1078 54.0478 56.1053 51.0581C58.1027 48.0684 59.1688 44.5536 59.1686 40.958C59.1683 36.137 57.253 31.5135 53.844 28.1045C50.4351 24.6956 45.8116 22.7803 40.9906 22.78V22.78ZM44.7746 50.952C43.8412 51.3214 43.0949 51.6024 42.5356 51.795C41.909 51.9997 41.2526 52.0981 40.5936 52.086C39.6398 52.1427 38.6987 51.8446 37.9516 51.249C37.6486 50.9909 37.407 50.6685 37.2443 50.3052C37.0817 49.9419 37.0022 49.5469 37.0116 49.149C37.012 48.8099 37.0351 48.4711 37.0806 48.135C37.1286 47.79 37.2036 47.402 37.3066 46.967L38.4776 42.831C38.5776 42.431 38.6696 42.062 38.7406 41.706C38.8058 41.3854 38.8393 41.0592 38.8406 40.732C38.8819 40.3366 38.7647 39.941 38.5146 39.632C38.148 39.3825 37.704 39.2732 37.2636 39.324C36.9482 39.3251 36.6347 39.3716 36.3326 39.462C36.0246 39.562 35.7436 39.647 35.5186 39.733L35.8266 38.459C36.5932 38.151 37.3266 37.8844 38.0266 37.659C38.6668 37.445 39.3365 37.3319 40.0116 37.324C40.9493 37.2652 41.8756 37.5559 42.6116 38.14C42.9102 38.404 43.147 38.7305 43.3049 39.0965C43.4629 39.4624 43.5383 39.8587 43.5256 40.257C43.5256 40.4364 43.5046 40.7527 43.4626 41.206C43.4264 41.6288 43.348 42.0469 43.2286 42.454L42.0726 46.569C41.9726 46.9 41.8926 47.278 41.8156 47.702C41.7523 48.0195 41.7148 48.3415 41.7036 48.665C41.6787 48.8673 41.6988 49.0725 41.7624 49.2661C41.826 49.4597 41.9316 49.6369 42.0716 49.785C42.452 50.0207 42.8989 50.126 43.3446 50.085C43.671 50.0765 43.9948 50.0247 44.3076 49.931C44.5734 49.8633 44.8338 49.7757 45.0866 49.669L44.7746 50.952ZM44.5686 34.212C44.0389 34.7114 43.3344 34.9832 42.6066 34.969C41.8765 34.9822 41.1699 34.7107 40.6366 34.212C40.3784 33.9797 40.1719 33.6958 40.0306 33.3785C39.8892 33.0613 39.8162 32.7178 39.8162 32.3705C39.8162 32.0232 39.8892 31.6798 40.0306 31.3625C40.1719 31.0453 40.3784 30.7613 40.6366 30.529C41.1667 30.0239 41.8744 29.7477 42.6066 29.76C43.3366 29.7466 44.0421 30.0231 44.5686 30.529C44.8253 30.7614 45.0306 31.0451 45.171 31.3616C45.3115 31.6782 45.3841 32.0207 45.3841 32.367C45.3841 32.7134 45.3115 33.0559 45.171 33.3724C45.0306 33.689 44.8253 33.9726 44.5686 34.205V34.212Z" fill="white"/>
</svg>
