<svg width="42" height="41" viewBox="0 0 42 41" fill="none" xmlns="http://www.w3.org/2000/svg">
<path d="M21.3001 40.607C17.284 40.6079 13.358 39.4175 10.0186 37.1866C6.67929 34.9556 4.0767 31.7843 2.54016 28.0738C1.00363 24.3633 0.60219 20.2805 1.38664 16.3418C2.17109 12.4031 4.10618 8.78564 6.94708 5.94701C8.8324 4.06162 11.0706 2.56604 13.5339 1.54565C15.9973 0.525258 18.6374 4.64522e-05 21.3037 3.0812e-09C23.97 -4.64461e-05 26.6102 0.525073 29.0736 1.54538C31.5369 2.56568 33.7752 4.06119 35.6606 5.94651C37.546 7.83183 39.0416 10.07 40.0619 12.5334C41.0823 14.9967 41.6075 17.6369 41.6076 20.3032C41.6076 22.9695 41.0825 25.6096 40.0622 28.073C39.0419 30.5364 37.5464 32.7746 35.6611 34.66C33.7796 36.5518 31.5415 38.0515 29.0764 39.0723C26.6113 40.0931 23.9682 40.6147 21.3001 40.607ZM13.2671 18.452C12.924 18.4508 12.5904 18.5648 12.3197 18.7756C12.049 18.9865 11.8569 19.282 11.7741 19.615V20.363C11.8573 20.6956 12.0496 20.9907 12.3202 21.2012C12.5909 21.4116 12.9242 21.5253 13.2671 21.524H19.4151V27.667C19.4253 28.0677 19.5917 28.4486 19.8787 28.7284C20.1657 29.0082 20.5507 29.1648 20.9516 29.1648C21.3524 29.1648 21.7374 29.0082 22.0245 28.7284C22.3115 28.4486 22.4779 28.0677 22.4881 27.667V21.524H28.6401C29.0475 21.524 29.4381 21.3622 29.7262 21.0741C30.0143 20.7861 30.1761 20.3954 30.1761 19.988C30.1761 19.5806 30.0143 19.19 29.7262 18.9019C29.4381 18.6138 29.0475 18.452 28.6401 18.452H22.4881V12.306C22.4779 11.9053 22.3115 11.5244 22.0245 11.2446C21.7374 10.9648 21.3524 10.8082 20.9516 10.8082C20.5507 10.8082 20.1657 10.9648 19.8787 11.2446C19.5917 11.5244 19.4253 11.9053 19.4151 12.306V18.452H13.2671Z" fill="#F43149"/>
</svg>
