<svg width="51" height="51" viewBox="0 0 51 51" fill="none" xmlns="http://www.w3.org/2000/svg">
<g opacity="0.2">
<path d="M25.5 0.5C11.6929 0.5 0.5 11.6929 0.5 25.5C0.5 39.3071 11.6929 50.5 25.5 50.5C39.3071 50.5 50.5 39.3071 50.5 25.5C50.5 11.6929 39.3071 0.5 25.5 0.5Z" stroke="#252849"/>
</g>
<path d="M23.3339 25.541L29.7269 31.935C29.9016 32.1106 29.9998 32.3483 29.9998 32.596C29.9998 32.8438 29.9016 33.0814 29.7269 33.257L29.1669 33.817C28.9914 33.992 28.7537 34.0903 28.5059 34.0903C28.258 34.0903 28.0203 33.992 27.8449 33.817L20.2329 26.205C20.058 26.0284 19.96 25.79 19.96 25.5415C19.96 25.293 20.058 25.0546 20.2329 24.878L27.8379 17.278C28.0135 17.1032 28.2511 17.0051 28.4989 17.0051C28.7466 17.0051 28.9843 17.1032 29.1599 17.278L29.7199 17.838C29.8949 18.0135 29.9932 18.2512 29.9932 18.499C29.9932 18.7468 29.8949 18.9845 29.7199 19.16L23.3339 25.541Z" fill="#1C286A"/>
</svg>
