<svg width="38" height="37" viewBox="0 0 38 37" fill="none" xmlns="http://www.w3.org/2000/svg">
<path fill-rule="evenodd" clip-rule="evenodd" d="M17.1292 0.110966C12.6484 0.647336 8.52275 2.81719 5.54176 6.20528C2.56078 9.59337 0.933861 13.9617 0.972347 18.4744C1.01083 22.987 2.71202 27.327 5.75036 30.6637C8.78869 34.0005 12.9508 36.0997 17.4401 36.5595C21.9294 37.0194 26.4306 35.8077 30.0824 33.1562C33.7341 30.5048 36.2799 26.5998 37.2325 22.1887C38.1851 17.7776 37.4776 13.1701 35.2455 9.24801C33.0133 5.32591 29.4132 2.36466 25.1342 0.930968C22.5492 0.117104 19.8256 -0.161899 17.1292 0.110966ZM20.8152 2.17797C34.2442 3.40197 40.3642 19.826 31.0012 29.511C30.3012 30.24 30.3662 30.235 30.1452 29.576C29.172 26.7518 27.1342 24.4194 24.4662 23.076L23.6992 22.676L24.0992 22.385C25.367 21.431 26.3225 20.1216 26.8443 18.6232C27.366 17.1248 27.4304 15.5051 27.0292 13.97L26.8152 13.11L27.3152 11.025C28.0032 8.18397 28.0082 7.99297 27.4092 7.31297C26.6662 6.46897 25.8922 6.45397 24.4432 7.25497C23.9062 7.55497 23.4502 7.79397 23.4292 7.79197C23.4082 7.78997 22.8462 6.95897 22.1802 5.94397C20.4802 3.35997 20.4332 3.31197 19.3992 3.31297C18.3652 3.31397 18.3412 3.33697 16.6372 5.92297C15.9702 6.93497 15.4142 7.77397 15.4022 7.78697C15.1067 7.65944 14.8197 7.5128 14.5432 7.34797C12.9332 6.45697 12.2772 6.43397 11.4712 7.23997C10.7812 7.92997 10.7822 8.03997 11.5102 11.067L11.9582 12.932L11.7712 13.491C11.2622 15.0379 11.2379 16.7035 11.7017 18.2646C12.1654 19.8257 13.0951 21.2079 14.3662 22.226L14.9552 22.686L14.3262 22.993C11.6393 24.3212 9.57566 26.6442 8.57323 29.469C8.45623 29.808 8.35023 30.099 8.33723 30.115C7.74635 29.6157 7.20759 29.0579 6.72923 28.45C4.73714 25.9732 3.51817 22.9648 3.2243 19.7999C2.93044 16.635 3.57467 13.4536 5.07669 10.6524C6.57871 7.85119 8.87206 5.55406 11.6708 4.04742C14.4695 2.54079 17.6499 1.89131 20.8152 2.17997M20.8452 7.89897C22.7582 10.794 22.6902 10.759 24.4502 9.77597C24.7698 9.58314 25.1042 9.41595 25.4502 9.27597C25.4682 9.29397 25.2662 10.209 25.0012 11.307L24.5192 13.307L19.4192 13.29L14.3192 13.273L13.8382 11.288C13.5732 10.196 13.3712 9.28797 13.3882 9.27097C13.7338 9.41553 14.068 9.58567 14.3882 9.77997C16.2512 10.819 15.9662 11.022 18.8372 6.61597C19.0112 6.32319 19.2015 6.04041 19.4072 5.76897C19.4262 5.76897 20.0742 6.72497 20.8462 7.89297M25.1682 15.732C25.195 16.5192 25.0649 17.3039 24.7856 18.0404C24.5063 18.7769 24.0833 19.4505 23.5412 20.022C22.7925 20.8034 21.8409 21.3607 20.7931 21.6315C19.7453 21.9022 18.6427 21.8757 17.6092 21.5548C16.5756 21.2339 15.6519 20.6314 14.9417 19.8149C14.2314 18.9983 13.7628 18 13.5882 16.932C13.4825 16.461 13.4628 15.9749 13.5302 15.497C13.5542 15.473 16.1732 15.453 19.3502 15.453H25.1262L25.1672 15.731M21.0842 24.16C22.8798 24.5238 24.5308 25.4019 25.8361 26.6874C27.1415 27.9729 28.0449 29.6102 28.4362 31.4L28.4842 31.669L27.9452 32.015C25.3566 33.6351 22.3632 34.4917 19.3094 34.4864C16.2556 34.4811 13.2652 33.6141 10.6822 31.985L10.2052 31.679L10.2512 31.373C10.9512 26.717 16.2112 23.215 21.0882 24.16" fill="#252849"/>
</svg>
