<svg width="35" height="39" viewBox="0 0 35 39" fill="none" xmlns="http://www.w3.org/2000/svg">
<path d="M12.2001 33.721H3.94115C3.33751 33.7148 2.75005 33.5251 2.25689 33.1769C1.76373 32.8287 1.38824 32.3387 1.18037 31.7719C0.972488 31.2052 0.942067 30.5886 1.09315 30.0041C1.24423 29.4196 1.56966 28.895 2.02615 28.5C3.28566 27.4259 4.29657 26.0908 4.98881 24.5871C5.68105 23.0835 6.03808 21.4473 6.03515 19.792V15.078C6.03491 12.1611 7.1201 9.34849 9.07946 7.18764C11.0388 5.0268 13.7321 3.67238 16.6351 3.38801V0.916012C16.692 0.656265 16.836 0.423765 17.0432 0.257066C17.2503 0.0903662 17.5082 -0.000518799 17.7741 -0.000518799C18.0401 -0.000518799 18.298 0.0903662 18.5051 0.257066C18.7123 0.423765 18.8563 0.656265 18.9131 0.916012V3.38801C21.816 3.67281 24.5091 5.02737 26.4683 7.18812C28.4276 9.34886 29.5129 12.1612 29.5131 15.078V19.794C29.5091 21.4446 29.8634 23.0764 30.5518 24.5766C31.2402 26.0769 32.2462 27.4097 33.5001 28.483C33.9621 28.8742 34.2935 29.3972 34.4501 29.9819C34.6066 30.5666 34.5808 31.1852 34.3761 31.7549C34.1715 32.3245 33.7977 32.8181 33.3048 33.1694C32.8119 33.5208 32.2234 33.7133 31.6181 33.721H23.3531C23.0903 35.0062 22.3916 36.1612 21.3753 36.9906C20.359 37.82 19.0875 38.2731 17.7756 38.2731C16.4638 38.2731 15.1923 37.82 14.176 36.9906C13.1597 36.1612 12.461 35.0062 12.1981 33.721H12.2001Z" fill="#95AEC7"/>
</svg>
