<svg width="26" height="33" viewBox="0 0 27 34" fill="none" xmlns="http://www.w3.org/2000/svg">
<path opacity="0.5" d="M20.128 32.115C19.545 31.836 19.47 31.766 16.538 28.753C15.101 27.277 13.9 26.066 13.838 26.033C13.778 26.066 12.576 27.277 11.138 28.753C8.20595 31.766 8.13096 31.836 7.54796 32.115C7.07563 32.3411 6.5586 32.4583 6.03496 32.458C5.24903 32.4639 4.48329 32.2093 3.85732 31.7341C3.23136 31.2588 2.78042 30.5896 2.57496 29.831C2.49496 29.516 2.48696 28.131 2.50096 17.837L2.52096 6.19901L2.68196 5.73101C2.94084 4.95142 3.39546 4.25132 4.00231 3.69769C4.60917 3.14407 5.34794 2.75544 6.14796 2.56901C6.42896 2.50701 7.91996 2.49401 13.84 2.49901C19.76 2.49101 21.251 2.50401 21.532 2.56601C22.3326 2.75232 23.0719 3.14111 23.6791 3.69512C24.2864 4.24913 24.7412 4.94981 25 5.73001L25.161 6.19801L25.177 17.836C25.191 28.127 25.182 29.515 25.103 29.83C24.8975 30.5886 24.4466 31.2578 23.8206 31.7331C23.1946 32.2083 22.4289 32.4629 21.643 32.457C21.1193 32.4575 20.6022 32.3403 20.13 32.114L20.128 32.115Z" stroke="#6080A0" stroke-width="3"/>
</svg>
