<svg width="26" height="33" viewBox="0 0 26 33" fill="none" xmlns="http://www.w3.org/2000/svg">
<path opacity="0.5" d="M19.125 31.114C18.542 30.835 18.467 30.765 15.535 27.752C14.098 26.276 12.897 25.065 12.835 25.032C12.775 25.065 11.573 26.276 10.135 27.752C7.20302 30.765 7.12803 30.835 6.54503 31.114C6.0727 31.34 5.55567 31.4573 5.03203 31.457C4.2461 31.4629 3.48036 31.2083 2.85439 30.733C2.22843 30.2578 1.77749 29.5886 1.57203 28.83C1.49203 28.515 1.48403 27.13 1.49803 16.836L1.51803 5.19797L1.67903 4.72997C1.93791 3.95039 2.39253 3.25028 2.99938 2.69666C3.60624 2.14303 4.34502 1.7544 5.14503 1.56797C5.42603 1.50597 6.91703 1.49297 12.837 1.49797C18.757 1.48997 20.248 1.50297 20.529 1.56497C21.3296 1.75128 22.069 2.14007 22.6762 2.69408C23.2835 3.2481 23.7383 3.94877 23.997 4.72897L24.158 5.19697L24.174 16.835C24.188 27.126 24.179 28.514 24.1 28.829C23.8946 29.5876 23.4436 30.2568 22.8177 30.732C22.1917 31.2073 21.4259 31.4619 20.64 31.456C20.1164 31.4565 19.5993 31.3392 19.127 31.113L19.125 31.114Z" fill="#6080A0" stroke="#6080A0" stroke-width="3"/>
</svg>
