<svg width="23" height="23" viewBox="0 0 23 23" fill="none" xmlns="http://www.w3.org/2000/svg">
<path d="M21.563 20.979L16.45 15.866C17.9763 14.1101 18.7613 11.8301 18.6394 9.50675C18.5176 7.18336 17.4985 4.99802 15.7969 3.41133C14.0954 1.82463 11.8442 0.960533 9.51801 1.00116C7.19179 1.04178 4.9722 1.98395 3.32706 3.62909C1.68192 5.27423 0.739747 7.49382 0.699124 9.82004C0.658501 12.1463 1.5226 14.3974 3.10929 16.099C4.69599 17.8006 6.88133 18.8197 9.20472 18.9415C11.5281 19.0633 13.808 18.2783 15.564 16.752L20.677 21.865C20.7945 21.9827 20.9536 22.0495 21.12 22.051C21.2025 22.0513 21.2843 22.035 21.3604 22.0031C21.4365 21.9711 21.5054 21.9242 21.563 21.865C21.6794 21.7469 21.7446 21.5878 21.7446 21.422C21.7446 21.2562 21.6794 21.0971 21.563 20.979ZM1.97098 9.98501C1.97098 8.45972 2.42328 6.96868 3.27068 5.70045C4.11809 4.43222 5.32254 3.44375 6.73172 2.86005C8.1409 2.27635 9.69153 2.12362 11.1875 2.42119C12.6835 2.71876 14.0576 3.45326 15.1362 4.5318C16.2147 5.61034 16.9492 6.98449 17.2468 8.48047C17.5444 9.97645 17.3916 11.5271 16.8079 12.9363C16.2242 14.3454 15.2358 15.5499 13.9675 16.3973C12.6993 17.2447 11.2083 17.697 9.68298 17.697C7.63763 17.697 5.67605 16.8845 4.22977 15.4382C2.78349 13.9919 1.97098 12.0304 1.97098 9.98501Z" fill="#95AEC7" stroke="#8FA7BF"/>
</svg>
