<svg width="36" height="37" viewBox="0 0 36 37" fill="none" xmlns="http://www.w3.org/2000/svg">
<path fill-rule="evenodd" clip-rule="evenodd" d="M16.952 0.960006C13.8496 1.18302 10.8605 2.21812 8.28457 3.96141C5.70864 5.7047 3.63655 8.09487 2.27626 10.892C0.915965 13.6892 0.315322 16.7949 0.534609 19.8976C0.753896 23.0002 1.7854 25.9906 3.5256 28.5686C5.2658 31.1466 7.65347 33.2216 10.449 34.5853C13.2445 35.9489 16.3495 36.5533 19.4524 36.3377C22.5553 36.1222 25.547 35.0943 28.1271 33.3572C30.7072 31.6201 32.785 29.2349 34.152 26.441C35.5134 23.6399 36.1143 20.5301 35.8944 17.4234C35.6744 14.3168 34.6414 11.3226 32.899 8.74123C31.1565 6.15986 28.7659 4.08209 25.9669 2.71634C23.1679 1.35059 20.059 0.744894 16.952 0.960006ZM20.652 3.13301C33.306 5.26001 38.369 20.687 29.369 29.69C19.469 39.595 2.57603 32.668 2.55503 18.69C2.55189 16.4228 3.03919 14.1818 3.98351 12.1206C4.92783 10.0595 6.30681 8.22695 8.02587 6.74879C9.74493 5.27063 11.7634 4.1818 13.9428 3.557C16.1222 2.93219 18.4109 2.78619 20.652 3.12901M16.227 10.181C15.0832 10.3093 13.9825 10.692 13.0057 11.3009C12.0289 11.9098 11.2007 12.7296 10.5819 13.7001C9.96307 14.6707 9.56924 15.7674 9.42929 16.9099C9.28934 18.0524 9.40681 19.2117 9.77309 20.303C10.1394 21.3942 10.7452 22.3896 11.5461 23.2163C12.3471 24.043 13.3228 24.68 14.4019 25.0806C15.481 25.4812 16.636 25.6353 17.7824 25.5315C18.9288 25.4278 20.0374 25.0688 21.027 24.481L21.396 24.244L23.18 26.018C25.144 27.971 25.109 27.947 25.933 27.851C26.1529 27.8069 26.3595 27.7123 26.5366 27.5747C26.7136 27.4371 26.8563 27.2602 26.9532 27.058C27.0502 26.8558 27.0989 26.6338 27.0954 26.4096C27.0918 26.1854 27.0363 25.9651 26.933 25.766C26.3692 25.0849 25.7654 24.4377 25.125 23.828L23.465 22.174L23.599 21.985C24.5375 20.4632 24.9266 18.6659 24.7015 16.8921C24.4764 15.1184 23.6508 13.4752 22.362 12.236C20.8714 10.8922 18.9418 10.1381 16.935 10.115C16.891 10.12 16.573 10.152 16.229 10.186M18.312 13.235C19.0823 13.4414 19.7886 13.8375 20.3663 14.3873C20.944 14.937 21.3747 15.6228 21.619 16.3819C21.8633 17.1411 21.9134 17.9493 21.7647 18.7328C21.6161 19.5163 21.2734 20.25 20.7681 20.8669C20.2627 21.4838 19.6108 21.9642 18.8718 22.2641C18.1329 22.5641 17.3306 22.674 16.5383 22.5839C15.7459 22.4938 14.9888 22.2065 14.3361 21.7483C13.6834 21.2901 13.156 20.6756 12.802 19.961C12.4078 19.138 12.2564 18.2197 12.3655 17.3137C12.4745 16.4077 12.8396 15.5515 13.4179 14.8456C13.9962 14.1397 14.7637 13.6133 15.6306 13.328C16.4974 13.0427 17.4275 13.0105 18.312 13.235Z" fill="#252849"/>
</svg>
