<svg width="24" height="25" viewBox="0 0 24 25" fill="none" xmlns="http://www.w3.org/2000/svg">
<path d="M16.0962 24.0269C15.9902 24.0266 15.8849 24.0052 15.7871 23.9644C15.6893 23.9235 15.6006 23.8637 15.5259 23.7886C15.4429 23.6986 10.9258 16.0676 10.7368 15.7026C10.6148 15.4686 11.0088 15.0623 11.4658 14.5923C11.7248 14.3412 11.9676 14.0732 12.1929 13.7915C12.3189 13.6275 12.5008 13.382 12.6758 13.147L12.7451 13.0474L12.7891 12.9878C12.8541 12.8998 12.9152 12.8157 12.9712 12.7417L14.8828 10.4419L12.2832 11.7075L12.1357 11.8169C11.7517 12.1019 11.3888 12.3698 11.2358 12.4868L11.2041 12.5122C10.5683 13.0683 9.83785 13.5061 9.04785 13.8052C9.0166 13.8056 8.98579 13.7989 8.95703 13.7866C8.43003 13.5076 1.16215 9.41164 1.07715 9.32764C1.00168 9.25314 0.941738 9.16475 0.900879 9.06689C0.860021 8.96904 0.838781 8.86434 0.838867 8.7583C0.838781 8.65226 0.860021 8.54658 0.900879 8.44873C0.941738 8.35088 1.00168 8.26248 1.07715 8.18799C1.15815 8.11199 3.81993 7.2246 10.8989 4.9126C15.6489 3.3576 21.0677 1.58482 21.7397 1.36182C22.2279 1.16736 22.7419 1.04418 23.2651 0.996582C23.6651 0.996582 23.8371 1.17893 23.8701 1.64893C23.8831 1.81293 21.9831 7.73539 20.3521 12.7544C18.6461 17.9924 16.7659 23.6738 16.6689 23.7788C16.5949 23.8564 16.5062 23.9188 16.4077 23.9614C16.3093 24.004 16.2034 24.026 16.0962 24.0269Z" fill="white"/>
</svg>
