<svg width="36" height="29" viewBox="0 0 36 36" fill="none" xmlns="http://www.w3.org/2000/svg">
<path d="M17.5502 9.20001C15.8908 9.20001 14.2686 9.69208 12.8889 10.614C11.5092 11.5359 10.4338 12.8462 9.79882 14.3793C9.1638 15.9124 8.99764 17.5993 9.32137 19.2268C9.6451 20.8543 10.4442 22.3493 11.6175 23.5226C12.7909 24.696 14.2858 25.4951 15.9133 25.8188C17.5408 26.1425 19.2278 25.9764 20.7609 25.3414C22.2939 24.7064 23.6043 23.631 24.5262 22.2513C25.4481 20.8715 25.9402 19.2494 25.9402 17.59C25.9402 15.3648 25.0562 13.2308 23.4828 11.6574C21.9094 10.084 19.7753 9.20001 17.5502 9.20001ZM17.5502 23.883C16.3054 23.8834 15.0885 23.5147 14.0533 22.8234C13.0181 22.1321 12.2112 21.1493 11.7347 19.9994C11.2581 18.8495 11.1332 17.5841 11.3759 16.3632C11.6186 15.1423 12.2179 14.0208 13.098 13.1405C13.9781 12.2603 15.0995 11.6608 16.3203 11.418C17.5412 11.1751 18.8066 11.2997 19.9566 11.7761C21.1066 12.2525 22.0895 13.0593 22.7809 14.0943C23.4724 15.1294 23.8414 16.3463 23.8412 17.591C23.8409 19.2595 23.178 20.8596 21.9983 22.0395C20.8186 23.2194 19.2186 23.8825 17.5502 23.883Z" fill="#252849"/>
<path d="M34.278 13.5951L31.578 13.0081C31.343 12.2891 31.0529 11.5893 30.71 10.9151L32.2 8.59005C32.3283 8.38976 32.3842 8.15165 32.3586 7.91521C32.3329 7.67877 32.2272 7.4582 32.059 7.29005L27.859 3.08205C27.6909 2.91386 27.4703 2.80818 27.2339 2.78253C26.9974 2.75689 26.7593 2.81282 26.559 2.94105L24.225 4.43105C23.5509 4.08686 22.8511 3.79533 22.132 3.55905L21.545 0.859053C21.4938 0.625997 21.3642 0.41756 21.1778 0.268515C20.9915 0.119471 20.7597 0.0388322 20.521 0.0400527H14.578C14.3388 0.0393563 14.1065 0.120955 13.9203 0.271163C13.734 0.421372 13.605 0.631057 13.555 0.865053L12.967 3.55905C12.248 3.79403 11.5483 4.08423 10.874 4.42705L8.55003 2.94005C8.34974 2.81182 8.11164 2.75589 7.87519 2.78153C7.63875 2.80718 7.41818 2.91286 7.25003 3.08105L3.04203 7.28105C2.87384 7.4492 2.76816 7.66977 2.74251 7.90621C2.71687 8.14265 2.7728 8.38076 2.90103 8.58105L4.39503 10.9091C4.0508 11.5835 3.75926 12.2836 3.52303 13.0031L0.823034 13.5901C0.588564 13.6406 0.378695 13.7705 0.228786 13.9577C0.0788764 14.145 -0.00191101 14.3782 3.43286e-05 14.6181V20.5611C-0.00084365 20.8006 0.0807921 21.0332 0.231218 21.2197C0.381643 21.4062 0.591685 21.5352 0.826034 21.5851L3.52603 22.1721C3.76102 22.891 4.05121 23.5908 4.39403 24.2651L2.90003 26.5891C2.7718 26.7893 2.71587 27.0275 2.74151 27.2639C2.76716 27.5003 2.87284 27.7209 3.04103 27.8891L7.24103 32.0991C7.40918 32.2672 7.62975 32.3729 7.86619 32.3986C8.10264 32.4242 8.34074 32.3683 8.54103 32.2401L10.869 30.7401C11.5433 31.0829 12.2431 31.3731 12.962 31.6081L13.548 34.3081C13.5979 34.5424 13.7269 34.7524 13.9134 34.9029C14.0999 35.0533 14.3324 35.1349 14.572 35.1341H20.52C20.7596 35.1349 20.9922 35.0533 21.1787 34.9029C21.3652 34.7524 21.4942 34.5424 21.544 34.3081L22.131 31.6081C22.85 31.3731 23.5498 31.0829 24.224 30.7401L26.546 32.2401C26.7463 32.3683 26.9844 32.4242 27.2209 32.3986C27.4573 32.3729 27.6779 32.2672 27.846 32.0991L32.058 27.8991C32.2262 27.7309 32.3319 27.5103 32.3576 27.2739C32.3832 27.0375 32.3273 26.7993 32.199 26.5991L30.699 24.2701C31.0419 23.5958 31.3321 22.896 31.567 22.1771L34.267 21.5901C34.5014 21.5402 34.7114 21.4112 34.8619 21.2247C35.0123 21.0382 35.0939 20.8056 35.093 20.5661V14.6181C35.0939 14.3793 35.0129 14.1475 34.8635 13.9613C34.7141 13.7752 34.5053 13.6459 34.272 13.5951H34.278ZM33.006 19.7201L30.53 20.2581C30.3446 20.2995 30.1739 20.3905 30.0362 20.5213C29.8985 20.6522 29.7989 20.818 29.748 21.0011C29.4753 21.9778 29.0854 22.9179 28.587 23.8011C28.4925 23.9671 28.4454 24.1559 28.4509 24.3469C28.4563 24.5379 28.5142 24.7237 28.618 24.8841L29.977 27.0081L26.977 30.0131L24.842 28.6501C24.6818 28.5464 24.4962 28.4887 24.3054 28.4832C24.1146 28.4777 23.926 28.5247 23.76 28.6191C22.8769 29.1174 21.9367 29.5072 20.96 29.7801C20.777 29.8309 20.6112 29.9305 20.4803 30.0682C20.3495 30.206 20.2585 30.3766 20.217 30.5621L19.676 33.0401H15.424L14.886 30.5641C14.8446 30.3786 14.7536 30.208 14.6228 30.0702C14.4919 29.9325 14.3261 29.8329 14.143 29.7821C13.1663 29.5093 12.2262 29.1195 11.343 28.6211C11.177 28.5265 10.9882 28.4794 10.7972 28.4849C10.6062 28.4904 10.4204 28.5482 10.26 28.6521L8.12603 30.0171L5.12003 27.0111L6.49003 24.8811C6.59329 24.7203 6.65041 24.5343 6.65517 24.3433C6.65993 24.1524 6.61215 23.9637 6.51703 23.7981C6.01808 22.9149 5.62758 21.9748 5.35403 20.9981C5.30378 20.8147 5.20437 20.6486 5.06654 20.5176C4.92872 20.3867 4.75772 20.2959 4.57203 20.2551L2.10003 19.7151V15.4621L4.57603 14.9241C4.76145 14.8826 4.93213 14.7916 5.06985 14.6608C5.20758 14.5299 5.30719 14.3641 5.35803 14.1811C5.63144 13.2043 6.02194 12.2641 6.52103 11.3811C6.61556 11.215 6.66266 11.0262 6.65719 10.8352C6.65172 10.6442 6.5939 10.4584 6.49003 10.2981L5.12003 8.16605L8.12603 5.16005L10.257 6.53005C10.4177 6.63311 10.6035 6.69013 10.7943 6.69489C10.985 6.69965 11.1735 6.65197 11.339 6.55705C12.2222 6.05872 13.1624 5.66889 14.139 5.39605C14.3221 5.34521 14.4879 5.2456 14.6188 5.10787C14.7496 4.97014 14.8406 4.79946 14.882 4.61405L15.422 2.14005H19.68L20.218 4.61605C20.2595 4.80146 20.3505 4.97214 20.4813 5.10987C20.6122 5.2476 20.778 5.34721 20.961 5.39805C21.9377 5.67082 22.8779 6.06065 23.761 6.55905C23.9271 6.65358 24.1159 6.70067 24.3069 6.69521C24.4979 6.68974 24.6837 6.63192 24.844 6.52805L26.975 5.15805L29.975 8.16905L28.61 10.2971C28.5062 10.4574 28.4483 10.6432 28.4429 10.8342C28.4374 11.0252 28.4845 11.214 28.579 11.3801C29.0781 12.2631 29.4686 13.2033 29.742 14.1801C29.7923 14.3634 29.8917 14.5295 30.0295 14.6605C30.1674 14.7914 30.3383 14.8822 30.524 14.9231L33 15.4641L33.006 19.7201Z" fill="#252849"/>
</svg>
