<svg width="35" height="30" viewBox="0 0 35 30" fill="none" xmlns="http://www.w3.org/2000/svg">
<path opacity="0.5" d="M20.303 2.63303C20.1305 2.72036 19.9904 2.8605 19.903 3.03303L19.766 3.29203V8.85503L19.066 8.89503C14.8017 9.148 10.7631 10.8967 7.66082 13.8334C4.55852 16.7702 2.59124 20.7069 2.10505 24.951C1.83505 27.251 2.06305 27.977 3.03705 27.915C3.46705 27.887 3.64405 27.767 3.91405 27.322C7.30405 21.731 12.179 19.066 19.034 19.055H19.764V21.841C19.764 25.211 19.794 25.331 20.64 25.412C21.152 25.462 21.08 25.528 26.764 20.012C33.119 13.854 32.676 14.351 32.47 13.581C32.415 13.375 21.47 2.74903 21.162 2.60503C21.0286 2.53129 20.8778 2.49455 20.7254 2.49859C20.573 2.50264 20.4244 2.54732 20.295 2.62802" stroke="#6080A0" stroke-width="3"/>
</svg>
