<svg width="45" height="46" viewBox="0 0 45 46" fill="none" xmlns="http://www.w3.org/2000/svg">
<path d="M22.4891 0.988037C28.4522 0.988037 34.1711 3.35688 38.3877 7.57345C42.6043 11.79 44.9731 17.5089 44.9731 23.472C44.9692 26.6761 44.2877 29.8431 42.9731 32.765C41.304 36.4444 38.6744 39.606 35.3608 41.9177C32.0473 44.2293 28.1721 45.6055 24.1427 45.9016C20.1133 46.1977 16.0786 45.4027 12.4628 43.6002C8.84687 41.7978 5.78339 39.0544 3.59438 35.6586C1.40537 32.2627 0.17169 28.3399 0.0230408 24.3024C-0.125608 20.2649 0.816264 16.2619 2.74964 12.7143C4.68301 9.16671 7.53647 6.20551 11.01 4.14205C14.4836 2.07858 18.4489 0.98906 22.4891 0.988037V0.988037Z" fill="#0E2760"/>
<path d="M23.779 30.796C23.7785 30.2727 23.8716 29.7535 24.054 29.263L18.703 26.329C18.1235 27.0397 17.338 27.5533 16.4545 27.7992C15.5711 28.0451 14.6331 28.0111 13.7698 27.702C12.9064 27.3929 12.1601 26.8238 11.6334 26.073C11.1068 25.3223 10.8258 24.4268 10.8291 23.5098C10.8324 22.5927 11.1198 21.6993 11.6518 20.9523C12.1838 20.2053 12.9342 19.6416 13.7997 19.3387C14.6653 19.0357 15.6034 19.0085 16.4851 19.2607C17.3668 19.5129 18.1486 20.0322 18.723 20.747L22.367 18.665L24.027 17.716C23.8617 17.2463 23.7775 16.7519 23.778 16.254C23.7897 15.31 24.0985 14.3937 24.6606 13.6352C25.2226 12.8767 26.0094 12.3146 26.9091 12.0286C27.8088 11.7427 28.7757 11.7475 29.6725 12.0423C30.5693 12.3371 31.3505 12.907 31.905 13.671C32.4512 14.4214 32.7447 15.3259 32.743 16.254C32.7311 17.1765 32.4355 18.0729 31.8964 18.8215C31.3574 19.5701 30.6009 20.1347 29.7298 20.4384C28.8587 20.7422 27.9152 20.7704 27.0275 20.5194C26.1398 20.2683 25.3509 19.75 24.768 19.035L19.468 22.066C19.8014 23.023 19.7961 24.0654 19.453 25.019L23.094 27.019L24.817 27.964C25.2583 27.4428 25.8121 27.0285 26.4367 26.7524C27.0613 26.4764 27.7405 26.3457 28.4229 26.3702C29.1054 26.3948 29.7734 26.5739 30.3766 26.8942C30.9798 27.2144 31.5024 27.6674 31.905 28.219C32.4512 28.9694 32.745 29.8739 32.744 30.802C32.7529 31.3963 32.6435 31.9864 32.4222 32.538C32.2009 33.0896 31.8722 33.5918 31.4551 34.0152C31.0379 34.4386 30.5408 34.7748 29.9925 35.0043C29.4443 35.2338 28.8559 35.352 28.2615 35.352C27.6672 35.352 27.0788 35.2338 26.5305 35.0043C25.9822 34.7748 25.4851 34.4386 25.068 34.0152C24.6509 33.5918 24.3221 33.0896 24.1008 32.538C23.8795 31.9864 23.7701 31.3963 23.779 30.802V30.796Z" fill="white"/>
</svg>
