<svg width="31" height="36" viewBox="0 0 31 36" fill="none" xmlns="http://www.w3.org/2000/svg">
<path opacity="0.5" d="M2.13497 14.822C2.22615 15.0006 2.37139 15.1458 2.54997 15.237L2.82097 15.381H8.65497L8.69697 16.115C8.96173 20.5845 10.7945 24.8175 13.8728 28.0688C16.9511 31.3201 21.0776 33.3814 25.526 33.89C27.935 34.173 28.697 33.933 28.635 32.913C28.606 32.463 28.48 32.277 28.014 31.994C22.156 28.443 19.363 23.334 19.352 16.146V15.381H22.267C25.798 15.381 25.924 15.35 26.009 14.463C26.061 13.927 26.13 14.002 20.352 8.04601C13.899 1.38801 14.419 1.85201 13.613 2.06701C13.398 2.12501 2.26297 13.599 2.11297 13.916C2.0361 14.0559 1.9978 14.2137 2.00202 14.3733C2.00624 14.5328 2.05281 14.6884 2.13697 14.824" stroke="#6080A0" stroke-width="3"/>
</svg>
