<svg width="31" height="36" viewBox="0 0 31 36" fill="none" xmlns="http://www.w3.org/2000/svg">
<path opacity="0.5" d="M28.4999 21.162C28.4087 20.9834 28.2635 20.8382 28.0849 20.747L27.8139 20.603H21.9799L21.9379 19.869C21.6732 15.3995 19.8403 11.1665 16.7621 7.91522C13.6838 4.6639 9.55732 2.60256 5.10892 2.094C2.69992 1.811 1.93792 2.051 1.99992 3.071C2.02892 3.521 2.15492 3.707 2.62092 3.99C8.47892 7.541 11.2719 12.65 11.2829 19.838V20.603H8.36792C4.83692 20.603 4.71092 20.634 4.62592 21.521C4.57392 22.057 4.50492 21.982 10.2829 27.938C16.7359 34.596 16.2159 34.132 17.0219 33.917C17.2369 33.859 28.3719 22.385 28.5219 22.068C28.5988 21.9281 28.6371 21.7703 28.6329 21.6108C28.6286 21.4512 28.5821 21.2956 28.4979 21.16" stroke="#6080A0" stroke-width="3"/>
</svg>
