<svg width="30" height="30" viewBox="0 0 30 30" fill="none" xmlns="http://www.w3.org/2000/svg">
<path d="M14.58 0C11.6964 0 8.87746 0.855102 6.47979 2.45717C4.08212 4.05924 2.21337 6.33633 1.10984 9.00048C0.00631738 11.6646 -0.282415 14.5962 0.280157 17.4244C0.84273 20.2527 2.23134 22.8506 4.27039 24.8896C6.30944 26.9287 8.90735 28.3173 11.7356 28.8798C14.5638 29.4424 17.4954 29.1537 20.1595 28.0502C22.8237 26.9466 25.1008 25.0779 26.7028 22.6802C28.3049 20.2825 29.16 17.4637 29.16 14.58C29.16 10.7131 27.6239 7.00466 24.8896 4.27038C22.1553 1.5361 18.4469 0 14.58 0V0ZM17.636 9.4C18.0758 8.95988 18.5981 8.61074 19.1729 8.37253C19.7477 8.13432 20.3638 8.01171 20.986 8.01171C21.6082 8.01171 22.2243 8.13432 22.7991 8.37253C23.3739 8.61074 23.8962 8.95988 24.336 9.4C24.4154 9.47932 24.4784 9.5735 24.5214 9.67716C24.5643 9.78082 24.5865 9.89193 24.5865 10.0041C24.5866 10.1164 24.5645 10.2275 24.5216 10.3312C24.4787 10.4349 24.4158 10.5291 24.3365 10.6085C24.2572 10.6879 24.163 10.7509 24.0594 10.7939C23.9557 10.8368 23.8446 10.859 23.7324 10.859C23.6201 10.8591 23.509 10.837 23.4053 10.7941C23.3016 10.7512 23.2074 10.6883 23.128 10.609C22.8469 10.3277 22.5131 10.1046 22.1458 9.9524C21.7784 9.80018 21.3847 9.72182 20.987 9.72182C20.5894 9.72182 20.1956 9.80018 19.8282 9.9524C19.4609 10.1046 19.1271 10.3277 18.846 10.609C18.6857 10.7693 18.4682 10.8594 18.2415 10.8594C18.0148 10.8594 17.7973 10.7693 17.637 10.609C17.4767 10.4487 17.3866 10.2312 17.3866 10.0045C17.3866 9.77777 17.4767 9.56032 17.637 9.4H17.636ZM4.82601 9.4C5.26583 8.95988 5.78806 8.61074 6.36287 8.37253C6.93768 8.13432 7.55379 8.01171 8.17601 8.01171C8.79822 8.01171 9.41433 8.13432 9.98914 8.37253C10.5639 8.61074 11.0862 8.95988 11.526 9.4C11.6054 9.47932 11.6684 9.5735 11.7114 9.67716C11.7543 9.78082 11.7765 9.89193 11.7765 10.0041C11.7766 10.1164 11.7545 10.2275 11.7116 10.3312C11.6687 10.4349 11.6058 10.5291 11.5265 10.6085C11.4472 10.6879 11.353 10.7509 11.2494 10.7939C11.1457 10.8368 11.0346 10.859 10.9224 10.859C10.8101 10.8591 10.699 10.837 10.5953 10.7941C10.4916 10.7512 10.3974 10.6883 10.318 10.609C10.0369 10.3277 9.70313 10.1046 9.33577 9.9524C8.96841 9.80018 8.57466 9.72182 8.17701 9.72182C7.77936 9.72182 7.3856 9.80018 7.01824 9.9524C6.65088 10.1046 6.31711 10.3277 6.03601 10.609C5.87568 10.7695 5.65819 10.8597 5.43136 10.8597C5.20454 10.8598 4.98696 10.7698 4.82651 10.6095C4.66605 10.4492 4.57585 10.2317 4.57576 10.0049C4.57567 9.77803 4.66568 9.56046 4.82601 9.4ZM14.58 24.7C13.266 24.7 11.965 24.4412 10.751 23.9383C9.5371 23.4355 8.43411 22.6984 7.50505 21.7692C6.57599 20.8401 5.83904 19.737 5.33631 18.5231C4.83357 17.3091 4.57488 16.008 4.57501 14.694C4.57501 14.4675 4.66498 14.2503 4.82514 14.0901C4.98529 13.93 5.20251 13.84 5.42901 13.84H23.729C23.9555 13.84 24.1727 13.93 24.3329 14.0901C24.493 14.2503 24.583 14.4675 24.583 14.694C24.5833 17.3473 23.5296 19.8921 21.6537 21.7685C19.7778 23.645 17.2333 24.6995 14.58 24.7Z" fill="#95AEC7"/>
</svg>
