<svg width="38" height="38" viewBox="0 0 38 38" fill="none" xmlns="http://www.w3.org/2000/svg">
<path fill-rule="evenodd" clip-rule="evenodd" d="M8.04403 0.131001C6.83203 0.179001 6.76703 0.247002 6.72103 1.517L6.68603 2.452L3.63303 2.482C0.61503 2.512 0.578029 2.515 0.399029 2.735C0.0290289 3.193 -0.0109666 10.477 0.349033 11.896C0.710564 13.2277 1.42253 14.4382 2.41078 15.4013C3.39903 16.3644 4.62742 17.0449 5.96803 17.372L6.87603 17.596L7.00203 18.164C7.42082 19.8978 8.2024 21.5231 9.29523 22.9327C10.3881 24.3424 11.7673 25.5043 13.342 26.342L14.221 26.817L14.193 28.083L14.165 29.342L13.314 29.367C11.84 29.411 11.814 29.445 11.814 31.246V32.369L11.238 32.581C10.4562 32.8738 9.7805 33.3951 9.29895 34.0771C8.81741 34.7591 8.55226 35.5702 8.53803 36.405C8.48703 37.211 8.49803 37.278 8.73203 37.55L8.98103 37.839L16.93 37.876C21.302 37.896 25.846 37.876 27.03 37.833L29.179 37.753L29.408 37.413C30.217 36.213 28.939 33.625 27.069 32.679L26.383 32.332L26.283 31.004C26.16 29.372 26.178 29.392 24.862 29.392H23.93L23.935 28.065L23.938 26.742L24.556 26.442C26.0976 25.6532 27.4596 24.5543 28.5564 23.2143C29.6533 21.8743 30.4614 20.3221 30.93 18.655C31.276 17.469 31.13 17.623 32.147 17.367C33.4596 17.0398 34.6634 16.3742 35.6386 15.4368C36.6138 14.4993 37.3263 13.3226 37.705 12.024C37.934 9.00208 37.9721 5.96872 37.819 2.942C37.7 2.517 37.292 2.463 34.165 2.462H31.337V1.528C31.337 0.654 31.321 0.579001 31.079 0.352001L30.821 0.109001L19.89 0.101002C13.878 0.101002 8.54803 0.110001 8.04603 0.130001M29.398 8.842C29.312 18.229 29.259 18.581 27.552 21.167C23.252 27.682 13.328 26.98 9.76903 19.909C8.78103 17.942 8.72803 17.376 8.68203 8.242L8.65103 2.059H29.465L29.398 8.842ZM6.67903 9.763C6.74733 11.6039 6.69891 13.4472 6.53403 15.282C6.03403 15.782 3.56403 14.002 2.81803 12.592C2.21803 11.453 2.18203 11.217 2.11803 7.64L2.06403 4.361H6.70203L6.67503 9.761M35.915 7.642C35.862 11.715 35.726 12.282 34.473 13.666C33.6524 14.5461 32.5978 15.1739 31.433 15.476C31.322 15.476 31.292 4.54 31.402 4.429C32.1706 4.36476 32.9421 4.34239 33.713 4.362H35.957L35.914 7.641M18.619 4.601C18.0817 5.25893 17.6437 5.99205 17.319 6.777L16.268 8.818L14.168 9.142C11.86 9.498 11.647 9.568 11.449 10.042C11.191 10.659 11.232 10.724 12.957 12.467L14.598 14.128L14.261 15.928C13.817 18.3 13.799 18.708 14.121 19.028C14.614 19.521 14.787 19.483 17.001 18.389L19.033 17.389L21.039 18.389C23.146 19.436 23.267 19.475 23.722 19.24C24.24 18.972 24.256 18.44 23.822 15.926L23.522 14.154L25.107 12.542C26.807 10.811 26.944 10.597 26.676 10.032C26.457 9.571 26.238 9.5 23.903 9.139L21.874 8.825L20.874 6.881C19.709 4.62 19.321 4.227 18.621 4.608M19.701 9.232C20.517 10.732 20.391 10.661 22.801 11.032C23.401 11.124 23.356 11.258 22.373 12.315C21.355 13.409 21.346 13.436 21.559 14.78C21.825 16.461 21.886 16.417 20.313 15.685C18.996 15.073 19.076 15.073 17.806 15.685C16.769 16.185 16.317 16.298 16.318 16.062C16.318 15.993 16.385 15.554 16.468 15.086C16.76 13.428 16.756 13.416 15.382 12.011C14.83 11.446 14.623 11.174 14.722 11.14C14.801 11.113 15.383 11.017 16.015 10.926C17.521 10.711 17.603 10.661 18.115 9.659C19.036 7.866 18.963 7.886 19.696 9.235M18.971 27.642C19.797 27.642 20.799 27.604 21.199 27.557L21.925 27.472V29.398L19.046 29.372L16.167 29.342L16.138 28.618C16.096 27.581 16.185 27.456 16.9 27.559C17.213 27.604 18.145 27.641 18.971 27.641M24.342 32.541C24.384 34.022 24.442 34.124 25.414 34.35C26.702 34.65 27.704 35.49 27.137 35.794C26.928 35.906 11.257 35.948 10.969 35.837C10.341 35.596 11.314 34.662 12.469 34.393C13.649 34.119 13.711 34.019 13.711 32.379V31.299H24.307L24.342 32.548" fill="#252849"/>
</svg>
