<svg width="69" height="70" viewBox="0 0 69 70" fill="none" xmlns="http://www.w3.org/2000/svg">
<path opacity="0.3" d="M34.2832 69.564C26.3741 69.5593 18.7099 66.8207 12.5888 61.8123C6.46763 56.8038 2.26597 49.8334 0.695538 42.0819C-0.874894 34.3304 0.282463 26.2743 3.97155 19.2783C7.66064 12.2824 13.6546 6.7767 20.9382 3.69401C29.3158 0.154824 38.7563 0.0886104 47.1828 3.50993C55.6092 6.93125 62.3315 13.5598 65.8707 21.9375C69.4098 30.3152 69.476 39.7556 66.0547 48.1821C62.6334 56.6086 56.0048 63.3308 47.6272 66.87C43.4057 68.6566 38.8671 69.5729 34.2832 69.564V69.564ZM34.2832 4.00001C28.0959 3.99981 22.0476 5.83436 16.903 9.27166C11.7584 12.709 7.74861 17.5946 5.38072 23.3108C3.01283 29.027 2.39318 35.317 3.60013 41.3854C4.80708 47.4538 7.78641 53.028 12.1614 57.4031C16.5363 61.7782 22.1104 64.7577 28.1788 65.9648C34.2471 67.172 40.5371 66.5525 46.2534 64.1848C51.9697 61.8171 56.8555 57.8075 60.2929 52.663C63.7304 47.5185 65.5652 41.4702 65.5652 35.283C65.5556 26.9893 62.2568 19.0381 56.3924 13.1735C50.528 7.30885 42.5768 4.0098 34.2832 4.00001V4.00001Z" fill="#F43149"/>
<path d="M34.2822 6.97101C39.8816 6.97101 45.3552 8.63142 50.0109 11.7423C54.6667 14.8531 58.2954 19.2747 60.4381 24.4479C62.5809 29.621 63.1416 35.3134 62.0492 40.8052C60.9568 46.297 58.2605 51.3415 54.3011 55.3009C50.3417 59.2603 45.2972 61.9566 39.8054 63.049C34.3136 64.1414 28.6212 63.5808 23.448 61.438C18.2749 59.2952 13.8533 55.6665 10.7425 51.0108C7.6316 46.355 5.97119 40.8814 5.97119 35.282C5.97119 27.7735 8.95395 20.5724 14.2633 15.2631C19.5726 9.95376 26.7736 6.97101 34.2822 6.97101V6.97101Z" fill="#F43149"/>
<path d="M35.5271 52.676C34.5071 52.676 33.4811 52.676 32.4801 52.669L25.5801 52.637L25.3661 52.389C25.1661 52.152 25.1531 52.097 25.1971 51.396C25.2069 50.671 25.436 49.966 25.8542 49.3738C26.2725 48.7815 26.8602 48.3298 27.5401 48.078L28.0401 47.894V46.92C28.0401 45.358 28.0641 45.328 29.3401 45.289L30.0791 45.267L30.1031 44.167L30.1271 43.067L29.3641 42.655C27.9984 41.9282 26.8022 40.9203 25.8542 39.6978C24.9062 38.4752 24.228 37.0657 23.8641 35.562L23.7541 35.069L22.9661 34.869C21.8043 34.585 20.7396 33.9952 19.8827 33.1608C19.0258 32.3264 18.4079 31.2779 18.0931 30.124C17.7761 28.889 17.8141 22.574 18.1361 22.175C18.2911 21.983 18.3181 21.981 20.9421 21.956L23.5911 21.929L23.6211 21.118C23.6621 20.018 23.7151 19.958 24.7691 19.918C25.1461 19.9 28.7251 19.889 33.2761 19.889H35.0431L44.5291 19.896L44.7531 20.107C44.9621 20.307 44.9771 20.371 44.9771 21.128V21.938H47.4361C50.1481 21.938 50.5041 21.985 50.6071 22.354C50.7379 24.9799 50.7045 27.6113 50.5071 30.233C50.1788 31.36 49.5606 32.3812 48.7143 33.1947C47.8681 34.0082 46.8232 34.5855 45.6841 34.869L45.4521 34.926C44.8901 35.061 44.8901 35.061 44.7041 35.718C44.6811 35.798 44.6561 35.887 44.6271 35.987C44.1977 37.4547 43.4793 38.8219 42.5141 40.008C41.5845 41.1543 40.4192 42.0871 39.0971 42.743L38.5601 43.004V44.155V45.306H39.4521C40.4971 45.306 40.4991 45.331 40.5981 46.653V46.705L40.6851 47.857L41.2851 48.157C41.8034 48.4404 42.2608 48.8232 42.6309 49.2836C43.001 49.744 43.2767 50.2729 43.4421 50.84C43.5231 51.0728 43.5537 51.3202 43.5318 51.5657C43.5099 51.8112 43.436 52.0492 43.3151 52.264L43.1151 52.564L41.2511 52.634C40.5161 52.658 38.2761 52.676 35.5271 52.676ZM32.1761 43.689C32.1271 43.6836 32.0774 43.6886 32.0304 43.7036C31.9834 43.7185 31.94 43.7432 31.9031 43.776C31.7881 43.896 31.7771 44.159 31.7961 44.634L31.8211 45.263L34.3211 45.286L36.8211 45.309V43.639L36.1921 43.712C35.8431 43.753 34.9751 43.786 34.2581 43.786C33.5411 43.786 32.7341 43.754 32.4581 43.715C32.3648 43.6998 32.2706 43.6911 32.1761 43.689ZM34.0681 35.119L35.5681 35.866C36.0986 36.1997 36.6799 36.4449 37.2891 36.592C37.3921 36.5886 37.4925 36.5583 37.5801 36.504C37.9701 36.304 37.9801 35.904 37.6581 34.019L37.4321 32.689L38.6241 31.479C39.9021 30.179 40.0011 30.021 39.8001 29.596C39.6351 29.249 39.4801 29.196 37.7201 28.927L36.1981 28.691L35.4471 27.234C34.7271 25.834 34.4181 25.434 34.0691 25.434C33.9583 25.4404 33.851 25.4748 33.7571 25.534C33.3541 26.028 33.0253 26.5781 32.7811 27.167L31.9931 28.697L30.4151 28.941C28.6771 29.208 28.5251 29.259 28.3761 29.615C28.1821 30.078 28.2141 30.129 29.5071 31.434L30.7391 32.678L30.4861 34.03C30.1531 35.811 30.1391 36.115 30.3861 36.356C30.4364 36.4228 30.5006 36.4778 30.5744 36.5172C30.6482 36.5566 30.7296 36.5794 30.8131 36.584C31.4264 36.4479 32.0123 36.2092 32.5461 35.878L34.0701 35.125L34.0681 35.119ZM47.0451 23.589C46.3759 23.5719 45.7062 23.5912 45.0391 23.647C44.9911 23.695 44.9761 26.139 44.9761 28.389C44.9761 30.639 45.0101 33.112 45.0581 33.228C46.0695 32.9684 46.9849 32.4234 47.6951 31.658C48.7831 30.458 48.9001 29.967 48.9471 26.431L48.9921 23.589H47.0451ZM19.5881 23.589L19.6351 26.434C19.6871 29.541 19.7151 29.742 20.2351 30.734C20.9069 31.8771 21.9741 32.7344 23.2351 33.144C23.2753 33.1469 23.3157 33.1417 23.3538 33.1286C23.392 33.1156 23.4271 33.0949 23.4571 33.068C23.6013 31.476 23.6437 29.8764 23.5841 28.279L23.6121 23.589H19.5881Z" fill="white"/>
</svg>
