<svg width="42" height="37" viewBox="0 0 42 37" fill="none" xmlns="http://www.w3.org/2000/svg">
<g clip-path="url(#clip0_104_1384)">
<path d="M5.21004 31.3906C3.55268 29.7401 2.23906 27.7775 1.3448 25.6162C0.45054 23.4549 -0.00658588 21.1378 7.46011e-05 18.7988C-0.00671875 16.4604 0.450518 14.1441 1.3448 11.9834C2.23908 9.8227 3.55262 7.86059 5.21004 6.21094C6.85982 4.55371 8.82183 3.23997 10.9825 2.3457C13.1432 1.45143 15.4595 0.994404 17.7979 1.00098C20.2407 0.995796 22.6586 1.49602 24.8985 2.4707C24.4993 3.04521 24.1556 3.65685 23.8731 4.29688C21.9515 3.48775 19.8868 3.07254 17.8018 3.0752C14.6401 3.06234 11.5488 4.00865 8.9366 5.79004C6.32442 7.57143 4.31443 10.1036 3.17195 13.0518C2.00495 15.99 1.75777 19.2139 2.46199 22.2959C3.16621 25.3779 4.78901 28.1737 7.11629 30.3135C7.5795 28.6948 8.39901 27.2005 9.5157 25.9404C10.6362 24.6857 12.0258 23.6991 13.5802 23.0557C12.1773 22.1477 11.1077 20.809 10.5323 19.2402C9.95119 17.6744 9.89649 15.9618 10.377 14.3623C10.848 12.7587 11.8276 11.3519 13.168 10.3535C14.5061 9.3509 16.1338 8.81095 17.8057 8.81543C18.8364 8.81182 19.8575 9.01498 20.8077 9.41406C21.7579 9.81315 22.618 10.3993 23.337 11.1377C23.7271 12.6364 24.4449 14.0301 25.4376 15.2188C25.703 16.7154 25.5203 18.2574 24.9141 19.6514C24.308 21.0453 23.305 22.2291 22.0294 23.0557C23.5823 23.7022 24.9705 24.6883 26.0938 25.9404C27.2091 27.2007 28.0281 28.695 28.4893 30.3135C30.046 28.8637 31.2938 27.114 32.1573 25.1699C33.0208 23.2258 33.4817 21.127 33.5137 19C34.2145 18.9991 34.9135 18.9294 35.6007 18.792C35.6087 21.1324 35.1532 23.4514 34.2589 25.6143C33.3646 27.7771 32.0493 29.7403 30.3907 31.3916C28.7409 33.0488 26.7789 34.3626 24.6182 35.2568C22.4576 36.1511 20.1412 36.6081 17.8028 36.6016C15.4636 36.6082 13.1469 36.1513 10.9854 35.2568C8.82391 34.3624 6.8606 33.0483 5.21004 31.3906ZM8.92293 31.7627C11.5341 33.5616 14.631 34.5237 17.8018 34.5195C20.9725 34.5225 24.069 33.5605 26.6807 31.7627C26.3142 29.6746 25.2229 27.7835 23.5987 26.4209C21.9746 25.0583 19.9218 24.3124 17.8018 24.3145C15.6815 24.3112 13.6284 25.0562 12.004 26.4189C10.3796 27.7817 9.28833 29.6741 8.92293 31.7627ZM12.1387 16.5635C12.1427 18.0642 12.7407 19.5023 13.8018 20.5635C14.863 21.6246 16.3011 22.2216 17.8018 22.2256C19.3032 22.2237 20.7431 21.627 21.8048 20.5654C22.8664 19.5038 23.4631 18.0648 23.4649 16.5635C23.462 15.0629 22.8643 13.6241 21.8028 12.5635C20.7413 11.5029 19.3024 10.9069 17.8018 10.9053C16.3016 10.9063 14.8634 11.5024 13.8018 12.5625C12.7403 13.6226 12.1419 15.0594 12.1387 16.5596V16.5635ZM24.9981 8.49805C25.0013 6.24468 25.8979 4.08458 27.4913 2.49121C29.0847 0.897839 31.2448 0.00122138 33.4981 -0.00195312C35.7516 0.000957454 37.9115 0.897782 39.505 2.49121C41.0984 4.08464 41.9952 6.2446 41.9981 8.49805C41.9947 10.7513 41.0983 12.9116 39.505 14.5049C37.9116 16.0982 35.7514 16.9946 33.4981 16.998C31.2449 16.9943 29.0855 16.0972 27.4923 14.5039C25.899 12.9106 25.0018 10.7513 24.9981 8.49805ZM28.1065 7.85352C28.0141 8.00922 27.9649 8.18612 27.9649 8.36719C27.9649 8.54826 28.0141 8.72613 28.1065 8.88184C28.1965 9.03431 28.3248 9.16133 28.4786 9.24902C28.6324 9.33672 28.8064 9.38205 28.9835 9.38184H32.46C32.4867 9.38183 32.5136 9.3871 32.5382 9.39746C32.5628 9.40782 32.585 9.42328 32.6036 9.44238C32.6222 9.46149 32.6368 9.48394 32.6466 9.50879C32.6563 9.53363 32.6609 9.56023 32.6602 9.58691V13.043C32.6665 13.3092 32.7769 13.5624 32.9678 13.748C33.1588 13.9337 33.4144 14.0373 33.6807 14.0361C33.9469 14.038 34.2032 13.935 34.3936 13.749C34.5841 13.5631 34.6938 13.3091 34.6983 13.043V9.58203C34.6983 9.55577 34.7029 9.53012 34.713 9.50586C34.723 9.48159 34.7383 9.459 34.7569 9.44043C34.7755 9.42186 34.7971 9.40751 34.8214 9.39746C34.8456 9.38741 34.8722 9.38184 34.8985 9.38184H38.3497C38.6167 9.37815 38.8714 9.26951 39.0587 9.0791C39.2459 8.88869 39.3505 8.63227 39.3497 8.36523C39.35 8.09826 39.2458 7.84183 39.0587 7.65137C38.8716 7.46091 38.6166 7.35114 38.3497 7.34668H34.8946C34.8416 7.34668 34.7905 7.32559 34.753 7.28809C34.7155 7.25058 34.6944 7.2005 34.6944 7.14746V3.69531C34.698 3.51451 34.6533 3.33582 34.5655 3.17773C34.4777 3.01965 34.3498 2.88743 34.1944 2.79492C34.0376 2.70303 33.8586 2.65505 33.6768 2.65527C33.4951 2.65481 33.3169 2.70281 33.1602 2.79492C33.0048 2.88735 32.877 3.01963 32.7891 3.17773C32.7013 3.33583 32.6566 3.51449 32.6602 3.69531V7.14746C32.6613 7.17439 32.6571 7.20039 32.6475 7.22559C32.638 7.25078 32.6232 7.27452 32.6046 7.29395C32.5859 7.31337 32.563 7.32832 32.5382 7.33887C32.5134 7.34941 32.487 7.35549 32.46 7.35547H28.9835C28.8053 7.35375 28.629 7.39796 28.4737 7.48535C28.3184 7.57274 28.1888 7.70031 28.0977 7.85352H28.1065Z" fill="#252849"/>
</g>
<defs>
<clipPath id="clip0_104_1384">
<rect width="41.999" height="36.601" fill="white"/>
</clipPath>
</defs>
</svg>
