<svg width="36" height="36" viewBox="0 0 36 36" fill="none" xmlns="http://www.w3.org/2000/svg">
<path d="M30.39 5.214C27.9005 2.72491 24.7289 1.02991 21.2761 0.343319C17.8233 -0.343269 14.2445 0.00939524 10.9921 1.35672C7.73974 2.70404 4.95993 4.98551 3.00416 7.91265C1.0484 10.8398 0.0045166 14.2811 0.0045166 17.8015C0.0045166 21.3219 1.0484 24.7632 3.00416 27.6904C4.95993 30.6175 7.73974 32.899 10.9921 34.2463C14.2445 35.5936 17.8233 35.9463 21.2761 35.2597C24.7289 34.5731 27.9005 32.8781 30.39 30.389C32.0432 28.7361 33.3546 26.7737 34.2493 24.6139C35.144 22.4541 35.6045 20.1393 35.6045 17.8015C35.6045 15.4637 35.144 13.1489 34.2493 10.9891C33.3546 8.82931 32.0432 6.86692 30.39 5.214ZM8.92502 30.762C9.29308 28.6751 10.3847 26.7845 12.0081 25.4224C13.6315 24.0602 15.6829 23.3136 17.802 23.3136C19.9212 23.3136 21.9726 24.0602 23.596 25.4224C25.2194 26.7845 26.311 28.6751 26.679 30.762C24.0664 32.5562 20.9714 33.5166 17.802 33.5166C14.6326 33.5166 11.5377 32.5562 8.92502 30.762ZM12.142 15.562C12.142 14.4423 12.4741 13.3477 13.0962 12.4167C13.7183 11.4857 14.6026 10.7601 15.6371 10.3317C16.6716 9.90332 17.81 9.79133 18.9082 10.0099C20.0063 10.2285 21.015 10.7679 21.8067 11.5598C22.5983 12.3517 23.1373 13.3606 23.3555 14.4588C23.5737 15.5571 23.4613 16.6954 23.0325 17.7298C22.6038 18.7641 21.8779 19.6481 20.9466 20.2699C20.0154 20.8917 18.9207 21.2234 17.801 21.223C16.3001 21.2225 14.8609 20.626 13.7997 19.5646C12.7386 18.5032 12.1423 17.0639 12.142 15.563V15.562ZM28.485 29.315C28.0274 27.6952 27.2078 26.2004 26.0883 24.9435C24.9687 23.6866 23.5783 22.7003 22.022 22.059C23.4228 21.1488 24.4918 19.8102 25.0697 18.2429C25.6476 16.6755 25.7034 14.9633 25.2287 13.3617C24.7541 11.76 23.7744 10.3547 22.4358 9.3553C21.0973 8.35589 19.4715 7.81591 17.801 7.81591C16.1305 7.81591 14.5048 8.35589 13.1662 9.3553C11.8276 10.3547 10.848 11.76 10.3733 13.3617C9.89867 14.9633 9.95444 16.6755 10.5323 18.2429C11.1102 19.8102 12.1793 21.1488 13.58 22.059C12.0237 22.7002 10.6333 23.6865 9.51369 24.9434C8.39411 26.2004 7.57462 27.6951 7.11702 29.315C4.80055 27.1675 3.18502 24.3717 2.48115 21.2924C1.77727 18.213 2.01771 14.993 3.17111 12.0523C4.32452 9.11165 6.33734 6.58682 8.94706 4.80714C11.5568 3.02746 14.6422 2.07554 17.801 2.07554C20.9598 2.07554 24.0453 3.02746 26.655 4.80714C29.2647 6.58682 31.2775 9.11165 32.4309 12.0523C33.5843 14.993 33.8248 18.213 33.1209 21.2924C32.417 24.3717 30.8015 27.1675 28.485 29.315Z" fill="#252849"/>
</svg>
