<svg width="26" height="25" viewBox="0 0 26 25" fill="none" xmlns="http://www.w3.org/2000/svg">
<path d="M23.1821 6.38597L20.1821 5.05097L18.8461 2.05097L15.5801 2.39197L12.9231 0.460968L10.2651 2.38797L7.00408 2.04697L5.66908 5.04697L2.66908 6.38297L3.01008 9.64897L1.08008 12.308L3.00708 14.967L2.66508 18.229L5.66508 19.564L7.00108 22.564L10.2671 22.223L12.9241 24.15L15.5831 22.223L18.8441 22.564L20.1791 19.564L23.1791 18.228L22.8381 14.961L24.7651 12.307L22.8381 9.64797L23.1821 6.38597ZM10.5531 17.047L7.20008 13.697L8.31808 12.584L10.5561 14.815L17.2561 8.11497L18.3741 9.23197L10.5531 17.047Z" fill="#F43149"/>
<path d="M25.088 12.077L23.249 9.54098L23.574 6.42598C23.5815 6.34349 23.5632 6.26071 23.5217 6.18906C23.4801 6.11741 23.4173 6.06043 23.342 6.02598L20.481 4.75098L19.208 1.88898C19.1737 1.81347 19.1168 1.75048 19.0451 1.70874C18.9735 1.66699 18.8906 1.64856 18.808 1.65598L15.693 1.98098L13.154 0.143978C13.0863 0.095744 13.0052 0.0698242 12.922 0.0698242C12.8389 0.0698242 12.7578 0.095744 12.69 0.143978L10.154 1.98198L7.03901 1.65598C6.95653 1.64847 6.87374 1.66676 6.80209 1.70832C6.73044 1.74988 6.67346 1.81265 6.63901 1.88798L5.36301 4.74998L2.50201 6.02398C2.42669 6.05842 2.36391 6.11541 2.32236 6.18706C2.2808 6.25871 2.26251 6.34149 2.27001 6.42398L2.59501 9.53898L0.757015 12.077C0.708781 12.1447 0.682861 12.2258 0.682861 12.309C0.682861 12.3921 0.708781 12.4732 0.757015 12.541L2.59501 15.077L2.27401 18.192C2.26651 18.2745 2.2848 18.3573 2.32636 18.4289C2.36791 18.5005 2.43069 18.5575 2.50601 18.592L5.36401 19.868L6.63701 22.73C6.67131 22.8055 6.72822 22.8685 6.79988 22.9102C6.87155 22.952 6.95441 22.9704 7.03701 22.963L10.152 22.637L12.688 24.475C12.7558 24.5232 12.8369 24.5491 12.92 24.5491C13.0032 24.5491 13.0843 24.5232 13.152 24.475L15.688 22.637L18.803 22.963C18.8855 22.9705 18.9683 22.9522 19.0399 22.9106C19.1116 22.8691 19.1686 22.8063 19.203 22.731L20.481 19.868L23.342 18.594C23.4173 18.5595 23.4801 18.5025 23.5217 18.4309C23.5632 18.3592 23.5815 18.2765 23.574 18.194L23.248 15.079L25.086 12.543C25.1342 12.4752 25.1602 12.3941 25.1602 12.311C25.1602 12.2278 25.1342 12.1467 25.086 12.079L25.088 12.077ZM22.521 14.736C22.4638 14.8148 22.4378 14.9121 22.448 15.009L22.759 17.989L20.022 19.208C19.9328 19.2474 19.8615 19.3187 19.822 19.408L18.607 22.146L15.626 21.835C15.5293 21.8253 15.4325 21.8516 15.354 21.909L12.926 23.668L10.496 21.91C10.4289 21.8611 10.348 21.8348 10.265 21.835C10.2517 21.8339 10.2383 21.8339 10.225 21.835L7.24401 22.146L6.02901 19.407C5.98893 19.3182 5.91781 19.2471 5.82901 19.207L3.08501 17.989L3.39601 15.009C3.40571 14.9121 3.37975 14.8151 3.32301 14.736L1.56501 12.306L3.32301 9.87598C3.37975 9.79689 3.40571 9.69983 3.39601 9.60298L3.08501 6.62898L5.82301 5.40998C5.9123 5.3706 5.98364 5.29927 6.02301 5.20998L7.23901 2.46798L10.22 2.77898C10.3167 2.78813 10.4133 2.76183 10.492 2.70498L12.922 0.950978L15.352 2.70898C15.4307 2.76583 15.5274 2.79213 15.624 2.78298L18.605 2.46798L19.82 5.20598C19.8601 5.29478 19.9312 5.36589 20.02 5.40598L22.758 6.62498L22.447 9.60498C22.4368 9.70187 22.4628 9.79914 22.52 9.87798L24.278 12.308L22.521 14.736Z" fill="#9E081B"/>
<path d="M17.5321 7.83199C17.4574 7.75929 17.3573 7.71863 17.2531 7.71863C17.1489 7.71863 17.0488 7.75929 16.9741 7.83199L10.5531 14.253L8.59711 12.301C8.52243 12.2283 8.42232 12.1876 8.31811 12.1876C8.21389 12.1876 8.11379 12.2283 8.03911 12.301L6.91911 13.414C6.88237 13.4507 6.85323 13.4942 6.83334 13.5422C6.81346 13.5902 6.80322 13.6416 6.80322 13.6935C6.80322 13.7454 6.81346 13.7968 6.83334 13.8448C6.85323 13.8927 6.88237 13.9363 6.91911 13.973L10.2721 17.326C10.3468 17.3987 10.4469 17.4394 10.5511 17.4394C10.6553 17.4394 10.7554 17.3987 10.8301 17.326L18.6481 9.508C18.7208 9.43332 18.7615 9.33321 18.7615 9.22899C18.7615 9.12477 18.7208 9.02468 18.6481 8.95L17.5321 7.83199Z" fill="white"/>
</svg>
