<svg width="32" height="40" viewBox="0 0 32 40" fill="none" xmlns="http://www.w3.org/2000/svg">
<path fill-rule="evenodd" clip-rule="evenodd" d="M11.161 1.12799C10.9474 1.23295 10.7691 1.39816 10.6483 1.60323C10.5275 1.8083 10.4693 2.04426 10.481 2.28199L10.455 2.78199L11.908 5.35399C12.708 6.76799 13.379 7.97099 13.401 8.02899C13.434 8.11599 12.734 8.12899 9.039 8.12899C3.983 8.12899 3.884 8.13799 2.739 8.70099C1.56022 9.28571 0.659442 10.3115 0.232001 11.556L0.0319998 12.112L0.0109999 23.759C-0.0130001 36.779 -0.0450013 35.959 0.526999 37.097C0.848225 37.7464 1.30692 38.3181 1.87125 38.7724C2.43558 39.2267 3.09202 39.5528 3.795 39.728C4.534 39.902 27.175 39.901 27.916 39.728C28.812 39.4907 29.627 39.015 30.2743 38.3516C30.9216 37.6881 31.3769 36.8616 31.592 35.96C31.702 35.46 31.712 34.231 31.692 23.76L31.671 12.113L31.471 11.557C31.0423 10.3118 30.1406 9.28542 28.961 8.69999C27.846 8.14699 27.721 8.13599 22.654 8.13299C19.073 8.13299 18.271 8.11199 18.302 8.03299C18.323 7.97899 18.992 6.77599 19.79 5.36099C21.235 2.79599 21.24 2.78699 21.24 2.32299C21.2552 2.14688 21.2321 1.96955 21.1721 1.80328C21.1121 1.637 21.0167 1.48573 20.8925 1.35993C20.7683 1.23413 20.6183 1.13679 20.4528 1.07464C20.2873 1.0125 20.1103 0.987028 19.934 0.999992C19.059 0.999992 19.064 0.994992 17.295 4.13599C16.527 5.49999 15.878 6.61499 15.852 6.61499C15.826 6.61499 15.177 5.49999 14.409 4.13599C12.951 1.54799 12.785 1.29399 12.432 1.11099C12.0198 0.965493 11.5692 0.97152 11.161 1.12799ZM27.475 11.04C28.0168 11.2724 28.4598 11.6875 28.727 12.213L28.94 12.647V35.409L28.754 35.787C28.4876 36.3163 28.0402 36.7326 27.493 36.96C27.078 37.115 27 37.116 15.851 37.116H4.628L4.196 36.954C3.65025 36.7322 3.20601 36.3161 2.949 35.786L2.763 35.409V12.647L2.925 12.296C3.08011 11.9503 3.31621 11.647 3.61334 11.4118C3.91048 11.1767 4.25988 11.0165 4.632 10.945C5.375 10.797 27.083 10.888 27.475 11.045M15.397 20.783C14.185 21.246 7.807 24.113 7.646 24.267C7.44759 24.4517 7.3094 24.6919 7.24943 24.9563C7.18945 25.2207 7.21047 25.497 7.30974 25.7493C7.40901 26.0016 7.58193 26.2181 7.806 26.3708C8.03007 26.5234 8.29489 26.605 8.566 26.605C8.943 26.605 9.254 26.489 11.641 25.442C13.102 24.801 14.341 24.261 14.386 24.242C14.451 24.216 14.486 24.509 14.5 25.342C14.533 26.842 14.966 27.429 15.959 27.315C16.323 27.273 23.583 24.138 23.959 23.859C24.1432 23.7166 24.2878 23.5293 24.3791 23.3151C24.4703 23.1009 24.5051 22.8668 24.4801 22.6353C24.4552 22.4038 24.3712 22.1826 24.2364 21.9928C24.1016 21.8029 23.9204 21.6508 23.71 21.551C23.172 21.276 22.91 21.351 19.949 22.651L17.255 23.829L17.218 22.709C17.178 21.548 17.147 21.432 16.788 21.092C16.6008 20.9277 16.3752 20.8133 16.1321 20.7591C15.8891 20.7049 15.6362 20.7128 15.397 20.782" fill="#373B63"/>
</svg>
