<svg width="42" height="41" viewBox="0 0 42 41" fill="none" xmlns="http://www.w3.org/2000/svg">
<path fill-rule="evenodd" clip-rule="evenodd" d="M19.0201 1.02701C13.9608 1.52464 9.28026 3.92802 5.92783 7.74964C2.5754 11.5713 0.802107 16.525 0.967662 21.6059C1.13322 26.6869 3.22522 31.5146 6.81931 35.1099C10.4134 38.7052 15.2405 40.7988 20.3214 40.966C25.4023 41.1332 30.3566 39.3616 34.1793 36.0104C38.002 32.6592 40.407 27.9795 40.9062 22.9204C41.4055 17.8613 39.9618 12.8017 36.8679 8.76795C33.774 4.73416 29.2616 2.02822 24.246 1.19901C22.5106 1.01428 20.7639 0.956795 19.0201 1.02701ZM23.1201 16.55C29.0951 20.391 29.269 20.521 29.269 20.933C29.269 21.345 29.093 21.475 23.119 25.317C16.501 29.574 16.7281 29.453 16.2881 28.941C16.0111 28.62 16.0101 28.566 16.0341 20.657C16.0591 12.521 16.0341 12.947 16.5151 12.746C16.9151 12.575 17.1291 12.695 23.1241 16.546" fill="white"/>
</svg>
