<svg width="36" height="37" viewBox="0 0 36 37" fill="none" xmlns="http://www.w3.org/2000/svg">
<path d="M17.6522 36.299C14.1618 36.2983 10.7499 35.2627 7.84781 33.3233C4.94576 31.3839 2.68383 28.6276 1.34793 25.4029C0.0120269 22.1782 -0.337865 18.6299 0.342477 15.2064C1.02282 11.7828 2.70285 8.63788 5.17022 6.16899C8.48065 2.85856 12.9706 0.998779 17.6522 0.998779C22.3339 0.998779 26.8238 2.85856 30.1342 6.16899C33.4446 9.47943 35.3044 13.9693 35.3044 18.651C35.3044 23.3327 33.4446 27.8226 30.1342 31.133C28.4985 32.7765 26.5531 34.0793 24.4106 34.9661C22.2681 35.8528 19.971 36.3059 17.6522 36.299ZM10.6652 17.041C10.3666 17.0395 10.0761 17.1384 9.84042 17.3217C9.60469 17.5051 9.43735 17.7622 9.36522 18.052V18.702C9.43773 18.9914 9.60524 19.2481 9.84093 19.431C10.0766 19.614 10.3669 19.7126 10.6652 19.711H16.0102V25.052C16.0102 25.4063 16.151 25.7461 16.4015 25.9967C16.6521 26.2472 16.9919 26.388 17.3462 26.388C17.7005 26.388 18.0404 26.2472 18.2909 25.9967C18.5415 25.7461 18.6822 25.4063 18.6822 25.052V19.711H24.0302C24.3844 19.711 24.7241 19.5703 24.9746 19.3198C25.225 19.0694 25.3657 18.7297 25.3657 18.3755C25.3657 18.0213 25.225 17.6816 24.9746 17.4312C24.7241 17.1807 24.3844 17.04 24.0302 17.04H18.6822V11.699C18.6822 11.3447 18.5415 11.0048 18.2909 10.7543C18.0404 10.5037 17.7005 10.363 17.3462 10.363C16.9919 10.363 16.6521 10.5037 16.4015 10.7543C16.151 11.0048 16.0102 11.3447 16.0102 11.699V17.042L10.6652 17.041Z" fill="white"/>
</svg>
