<svg width="24" height="24" viewBox="0 0 24 24" fill="none" xmlns="http://www.w3.org/2000/svg">
<path fill-rule="evenodd" clip-rule="evenodd" d="M10.6139 0.291009C7.77182 0.568678 5.12801 1.87129 3.17612 3.9556C1.22423 6.03992 0.0977122 8.76342 0.00692433 11.6175C-0.0838635 14.4717 0.867288 17.2612 2.68277 19.4654C4.49824 21.6695 7.05392 23.1376 9.87256 23.5953C12.6912 24.053 15.5801 23.4692 17.9998 21.9528C20.4194 20.4364 22.2044 18.0912 23.0215 15.355C23.8385 12.6188 23.6317 9.67877 22.4397 7.08391C21.2477 4.48904 19.152 2.41675 16.5439 1.25401C14.6726 0.463373 12.6391 0.133134 10.6139 0.291009ZM12.6749 3.90701C13.5182 4.11055 14.2681 4.5928 14.8031 5.27566C15.3382 5.95852 15.6271 6.802 15.623 7.66951C15.619 8.53702 15.3222 9.37777 14.7808 10.0556C14.2393 10.7334 13.4849 11.2086 12.6398 11.4043C11.7946 11.5999 10.9081 11.5045 10.1239 11.1335C9.33971 10.7626 8.70368 10.1378 8.31884 9.36028C7.934 8.58279 7.82287 7.69816 8.00345 6.84964C8.18404 6.00112 8.64576 5.23841 9.31385 4.68501C9.77465 4.3023 10.3186 4.03264 10.9021 3.89756C11.4857 3.76247 12.0928 3.76571 12.6749 3.90701ZM14.6889 13.507C17.3209 13.934 18.9279 17.298 17.1709 18.7C15.6506 19.9304 13.7564 20.6058 11.8006 20.6149C9.84491 20.624 7.94449 19.9662 6.41285 18.75C6.07749 18.5221 5.82419 18.1924 5.69025 17.8097C5.5563 17.427 5.5488 17.0113 5.66885 16.624C5.82469 15.8542 6.2044 15.1475 6.76034 14.5926C7.31628 14.0377 8.0237 13.6594 8.79385 13.505C9.14385 13.446 14.3289 13.445 14.6869 13.505" fill="white"/>
</svg>
