<svg width="32" height="31" viewBox="0 0 32 31" fill="none" xmlns="http://www.w3.org/2000/svg">
<path fill-rule="evenodd" clip-rule="evenodd" d="M14.5466 1.03599C10.9178 1.3898 7.54191 3.0523 5.04921 5.71305C2.55651 8.3738 1.11749 11.8509 1.00085 15.495C0.884217 19.1391 2.09795 22.7011 4.41539 25.5158C6.73284 28.3305 9.99555 30.2055 13.5943 30.7906C17.193 31.3757 20.8816 30.631 23.9714 28.6955C27.0613 26.76 29.3409 23.766 30.3848 20.2726C31.4287 16.7793 31.1654 13.0254 29.644 9.71202C28.1227 6.39861 25.4474 3.75221 22.1176 2.26699C19.7286 1.25741 17.1323 0.835614 14.5466 1.03699M17.1786 5.65499C18.2555 5.91508 19.2131 6.53109 19.8963 7.40327C20.5795 8.27544 20.9482 9.3527 20.9428 10.4606C20.9374 11.5684 20.5581 12.6421 19.8665 13.5075C19.1748 14.373 18.2112 14.9796 17.1318 15.2291C16.0524 15.4787 14.9203 15.3565 13.919 14.8825C12.9177 14.4084 12.1057 13.6102 11.6146 12.6171C11.1235 11.624 10.982 10.4942 11.213 9.41068C11.4441 8.32716 12.0341 7.35336 12.8876 6.64699C13.476 6.1585 14.1704 5.81431 14.9154 5.6419C15.6604 5.46949 16.4355 5.47363 17.1786 5.65399M19.7506 17.906C23.1116 18.451 25.1636 22.747 22.9196 24.537C20.9784 26.1065 18.5604 26.9677 16.0641 26.9786C13.5679 26.9895 11.1424 26.1495 9.18761 24.597C8.75969 24.3058 8.43653 23.885 8.26569 23.3964C8.09485 22.9079 8.08536 22.3774 8.23861 21.883C8.43883 20.9005 8.92465 19.999 9.63517 19.2915C10.3457 18.584 11.2493 18.102 12.2326 17.906C12.6796 17.831 19.2996 17.829 19.7566 17.906" fill="#6080A0"/>
</svg>
