<svg width="38" height="37" viewBox="0 0 38 37" fill="none" xmlns="http://www.w3.org/2000/svg">
<path fill-rule="evenodd" clip-rule="evenodd" d="M17.9711 0.0659982C13.2237 0.388875 8.7874 2.54344 5.5984 6.07502C2.40939 9.6066 0.717096 14.239 0.878628 18.9946C1.04016 23.7502 3.04288 28.257 6.46417 31.5641C9.88547 34.8711 14.4577 36.7197 19.2161 36.7197C23.9744 36.7197 28.5466 34.8711 31.9679 31.5641C35.3892 28.257 37.3919 23.7502 37.5535 18.9946C37.715 14.239 36.0227 9.6066 32.8337 6.07502C29.6447 2.54344 25.2084 0.388875 20.4611 0.0659982C19.6333 -0.0200158 18.7988 -0.0200158 17.9711 0.0659982ZM20.6511 2.072C33.5901 3.096 40.2081 18.341 32.1071 28.457C22.9241 39.924 4.48705 34.396 3.09805 19.757C2.89361 17.3945 3.20622 15.0158 4.01415 12.7863C4.82208 10.5568 6.10594 8.53006 7.77645 6.84698C9.44696 5.16391 11.464 3.86491 13.6874 3.04029C15.9108 2.21568 18.2871 1.88526 20.6511 2.072ZM18.8891 7.372C17.9221 7.618 17.6891 7.872 16.2241 10.356L15.1151 12.228C15.1151 12.236 14.1441 12.495 12.9671 12.805C9.71105 13.662 9.16105 14.098 9.16705 15.82C9.16705 16.768 9.21105 16.843 10.9541 19.028C11.5115 19.6363 11.9961 20.3075 12.3981 21.028C12.3981 21.128 12.3311 22.197 12.2481 23.399C12.0481 26.239 12.1341 26.671 13.0131 27.461C14.0421 28.386 14.7261 28.342 17.4441 27.177C18.5631 26.698 19.5061 26.305 19.5441 26.305C19.5821 26.305 20.5191 26.697 21.6351 27.176L23.6651 28.048H24.4081C24.7466 28.0718 25.0864 28.0234 25.405 27.9062C25.7235 27.789 26.0136 27.6055 26.256 27.3679C26.4984 27.1303 26.6876 26.844 26.8113 26.5279C26.9349 26.2118 26.99 25.873 26.9731 25.534C26.9731 25.061 26.8121 22.353 26.7201 21.273L26.6871 20.889L28.1871 18.995C30.0561 16.636 30.2551 16.15 29.8431 14.947C29.4601 13.828 28.9711 13.547 26.1911 12.818C25.4345 12.6439 24.6897 12.4221 23.9611 12.154C23.9201 12.098 23.4181 11.254 22.8461 10.285C21.2181 7.521 20.4741 6.973 18.8941 7.374M19.9651 9.453C20.0171 9.505 20.6541 10.553 21.3811 11.774L22.6991 13.996L25.1501 14.637C27.9991 15.382 27.8221 15.32 27.9391 15.603C28.0681 15.915 28.0761 15.903 26.2731 18.159L24.6731 20.166V20.538C24.6731 20.738 24.7381 21.846 24.8181 22.991C25.0771 26.691 25.3011 26.527 21.9471 25.099C20.6851 24.561 19.6021 24.124 19.5401 24.128C19.4781 24.132 18.3991 24.573 17.1401 25.11C13.8161 26.529 14.0401 26.702 14.2991 22.934L14.4851 20.201L12.8061 18.116C10.5061 15.255 10.4221 15.529 13.9331 14.631L16.3991 13.996L17.7561 11.714C18.2114 10.8974 18.716 10.1093 19.2671 9.354C19.3814 9.31159 19.5044 9.29772 19.6253 9.31357C19.7463 9.32943 19.8615 9.37454 19.9611 9.445" fill="#252849"/>
</svg>
